<svg width="111" height="125" viewBox="0 0 111 125" fill="none" xmlns="http://www.w3.org/2000/svg">
<g clip-path="url(#clip0_6_569)">
<g filter="url(#filter0_d_6_569)">
<path d="M102.076 46.0132L95.1935 39.5032L88.3113 32.9932L81.4254 26.4832L74.5473 19.9731H74.5432L58.1227 35.5059L65.0049 42.0161L74.5432 32.9932L81.4254 39.5032L88.3074 46.0132L91.8492 49.3638C93.6951 51.1099 93.6951 53.9406 91.8492 55.6867L88.3113 59.0371H88.3074L81.4293 65.5473L74.5473 72.0573H74.5432L62.222 60.4021H48.458L53.8972 65.5473L60.7751 72.0573H60.7792L74.5432 85.0773H74.5473L81.4254 78.5673L88.3113 72.0573L95.1935 65.5473L102.071 59.0371H102.076L102.079 59.0334C105.878 55.4361 105.878 49.6068 102.076 46.0132Z" fill="black"/>
<path d="M29.7802 65.5473L22.8982 59.0371V59.0334L19.6964 56.0045C17.6646 54.0827 17.6646 50.9641 19.6964 49.0421L22.8982 46.0134C26.7011 42.4161 26.7011 36.5905 22.8982 32.9932L9.13417 46.0134L9.13019 46.0171C5.33143 49.6143 5.33143 55.44 9.13019 59.0371H9.13417L36.6625 85.0773H36.6663C40.4692 81.4802 40.4692 75.6543 36.6663 72.0573L29.7802 65.5473Z" fill="black"/>
<path d="M36.5319 57.0367H66.3054C68.9421 54.5425 68.9421 50.5005 66.3094 48.0101L66.1197 47.8306L64.1945 46.0095H64.1907L57.3125 39.4995L50.4305 32.9895L43.5445 26.4793L36.6663 19.9693H36.6625C32.8596 23.5666 32.8596 29.3923 36.6625 32.9895H36.6663L43.5483 39.4995L50.4265 46.0095H50.3513L52.2765 47.8306H36.7138C35.4487 47.8306 34.2352 48.3054 33.3379 49.1542L33.1522 49.33C31.2904 51.0912 31.2863 53.9518 33.1522 55.7168C34.0495 56.5617 35.263 57.0367 36.5319 57.0367Z" fill="black"/>
</g>
</g>
<path d="M11.8379 114V100.7H19.1179V102.5H13.5779V106.54H17.2979V108.18H13.5779V112.2H19.1179V114H11.8379ZM26.1752 114.18C25.4152 114.18 24.7819 114.06 24.2752 113.82C23.7686 113.567 23.3086 113.173 22.8952 112.64V118.26H21.1152V104.24H22.8952V105.64C23.3086 105.133 23.8019 104.727 24.3752 104.42C24.9486 104.113 25.5486 103.96 26.1752 103.96C26.8552 103.96 27.5019 104.093 28.1152 104.36C28.7419 104.613 29.2819 104.98 29.7352 105.46C30.2019 105.94 30.5619 106.493 30.8152 107.12C31.0819 107.733 31.2152 108.387 31.2152 109.08C31.2152 109.773 31.0819 110.427 30.8152 111.04C30.5619 111.653 30.2019 112.2 29.7352 112.68C29.2819 113.147 28.7419 113.513 28.1152 113.78C27.5019 114.047 26.8552 114.18 26.1752 114.18ZM26.1752 105.78C25.7352 105.78 25.3152 105.867 24.9152 106.04C24.5152 106.2 24.1686 106.433 23.8752 106.74C23.5819 107.047 23.3486 107.407 23.1752 107.82C23.0019 108.22 22.9152 108.64 22.9152 109.08C22.9152 109.52 23.0019 109.94 23.1752 110.34C23.3486 110.74 23.5819 111.093 23.8752 111.4C24.1686 111.707 24.5152 111.947 24.9152 112.12C25.3152 112.293 25.7352 112.38 26.1752 112.38C26.6152 112.38 27.0352 112.293 27.4352 112.12C27.8352 111.947 28.1819 111.707 28.4752 111.4C28.7686 111.093 28.9952 110.74 29.1552 110.34C29.3286 109.94 29.4152 109.52 29.4152 109.08C29.4152 108.64 29.3286 108.22 29.1552 107.82C28.9952 107.407 28.7686 107.047 28.4752 106.74C28.1819 106.433 27.8352 106.2 27.4352 106.04C27.0352 105.867 26.6152 105.78 26.1752 105.78ZM37.8698 114.1C37.1898 114.1 36.5431 113.967 35.9298 113.7C35.3164 113.433 34.7764 113.067 34.3098 112.6C33.8431 112.133 33.4764 111.593 33.2098 110.98C32.9431 110.367 32.8098 109.72 32.8098 109.04C32.8098 108.347 32.9431 107.687 33.2098 107.06C33.4764 106.433 33.8431 105.887 34.3098 105.42C34.7764 104.953 35.3164 104.593 35.9298 104.34C36.5431 104.073 37.1898 103.94 37.8698 103.94C38.5631 103.94 39.2231 104.073 39.8498 104.34C40.4764 104.593 41.0231 104.953 41.4898 105.42C41.9564 105.887 42.3164 106.433 42.5698 107.06C42.8364 107.687 42.9698 108.347 42.9698 109.04C42.9698 109.72 42.8364 110.367 42.5698 110.98C42.3164 111.593 41.9564 112.133 41.4898 112.6C41.0231 113.067 40.4764 113.433 39.8498 113.7C39.2231 113.967 38.5631 114.1 37.8698 114.1ZM37.8698 105.72C36.9764 105.72 36.2098 106.04 35.5698 106.68C35.2631 106.987 35.0231 107.347 34.8498 107.76C34.6764 108.173 34.5898 108.6 34.5898 109.04C34.5898 109.48 34.6764 109.9 34.8498 110.3C35.0231 110.7 35.2631 111.053 35.5698 111.36C35.8764 111.667 36.2231 111.907 36.6098 112.08C37.0098 112.253 37.4298 112.34 37.8698 112.34C38.3098 112.34 38.7364 112.253 39.1498 112.08C39.5631 111.907 39.9164 111.667 40.2098 111.36C40.5031 111.053 40.7364 110.7 40.9098 110.3C41.0831 109.9 41.1698 109.48 41.1698 109.04C41.1698 108.6 41.0831 108.173 40.9098 107.76C40.7364 107.347 40.5031 106.987 40.2098 106.68C39.9164 106.373 39.5631 106.14 39.1498 105.98C38.7498 105.807 38.3231 105.72 37.8698 105.72ZM52.497 118.26V112.66C52.097 113.127 51.597 113.5 50.997 113.78C50.4103 114.047 49.817 114.18 49.217 114.18C48.537 114.18 47.8836 114.047 47.257 113.78C46.6436 113.513 46.1103 113.147 45.657 112.68C45.1903 112.2 44.8236 111.653 44.557 111.04C44.3036 110.427 44.177 109.773 44.177 109.08C44.177 108.387 44.3036 107.733 44.557 107.12C44.8236 106.493 45.1903 105.94 45.657 105.46C46.1103 104.98 46.6436 104.613 47.257 104.36C47.8836 104.093 48.537 103.96 49.217 103.96C49.8436 103.96 50.4436 104.113 51.017 104.42C51.5903 104.713 52.0836 105.113 52.497 105.62V104.24H54.277V118.26H52.497ZM49.217 105.78C48.777 105.78 48.357 105.867 47.957 106.04C47.557 106.2 47.2103 106.433 46.917 106.74C46.6236 107.047 46.3903 107.407 46.217 107.82C46.057 108.22 45.977 108.64 45.977 109.08C45.977 109.52 46.057 109.94 46.217 110.34C46.3903 110.74 46.6236 111.093 46.917 111.4C47.2103 111.707 47.557 111.947 47.957 112.12C48.357 112.293 48.777 112.38 49.217 112.38C49.657 112.38 50.077 112.293 50.477 112.12C50.877 111.947 51.2236 111.707 51.517 111.4C51.8103 111.093 52.0436 110.74 52.217 110.34C52.3903 109.94 52.477 109.52 52.477 109.08C52.477 108.64 52.3903 108.22 52.217 107.82C52.0436 107.407 51.8103 107.047 51.517 106.74C51.2236 106.433 50.877 106.2 50.477 106.04C50.077 105.867 49.657 105.78 49.217 105.78ZM65.0754 114V112.38L70.6954 105.86H65.0754V104.08H73.1754V105.72L67.5754 112.22H73.1754V114H65.0754ZM76.3118 109.76C76.3118 110.08 76.4251 110.413 76.6518 110.76C76.8918 111.107 77.1651 111.4 77.4718 111.64C78.0318 112.08 78.6851 112.3 79.4318 112.3C80.6185 112.3 81.5851 111.727 82.3318 110.58L83.8518 111.48C83.3318 112.32 82.6918 112.967 81.9318 113.42C81.1718 113.873 80.3385 114.1 79.4318 114.1C78.7518 114.1 78.1051 113.973 77.4918 113.72C76.8785 113.453 76.3385 113.087 75.8718 112.62C75.4051 112.153 75.0385 111.613 74.7718 111C74.5185 110.387 74.3918 109.74 74.3918 109.06C74.3918 108.38 74.5185 107.733 74.7718 107.12C75.0385 106.493 75.4051 105.947 75.8718 105.48C76.3251 105.013 76.8585 104.653 77.4718 104.4C78.0985 104.147 78.7518 104.02 79.4318 104.02C80.1118 104.02 80.7585 104.147 81.3718 104.4C81.9985 104.653 82.5385 105.013 82.9918 105.48C83.9785 106.493 84.4718 107.667 84.4718 109C84.4718 109.24 84.4518 109.493 84.4118 109.76H76.3118ZM79.4318 105.66C78.8851 105.66 78.3718 105.78 77.8918 106.02C77.4118 106.26 77.0251 106.58 76.7318 106.98C76.4518 107.367 76.3118 107.78 76.3118 108.22H82.5518C82.5518 107.78 82.4051 107.367 82.1118 106.98C81.8318 106.58 81.4518 106.26 80.9718 106.02C80.4918 105.78 79.9785 105.66 79.4318 105.66ZM90.7315 105.92C90.4115 105.773 90.1248 105.7 89.8715 105.7C89.3382 105.7 88.8982 105.887 88.5515 106.26C88.1782 106.66 87.9915 107.12 87.9915 107.64V114H86.2715V107.64C86.2715 106.92 86.4515 106.26 86.8115 105.66C87.1848 105.06 87.6915 104.593 88.3315 104.26C88.8115 104.033 89.3248 103.92 89.8715 103.92C90.3115 103.92 90.7315 104 91.1315 104.16C91.5315 104.32 91.9515 104.58 92.3915 104.94L90.7315 105.92ZM97.2643 114.1C96.5843 114.1 95.9376 113.967 95.3243 113.7C94.711 113.433 94.171 113.067 93.7043 112.6C93.2376 112.133 92.871 111.593 92.6043 110.98C92.3376 110.367 92.2043 109.72 92.2043 109.04C92.2043 108.347 92.3376 107.687 92.6043 107.06C92.871 106.433 93.2376 105.887 93.7043 105.42C94.171 104.953 94.711 104.593 95.3243 104.34C95.9376 104.073 96.5843 103.94 97.2643 103.94C97.9576 103.94 98.6176 104.073 99.2443 104.34C99.871 104.593 100.418 104.953 100.884 105.42C101.351 105.887 101.711 106.433 101.964 107.06C102.231 107.687 102.364 108.347 102.364 109.04C102.364 109.72 102.231 110.367 101.964 110.98C101.711 111.593 101.351 112.133 100.884 112.6C100.418 113.067 99.871 113.433 99.2443 113.7C98.6176 113.967 97.9576 114.1 97.2643 114.1ZM97.2643 105.72C96.371 105.72 95.6043 106.04 94.9643 106.68C94.6576 106.987 94.4176 107.347 94.2443 107.76C94.071 108.173 93.9843 108.6 93.9843 109.04C93.9843 109.48 94.071 109.9 94.2443 110.3C94.4176 110.7 94.6576 111.053 94.9643 111.36C95.271 111.667 95.6176 111.907 96.0043 112.08C96.4043 112.253 96.8243 112.34 97.2643 112.34C97.7043 112.34 98.131 112.253 98.5443 112.08C98.9576 111.907 99.311 111.667 99.6043 111.36C99.8976 111.053 100.131 110.7 100.304 110.3C100.478 109.9 100.564 109.48 100.564 109.04C100.564 108.6 100.478 108.173 100.304 107.76C100.131 107.347 99.8976 106.987 99.6043 106.68C99.311 106.373 98.9576 106.14 98.5443 105.98C98.1443 105.807 97.7176 105.72 97.2643 105.72Z" fill="black"/>
<defs>
<filter id="filter0_d_6_569" x="-6.71888" y="10.9693" width="124.647" height="91.108" filterUnits="userSpaceOnUse" color-interpolation-filters="sRGB">
<feFlood flood-opacity="0" result="BackgroundImageFix"/>
<feColorMatrix in="SourceAlpha" type="matrix" values="0 0 0 0 0 0 0 0 0 0 0 0 0 0 0 0 0 0 127 0" result="hardAlpha"/>
<feOffset dy="4"/>
<feGaussianBlur stdDeviation="6.5"/>
<feColorMatrix type="matrix" values="0 0 0 0 0 0 0 0 0 0 0 0 0 0 0 0 0 0 0.08 0"/>
<feBlend mode="normal" in2="BackgroundImageFix" result="effect1_dropShadow_6_569"/>
<feBlend mode="normal" in="SourceGraphic" in2="effect1_dropShadow_6_569" result="shape"/>
</filter>
<clipPath id="clip0_6_569">
<rect width="111" height="105" fill="white"/>
</clipPath>
</defs>
</svg>
