<svg width="77" height="73" viewBox="0 0 77 73" fill="none" xmlns="http://www.w3.org/2000/svg">
<g clip-path="url(#clip0_13_3)">
<g filter="url(#filter0_d_13_3)">
<path d="M70.8091 31.9901L66.0351 27.4641L61.261 22.9381L56.4843 18.4121L51.713 13.886H51.7101L40.3193 24.685L45.0935 29.2112L51.7101 22.9381L56.4843 27.4641L61.2583 31.9901L63.7152 34.3196C64.9957 35.5335 64.9957 37.5015 63.7152 38.7155L61.261 41.0448H61.2583L56.487 45.571L51.713 50.097H51.7101L43.163 41.9938H33.615L37.3881 45.571L42.1593 50.097H42.1621L51.7101 59.149H51.713L56.4843 54.623L61.261 50.097L66.0351 45.571L70.8063 41.0448H70.8091L70.8118 41.0423C73.447 38.5413 73.447 34.4885 70.8091 31.9901Z" fill="black"/>
<path d="M20.6584 45.5709L15.8844 41.0448V41.0423L13.6633 38.9365C12.2538 37.6004 12.2538 35.4322 13.6633 34.0959L15.8844 31.9903C18.5224 29.4893 18.5224 25.4391 15.8844 22.9381L6.33632 31.9903L6.33356 31.9928C3.69838 34.4938 3.69838 38.544 6.33356 41.0448H6.33632L25.4325 59.1489H25.4352C28.0732 56.6481 28.0732 52.5978 25.4352 50.0969L20.6584 45.5709Z" fill="black"/>
<path d="M25.342 39.6541H45.9956C47.8247 37.92 47.8247 35.1099 45.9985 33.3785L45.8668 33.2537L44.5314 31.9876H44.5287L39.7574 27.4616L34.9834 22.9356L30.2065 18.4094L25.4352 13.8834H25.4325C22.7945 16.3844 22.7945 20.4346 25.4325 22.9356H25.4352L30.2092 27.4616L34.9805 31.9876H34.9284L36.2639 33.2537H25.4681C24.5906 33.2537 23.7488 33.5837 23.1263 34.1738L22.9975 34.2961C21.706 35.5205 21.7031 37.5093 22.9975 38.7364C23.62 39.3238 24.4618 39.6541 25.342 39.6541Z" fill="black"/>
</g>
</g>
<defs>
<filter id="filter0_d_13_3" x="-8.64282" y="4.88342" width="94.4307" height="71.2655" filterUnits="userSpaceOnUse" color-interpolation-filters="sRGB">
<feFlood flood-opacity="0" result="BackgroundImageFix"/>
<feColorMatrix in="SourceAlpha" type="matrix" values="0 0 0 0 0 0 0 0 0 0 0 0 0 0 0 0 0 0 127 0" result="hardAlpha"/>
<feOffset dy="4"/>
<feGaussianBlur stdDeviation="6.5"/>
<feColorMatrix type="matrix" values="0 0 0 0 0 0 0 0 0 0 0 0 0 0 0 0 0 0 0.08 0"/>
<feBlend mode="normal" in2="BackgroundImageFix" result="effect1_dropShadow_13_3"/>
<feBlend mode="normal" in="SourceGraphic" in2="effect1_dropShadow_13_3" result="shape"/>
</filter>
<clipPath id="clip0_13_3">
<rect width="77" height="73" fill="white"/>
</clipPath>
</defs>
</svg>
