<svg width="390" height="261" viewBox="0 0 390 261" fill="none" xmlns="http://www.w3.org/2000/svg">
<g opacity="0.5">
<path d="M342.023 231.496H62.184C45.985 217.748 33.6964 199.497 28.0294 179.264C25.2474 169.334 23.9765 159.005 24.2038 148.713C24.3114 143.845 25.106 139.073 25.3753 134.257C25.6592 129.165 26.7954 124.117 28.7236 119.38C29.8468 116.622 31.2861 113.903 33.5429 111.917C35.7992 109.932 39.0087 108.786 41.9357 109.573C47.2273 110.993 49.5553 117.613 55.201 118.305C59.9803 118.89 63.5963 113.491 63.2589 108.791C62.9203 104.091 60.0718 99.9881 57.9133 95.7761C49.2366 78.8461 51.9406 56.9544 64.4892 42.5332C77.0384 28.1119 98.6979 22.0039 117.168 27.6786C129.495 31.4657 139.853 39.7869 151.867 44.4385C170.315 51.582 191.224 49.5128 210.332 44.2834C229.44 39.0545 247.587 30.8325 266.71 25.659C285.833 20.4854 306.774 18.5384 325.156 25.8417C341.155 32.1981 354.083 45.5649 359.686 61.5423C365.289 77.5202 363.47 95.8356 354.829 110.459C350.123 118.423 346.12 128.7 348.089 137.694C350.059 146.688 354.507 154.977 357.105 163.817C363.816 186.651 359.155 214.654 342.023 231.496Z" fill="#C2F4F5"/>
<path d="M31.4601 94.6052C32.3566 97.4887 33.9936 100.321 36.6778 101.801C39.3621 103.281 43.2241 102.947 45.002 100.486C46.2037 98.8224 46.2474 96.6389 46.2463 94.602C46.2443 91.1172 46.2422 87.6323 46.2401 84.1474C46.238 81.2618 46.1834 78.193 44.5725 75.7756C41.4431 71.0802 36.0803 72.7819 33.7346 76.7637C30.5751 82.1252 29.6074 88.646 31.4601 94.6052Z" fill="#C2F4F5"/>
<path d="M116.717 230.083C108.46 233.017 99.4346 233.74 90.8187 232.157C76.5863 229.542 64.0366 220.828 54.2388 210.141C44.4404 199.453 37.0642 186.802 29.7665 174.26C58.9625 171.083 89.8146 182.34 110.266 203.495C113.335 206.669 116.231 210.123 117.964 214.19C119.697 218.256 118.52 226.046 116.717 230.083Z" fill="#0096AA"/>
<path d="M116.038 227.646C106.022 218.682 95.3873 210.534 84.2146 203.222C81.2662 196.845 74.6185 188.52 74.5509 188.436C74.3726 188.213 74.0507 188.18 73.8261 188.357C73.604 188.536 73.5692 188.862 73.7475 189.085C73.8089 189.161 79.3682 196.124 82.5137 202.112C77.4016 198.822 72.1761 195.709 66.8461 192.776C65.388 188.351 61.149 184.028 60.9665 183.844C60.7663 183.641 60.4397 183.64 60.2374 183.841C60.0357 184.043 60.0346 184.37 60.2348 184.573C60.2743 184.613 63.7921 188.198 65.4541 192.02C58.3758 188.181 51.1208 184.645 43.6895 181.448C43.429 181.336 43.1253 181.457 43.0129 181.72C42.9006 181.982 43.0213 182.287 43.2833 182.399C51.1125 185.767 58.7471 189.508 66.1805 193.592C66.181 193.592 66.1821 193.593 66.1826 193.593C66.2751 193.644 66.3687 193.693 66.4613 193.745C63.5181 193.552 58.444 193.545 53.6776 195.119C53.4052 195.208 53.2601 195.502 53.349 195.773C53.4379 196.044 53.7296 196.192 53.9995 196.103C60.5063 193.954 67.8554 194.887 68.7249 195.009C77.1468 199.756 85.2973 204.961 93.1519 210.604C86.7439 209.661 76.7344 210.585 68.3364 214.39C68.0811 214.508 67.9615 214.815 68.0785 215.075C68.196 215.335 68.5013 215.452 68.7607 215.334C78.0141 211.141 89.2378 210.518 95.1585 212.055C102.133 217.166 108.873 222.62 115.351 228.418C115.529 228.578 115.786 228.591 115.977 228.465C116.014 228.441 116.049 228.412 116.08 228.377C116.269 228.164 116.25 227.836 116.038 227.646Z" fill="#76CCCB"/>
<g opacity="0.399994">
<path d="M80.7428 224.012C89.2797 229.079 99.3542 231.059 109.27 231.237C110.526 231.259 111.781 231.254 113.036 231.225C114.277 230.89 115.506 230.513 116.717 230.083C118.52 226.046 119.697 218.256 117.964 214.19C116.231 210.123 113.335 206.669 110.266 203.496C94.7568 187.452 73.2658 177.109 51.0519 174.429C53.1048 182.903 55.5764 191.278 59.3329 199.123C64.133 209.148 71.2055 218.352 80.7428 224.012Z" fill="#47284F"/>
</g>
<path d="M106.423 231.346C96.8164 229.059 87.8282 224.205 80.632 217.419C68.7442 206.21 62.1642 190.257 59.392 174.122C56.6199 157.989 57.3365 141.481 58.0614 125.124C87.6478 140.029 110.014 169.621 116.502 202.207C117.476 207.096 118.116 212.143 117.282 217.059C116.447 221.974 110.588 228.629 106.423 231.346Z" fill="#41AABE"/>
<path d="M104.769 222.785C100.982 208.665 96.1481 194.917 90.3309 181.608C91.4301 174.057 90.3225 162.528 90.3111 162.411C90.2809 162.102 90.0085 161.88 89.6996 161.907C89.3917 161.937 89.1671 162.212 89.1973 162.521C89.2077 162.627 90.1333 172.27 89.4437 179.584C86.7486 173.545 83.8465 167.6 80.7421 161.755C82.0395 156.865 80.7493 150.409 80.6927 150.133C80.6308 149.829 80.3344 149.633 80.0323 149.695C79.7291 149.757 79.5341 150.055 79.596 150.359C79.6085 150.418 80.6802 155.775 79.9257 160.238C75.7714 152.526 71.2755 144.985 66.4197 137.645C66.2491 137.388 65.9018 137.317 65.6439 137.488C65.3865 137.66 65.3163 138.009 65.4873 138.268C70.6026 145.999 75.3216 153.953 79.6547 162.099C79.6553 162.099 79.6558 162.1 79.6558 162.101C79.7099 162.202 79.766 162.303 79.8196 162.404C77.2607 160.473 72.6561 157.438 67.3942 156.024C67.0941 155.942 66.7889 156.122 66.7088 156.421C66.6287 156.72 66.8061 157.029 67.1045 157.109C74.2868 159.041 80.4087 164.275 81.1263 164.904C85.9639 174.243 90.2851 183.834 94.0764 193.648C88.8145 188.966 79.1758 183.831 69.2948 182.275C68.9937 182.23 68.703 182.437 68.6552 182.744C68.6073 183.051 68.8159 183.338 69.1216 183.386C80.0094 185.1 90.5721 191.233 95.0395 196.163C98.3472 204.967 101.238 213.944 103.688 223.076C103.755 223.327 103.981 223.492 104.228 223.492C104.276 223.492 104.325 223.486 104.374 223.473C104.672 223.392 104.849 223.084 104.769 222.785Z" fill="#76CCCB"/>
<path d="M278.998 230.083C287.256 233.017 296.281 233.74 304.898 232.157C319.13 229.542 331.68 220.828 341.477 210.141C351.275 199.453 358.652 186.802 365.949 174.26C336.753 171.083 305.901 182.34 285.45 203.495C282.381 206.669 279.485 210.123 277.752 214.19C276.019 218.256 277.196 226.046 278.998 230.083Z" fill="#0096AA"/>
<path d="M279.678 227.646C289.694 218.682 300.329 210.534 311.501 203.222C314.45 196.845 321.097 188.52 321.165 188.436C321.343 188.213 321.665 188.18 321.89 188.357C322.112 188.536 322.147 188.862 321.968 189.085C321.907 189.161 316.348 196.124 313.202 202.112C318.314 198.822 323.54 195.709 328.87 192.776C330.327 188.351 334.567 184.028 334.749 183.844C334.949 183.641 335.276 183.64 335.479 183.841C335.68 184.043 335.681 184.37 335.481 184.573C335.442 184.613 331.924 188.198 330.262 192.02C337.34 188.181 344.595 184.645 352.027 181.448C352.287 181.336 352.591 181.457 352.703 181.72C352.815 181.982 352.694 182.287 352.432 182.399C344.604 185.767 336.969 189.508 329.535 193.592C329.535 193.592 329.534 193.593 329.533 193.593C329.441 193.644 329.347 193.693 329.255 193.745C332.198 193.552 337.272 193.545 342.038 195.119C342.311 195.208 342.456 195.502 342.367 195.773C342.278 196.044 341.986 196.192 341.716 196.103C335.209 193.954 327.86 194.887 326.991 195.009C318.569 199.756 310.418 204.961 302.564 210.604C308.972 209.661 318.982 210.585 327.379 214.39C327.635 214.508 327.754 214.815 327.637 215.075C327.52 215.335 327.215 215.452 326.955 215.334C317.701 211.141 306.478 210.518 300.557 212.055C293.583 217.166 286.843 222.62 280.365 228.418C280.187 228.578 279.93 228.591 279.739 228.465C279.702 228.441 279.667 228.412 279.636 228.377C279.447 228.164 279.466 227.836 279.678 227.646Z" fill="#76CCCB"/>
<g opacity="0.399994">
<path d="M314.973 224.012C306.436 229.079 296.362 231.059 286.447 231.237C285.19 231.259 283.935 231.254 282.68 231.225C281.44 230.89 280.21 230.513 278.998 230.083C277.196 226.046 276.019 218.256 277.752 214.19C279.485 210.123 282.381 206.669 285.45 203.496C300.959 187.452 322.45 177.109 344.664 174.429C342.611 182.903 340.139 191.278 336.383 199.123C331.583 209.148 324.511 218.352 314.973 224.012Z" fill="#47284F"/>
</g>
<path d="M289.292 231.346C298.9 229.059 307.888 224.205 315.084 217.419C326.971 206.21 333.552 190.257 336.324 174.122C339.096 157.989 338.379 141.481 337.654 125.124C308.068 140.029 285.702 169.621 279.214 202.207C278.24 207.096 277.6 212.143 278.435 217.059C279.269 221.974 285.128 228.629 289.292 231.346Z" fill="#41AABE"/>
<path d="M290.947 222.785C294.734 208.665 299.568 194.917 305.385 181.608C304.286 174.057 305.393 162.528 305.405 162.411C305.434 162.102 305.707 161.88 306.016 161.907C306.324 161.937 306.549 162.212 306.519 162.521C306.508 162.627 305.583 172.27 306.272 179.584C308.967 173.545 311.869 167.6 314.973 161.755C313.676 156.865 314.967 150.409 315.023 150.133C315.085 149.829 315.382 149.633 315.684 149.695C315.986 149.757 316.181 150.055 316.119 150.359C316.107 150.418 315.036 155.775 315.79 160.238C319.945 152.526 324.44 144.985 329.296 137.645C329.466 137.388 329.814 137.317 330.072 137.488C330.329 137.66 330.4 138.009 330.229 138.268C325.113 145.999 320.394 153.953 316.061 162.099C316.061 162.099 316.06 162.1 316.06 162.101C316.006 162.202 315.95 162.303 315.896 162.404C318.455 160.473 323.06 157.438 328.322 156.024C328.622 155.942 328.927 156.122 329.007 156.421C329.087 156.72 328.91 157.029 328.611 157.109C321.429 159.041 315.307 164.275 314.59 164.904C309.752 174.243 305.431 183.834 301.64 193.648C306.901 188.966 316.54 183.831 326.421 182.275C326.722 182.23 327.012 182.437 327.06 182.744C327.108 183.051 326.9 183.338 326.594 183.386C315.706 185.1 305.144 191.233 300.676 196.163C297.369 204.967 294.478 213.944 292.028 223.076C291.96 223.327 291.735 223.492 291.488 223.492C291.439 223.492 291.391 223.486 291.342 223.473C291.043 223.392 290.867 223.084 290.947 222.785Z" fill="#76CCCB"/>
<path d="M327.151 43.065C327.151 40.5052 325.084 38.4302 322.534 38.4302H180.925C178.375 38.4302 176.307 40.5052 176.307 43.065V55.0841H327.151V43.065Z" fill="#BC4063"/>
<path d="M176.308 55.0841V129.279C176.308 131.838 178.375 133.914 180.925 133.914H322.534C325.084 133.914 327.151 131.838 327.151 129.279V55.0841H176.308Z" fill="#E5E5E1"/>
<path d="M336.587 43.065C336.587 40.5052 334.52 38.4302 331.97 38.4302H190.361C187.811 38.4302 185.743 40.5052 185.743 43.065V55.0841H336.587V43.065Z" fill="#E86164"/>
<path d="M185.743 55.0841V129.279C185.743 131.838 187.811 133.914 190.361 133.914H331.97C334.52 133.914 336.587 131.838 336.587 129.279V55.0841H185.743Z" fill="white"/>
<path d="M300.826 111.992H288.615C286.829 111.992 285.383 113.445 285.383 115.237V120.368C285.383 122.16 286.829 123.613 288.615 123.613H300.826C302.611 123.613 304.058 122.16 304.058 120.368V115.237C304.058 113.445 302.611 111.992 300.826 111.992Z" fill="#C2F4F5"/>
<path d="M278.457 65.3849H266.245C264.46 65.3849 263.013 66.8376 263.013 68.6296V73.7609C263.013 75.5529 264.46 77.0057 266.245 77.0057H278.457C280.242 77.0057 281.689 75.5529 281.689 73.7609V68.6296C281.689 66.8376 280.242 65.3849 278.457 65.3849Z" fill="#41AABE"/>
<path d="M300.826 96.4564H288.615C286.829 96.4564 285.383 97.9091 285.383 99.7011V104.832C285.383 106.624 286.829 108.077 288.615 108.077H300.826C302.611 108.077 304.058 106.624 304.058 104.832V99.7011C304.058 97.9091 302.611 96.4564 300.826 96.4564Z" fill="#E86164"/>
<path d="M278.457 80.9208H266.245C264.46 80.9208 263.013 82.3735 263.013 84.1655V89.2968C263.013 91.0888 264.46 92.5415 266.245 92.5415H278.457C280.242 92.5415 281.689 91.0888 281.689 89.2968V84.1655C281.689 82.3735 280.242 80.9208 278.457 80.9208Z" fill="#C2F4F5"/>
<path d="M256.086 65.3849H243.875C242.089 65.3849 240.642 66.8376 240.642 68.6296V73.7609C240.642 75.5529 242.089 77.0057 243.875 77.0057H256.086C257.872 77.0057 259.319 75.5529 259.319 73.7609V68.6296C259.319 66.8376 257.872 65.3849 256.086 65.3849Z" fill="#41AABE"/>
<path d="M278.457 96.4564H266.245C264.46 96.4564 263.013 97.9091 263.013 99.7011V104.832C263.013 106.624 264.46 108.077 266.245 108.077H278.457C280.242 108.077 281.689 106.624 281.689 104.832V99.7011C281.689 97.9091 280.242 96.4564 278.457 96.4564Z" fill="#C2F4F5"/>
<path d="M323.197 80.9208H310.985C309.2 80.9208 307.752 82.3735 307.752 84.1655V89.2968C307.752 91.0888 309.2 92.5415 310.985 92.5415H323.197C324.982 92.5415 326.429 91.0888 326.429 89.2968V84.1655C326.429 82.3735 324.982 80.9208 323.197 80.9208Z" fill="#C2F4F5"/>
<path d="M323.197 96.4564H310.985C309.2 96.4564 307.752 97.9091 307.752 99.7011V104.832C307.752 106.624 309.2 108.077 310.985 108.077H323.197C324.982 108.077 326.429 106.624 326.429 104.832V99.7011C326.429 97.9091 324.982 96.4564 323.197 96.4564Z" fill="#C2F4F5"/>
<path d="M323.197 65.3849H310.985C309.2 65.3849 307.752 66.8376 307.752 68.6296V73.7609C307.752 75.5529 309.2 77.0057 310.985 77.0057H323.197C324.982 77.0057 326.429 75.5529 326.429 73.7609V68.6296C326.429 66.8376 324.982 65.3849 323.197 65.3849Z" fill="#41AABE"/>
<path d="M300.826 65.3849H288.615C286.829 65.3849 285.383 66.8376 285.383 68.6296V73.7609C285.383 75.5529 286.829 77.0057 288.615 77.0057H300.826C302.611 77.0057 304.058 75.5529 304.058 73.7609V68.6296C304.058 66.8376 302.611 65.3849 300.826 65.3849Z" fill="#41AABE"/>
<path d="M323.197 111.992H310.985C309.2 111.992 307.752 113.445 307.752 115.237V120.368C307.752 122.16 309.2 123.613 310.985 123.613H323.197C324.982 123.613 326.429 122.16 326.429 120.368V115.237C326.429 113.445 324.982 111.992 323.197 111.992Z" fill="#C2F4F5"/>
<path d="M300.826 80.9208H288.615C286.829 80.9208 285.383 82.3735 285.383 84.1655V89.2968C285.383 91.0888 286.829 92.5415 288.615 92.5415H300.826C302.611 92.5415 304.058 91.0888 304.058 89.2968V84.1655C304.058 82.3735 302.611 80.9208 300.826 80.9208Z" fill="#C2F4F5"/>
<path d="M278.457 111.992H266.245C264.46 111.992 263.013 113.445 263.013 115.237V120.368C263.013 122.16 264.46 123.613 266.245 123.613H278.457C280.242 123.613 281.689 122.16 281.689 120.368V115.237C281.689 113.445 280.242 111.992 278.457 111.992Z" fill="#C2F4F5"/>
<path d="M233.716 111.992H221.505C219.719 111.992 218.272 113.445 218.272 115.237V120.368C218.272 122.16 219.719 123.613 221.505 123.613H233.716C235.501 123.613 236.948 122.16 236.948 120.368V115.237C236.948 113.445 235.501 111.992 233.716 111.992Z" fill="#C2F4F5"/>
<path d="M211.346 65.3849H199.134C197.349 65.3849 195.902 66.8376 195.902 68.6296V73.7609C195.902 75.5529 197.349 77.0057 199.134 77.0057H211.346C213.131 77.0057 214.578 75.5529 214.578 73.7609V68.6296C214.578 66.8376 213.131 65.3849 211.346 65.3849Z" fill="#E86164"/>
<path d="M211.346 80.9208H199.134C197.349 80.9208 195.902 82.3735 195.902 84.1655V89.2968C195.902 91.0888 197.349 92.5415 199.134 92.5415H211.346C213.131 92.5415 214.578 91.0888 214.578 89.2968V84.1655C214.578 82.3735 213.131 80.9208 211.346 80.9208Z" fill="#FFA9AE"/>
<path d="M211.346 111.992H199.134C197.349 111.992 195.902 113.445 195.902 115.237V120.368C195.902 122.16 197.349 123.613 199.134 123.613H211.346C213.131 123.613 214.578 122.16 214.578 120.368V115.237C214.578 113.445 213.131 111.992 211.346 111.992Z" fill="#FFA9AE"/>
<path d="M211.346 96.4564H199.134C197.349 96.4564 195.902 97.9091 195.902 99.7011V104.832C195.902 106.624 197.349 108.077 199.134 108.077H211.346C213.131 108.077 214.578 106.624 214.578 104.832V99.7011C214.578 97.9091 213.131 96.4564 211.346 96.4564Z" fill="#FFA9AE"/>
<path d="M233.716 96.4564H221.505C219.719 96.4564 218.272 97.9091 218.272 99.7011V104.832C218.272 106.624 219.719 108.077 221.505 108.077H233.716C235.501 108.077 236.948 106.624 236.948 104.832V99.7011C236.948 97.9091 235.501 96.4564 233.716 96.4564Z" fill="#C2F4F5"/>
<path d="M256.086 111.992H243.875C242.089 111.992 240.642 113.445 240.642 115.237V120.368C240.642 122.16 242.089 123.613 243.875 123.613H256.086C257.872 123.613 259.319 122.16 259.319 120.368V115.237C259.319 113.445 257.872 111.992 256.086 111.992Z" fill="#C2F4F5"/>
<path d="M256.086 96.4564H243.875C242.089 96.4564 240.642 97.9091 240.642 99.7011V104.832C240.642 106.624 242.089 108.077 243.875 108.077H256.086C257.872 108.077 259.319 106.624 259.319 104.832V99.7011C259.319 97.9091 257.872 96.4564 256.086 96.4564Z" fill="#C2F4F5"/>
<path d="M233.716 65.3849H221.505C219.719 65.3849 218.272 66.8376 218.272 68.6296V73.7609C218.272 75.5529 219.719 77.0057 221.505 77.0057H233.716C235.501 77.0057 236.948 75.5529 236.948 73.7609V68.6296C236.948 66.8376 235.501 65.3849 233.716 65.3849Z" fill="#41AABE"/>
<path d="M256.086 80.9208H243.875C242.089 80.9208 240.642 82.3735 240.642 84.1655V89.2968C240.642 91.0888 242.089 92.5415 243.875 92.5415H256.086C257.872 92.5415 259.319 91.0888 259.319 89.2968V84.1655C259.319 82.3735 257.872 80.9208 256.086 80.9208Z" fill="#C2F4F5"/>
<path d="M233.716 80.9208H221.505C219.719 80.9208 218.272 82.3735 218.272 84.1655V89.2968C218.272 91.0888 219.719 92.5415 221.505 92.5415H233.716C235.501 92.5415 236.948 91.0888 236.948 89.2968V84.1655C236.948 82.3735 235.501 80.9208 233.716 80.9208Z" fill="#C2F4F5"/>
<path d="M204.628 50.0595C203.608 50.0595 202.781 49.2296 202.781 48.2054V44.6521C202.781 43.628 203.608 42.7975 204.628 42.7975C205.648 42.7975 206.475 43.628 206.475 44.6521V48.2054C206.475 49.2296 205.648 50.0595 204.628 50.0595Z" fill="#47284F"/>
<path d="M204.983 24.0031C200.714 24.0031 197.24 27.4901 197.24 31.7757V38.4302H200.472V31.7757C200.472 29.279 202.496 27.2479 204.983 27.2479C207.47 27.2479 209.494 29.279 209.494 31.7757V40.3172C209.494 42.8139 207.47 44.845 204.983 44.845H202.781V48.0898H204.983C209.252 48.0898 212.726 44.6028 212.726 40.3172V31.7757C212.726 27.4901 209.252 24.0031 204.983 24.0031Z" fill="#C4D3D8"/>
<path d="M197.24 38.43H200.472V31.7756C199.89 31.7756 199.419 32.249 199.419 32.8331V34.989C199.419 35.5731 198.947 36.0466 198.366 36.0466H197.24V38.43Z" fill="#96A5B2"/>
<path d="M210.266 40.8665V37.7757C210.266 37.3477 209.92 37.0011 209.494 37.0011V40.3173C209.494 42.8135 207.471 44.8452 204.983 44.8452H202.781V46.4289H204.724C207.785 46.4289 210.266 43.9384 210.266 40.8665Z" fill="#96A5B2"/>
<path d="M227.917 50.0595C226.896 50.0595 226.07 49.2296 226.07 48.2054V44.6521C226.07 43.628 226.896 42.7975 227.917 42.7975C228.937 42.7975 229.764 43.628 229.764 44.6521V48.2054C229.764 49.2296 228.937 50.0595 227.917 50.0595Z" fill="#47284F"/>
<path d="M228.271 24.0031C224.002 24.0031 220.528 27.4901 220.528 31.7757V38.4302H223.76V31.7757C223.76 29.279 225.785 27.2479 228.271 27.2479C230.759 27.2479 232.782 29.279 232.782 31.7757V40.3172C232.782 42.8139 230.759 44.845 228.271 44.845H226.07V48.0898H228.271C232.541 48.0898 236.015 44.6028 236.015 40.3172V31.7757C236.015 27.4901 232.541 24.0031 228.271 24.0031Z" fill="#C4D3D8"/>
<path d="M220.528 38.43H223.761V31.7756C223.179 31.7756 222.708 32.249 222.708 32.8331V34.989C222.708 35.5731 222.236 36.0466 221.655 36.0466H220.528V38.43Z" fill="#96A5B2"/>
<path d="M233.554 40.8665V37.7757C233.554 37.3477 233.208 37.0011 232.783 37.0011V40.3173C232.783 42.8135 230.759 44.8452 228.272 44.8452H226.069V46.4289H228.013C231.073 46.4289 233.554 43.9384 233.554 40.8665Z" fill="#96A5B2"/>
<path d="M251.205 50.0595C250.185 50.0595 249.358 49.2296 249.358 48.2054V44.6521C249.358 43.628 250.185 42.7975 251.205 42.7975C252.226 42.7975 253.052 43.628 253.052 44.6521V48.2054C253.052 49.2296 252.226 50.0595 251.205 50.0595Z" fill="#47284F"/>
<path d="M251.56 24.0031C247.291 24.0031 243.817 27.4901 243.817 31.7757V38.4302H247.049V31.7757C247.049 29.279 249.073 27.2479 251.56 27.2479C254.047 27.2479 256.071 29.279 256.071 31.7757V40.3172C256.071 42.8139 254.047 44.845 251.56 44.845H249.359V48.0898H251.56C255.83 48.0898 259.303 44.6028 259.303 40.3172V31.7757C259.303 27.4901 255.83 24.0031 251.56 24.0031Z" fill="#C4D3D8"/>
<path d="M243.817 38.43H247.049V31.7756C246.468 31.7756 245.996 32.249 245.996 32.8331V34.989C245.996 35.5731 245.525 36.0466 244.943 36.0466H243.817V38.43Z" fill="#96A5B2"/>
<path d="M256.843 40.8665V37.7757C256.843 37.3477 256.497 37.0011 256.071 37.0011V40.3173C256.071 42.8135 254.048 44.8452 251.56 44.8452H249.358V46.4289H251.302C254.362 46.4289 256.843 43.9384 256.843 40.8665Z" fill="#96A5B2"/>
<path d="M274.494 50.0595C273.474 50.0595 272.647 49.2296 272.647 48.2054V44.6521C272.647 43.628 273.474 42.7975 274.494 42.7975C275.514 42.7975 276.341 43.628 276.341 44.6521V48.2054C276.341 49.2296 275.514 50.0595 274.494 50.0595Z" fill="#47284F"/>
<path d="M274.849 24.0031C270.579 24.0031 267.106 27.4901 267.106 31.7757V38.4302H270.338V31.7757C270.338 29.279 272.362 27.2479 274.849 27.2479C277.336 27.2479 279.36 29.279 279.36 31.7757V40.3172C279.36 42.8139 277.336 44.845 274.849 44.845H272.647V48.0898H274.849C279.118 48.0898 282.592 44.6028 282.592 40.3172V31.7757C282.592 27.4901 279.118 24.0031 274.849 24.0031Z" fill="#C4D3D8"/>
<path d="M267.106 38.43H270.338V31.7756C269.757 31.7756 269.285 32.249 269.285 32.8331V34.989C269.285 35.5731 268.814 36.0466 268.232 36.0466H267.106V38.43Z" fill="#96A5B2"/>
<path d="M280.131 40.8665V37.7757C280.131 37.3477 279.786 37.0011 279.36 37.0011V40.3173C279.36 42.8135 277.336 44.8452 274.849 44.8452H272.647V46.4289H274.591C277.65 46.4289 280.131 43.9384 280.131 40.8665Z" fill="#96A5B2"/>
<path d="M297.783 50.0595C296.763 50.0595 295.936 49.2296 295.936 48.2054V44.6521C295.936 43.628 296.763 42.7975 297.783 42.7975C298.803 42.7975 299.63 43.628 299.63 44.6521V48.2054C299.63 49.2296 298.803 50.0595 297.783 50.0595Z" fill="#47284F"/>
<path d="M298.138 24.0031C293.868 24.0031 290.395 27.4901 290.395 31.7757V38.4302H293.627V31.7757C293.627 29.279 295.651 27.2479 298.138 27.2479C300.625 27.2479 302.648 29.279 302.648 31.7757V40.3172C302.648 42.8139 300.625 44.845 298.138 44.845H295.936V48.0898H298.138C302.407 48.0898 305.881 44.6028 305.881 40.3172V31.7757C305.881 27.4901 302.407 24.0031 298.138 24.0031Z" fill="#C4D3D8"/>
<path d="M290.395 38.43H293.627V31.7756C293.046 31.7756 292.574 32.249 292.574 32.8331V34.989C292.574 35.5731 292.102 36.0466 291.521 36.0466H290.395V38.43Z" fill="#96A5B2"/>
<path d="M303.42 40.8665V37.7757C303.42 37.3477 303.075 37.0011 302.648 37.0011V40.3173C302.648 42.8135 300.625 44.8452 298.138 44.8452H295.936V46.4289H297.88C300.939 46.4289 303.42 43.9384 303.42 40.8665Z" fill="#96A5B2"/>
<path d="M321.071 50.0595C320.051 50.0595 319.224 49.2296 319.224 48.2054V44.6521C319.224 43.628 320.051 42.7975 321.071 42.7975C322.091 42.7975 322.919 43.628 322.919 44.6521V48.2054C322.919 49.2296 322.091 50.0595 321.071 50.0595Z" fill="#47284F"/>
<path d="M321.427 24.0031C317.157 24.0031 313.683 27.4901 313.683 31.7757V38.4302H316.916V31.7757C316.916 29.279 318.94 27.2479 321.427 27.2479C323.914 27.2479 325.937 29.279 325.937 31.7757V40.3172C325.937 42.8139 323.914 44.845 321.427 44.845H319.224V48.0898H321.427C325.696 48.0898 329.169 44.6028 329.169 40.3172V31.7757C329.169 27.4901 325.696 24.0031 321.427 24.0031Z" fill="#C4D3D8"/>
<path d="M313.683 38.43H316.916V31.7756C316.334 31.7756 315.862 32.249 315.862 32.8331V34.989C315.862 35.5731 315.391 36.0466 314.809 36.0466H313.683V38.43Z" fill="#96A5B2"/>
<path d="M326.709 40.8665V37.7757C326.709 37.3477 326.363 37.0011 325.937 37.0011V40.3173C325.937 42.8135 323.914 44.8452 321.427 44.8452H319.224V46.4289H321.168C324.228 46.4289 326.709 43.9384 326.709 40.8665Z" fill="#96A5B2"/>
<path d="M252.795 85.6817C254.92 84.2363 257.045 82.7909 259.171 81.3454C259.905 80.8464 259.212 79.6411 258.471 80.1454L251.655 84.7802C248.645 82.4583 245.508 80.2999 242.25 78.3147C241.486 77.8496 240.789 79.0513 241.551 79.5153C244.628 81.3903 247.591 83.4251 250.444 85.6044C246.31 88.4154 242.176 91.2269 238.042 94.0384C237.309 94.5374 238.001 95.7427 238.742 95.239C243.026 92.3252 247.31 89.4119 251.594 86.4981C254.366 88.679 257.03 90.9977 259.573 93.4637C260.215 94.0859 261.195 93.1035 260.553 92.4802C258.077 90.0795 255.485 87.8172 252.795 85.6817Z" fill="#3E4E6C"/>
<path d="M328.589 106.756C325.009 104.953 321.429 103.15 317.849 101.347C320.593 99.846 323.336 98.3447 326.081 96.8434C326.863 96.4149 326.165 95.2137 325.381 95.6428C322.369 97.2913 319.355 98.9398 316.342 100.588C312.837 98.8228 309.331 97.0574 305.826 95.292C305.031 94.8917 304.329 96.0907 305.126 96.4926C308.372 98.127 311.618 99.7619 314.864 101.397L305.352 106.601C304.57 107.029 305.268 108.23 306.051 107.802L316.371 102.155L327.89 107.956C328.685 108.356 329.387 107.158 328.589 106.756Z" fill="#3E4E6C"/>
<path d="M282.593 123.343C280.192 121.436 277.713 119.649 275.159 117.983C277.602 116.42 280.045 114.857 282.488 113.293C283.238 112.814 282.543 111.609 281.789 112.093C279.147 113.782 276.506 115.473 273.865 117.163C270.15 114.821 266.285 112.725 262.263 110.906C261.457 110.541 260.752 111.739 261.564 112.107C265.368 113.828 269.043 115.793 272.581 117.985C269.253 120.114 265.925 122.243 262.597 124.372C261.847 124.852 262.541 126.056 263.296 125.573C266.823 123.316 270.35 121.059 273.878 118.802C276.541 120.512 279.125 122.35 281.613 124.326C282.305 124.877 283.292 123.898 282.593 123.343Z" fill="#3E4E6C"/>
<path d="M219.786 231.647H212.186C210.9 231.647 209.687 231.05 208.899 230.029L202.259 221.414C200.766 219.477 200.362 216.88 201.29 214.615C205.482 204.38 217.066 204.293 218.305 208.163L223.763 226.267C224.571 228.946 222.574 231.647 219.786 231.647Z" fill="#3E4E6C"/>
<path d="M220.844 228.733C219.557 228.733 218.344 228.135 217.557 227.114L212.789 220.929C215.631 219.596 218.299 217.874 220.622 215.847L218.937 210.26L209.453 214.338C209.438 213.447 209.599 212.55 209.947 211.7C210.993 209.146 212.5 207.224 214.192 205.837C210.083 205.511 204.066 207.836 201.29 214.615C200.361 216.88 200.766 219.477 202.259 221.414L208.899 230.029C209.687 231.05 210.9 231.647 212.186 231.647H219.786C221.69 231.647 223.224 230.386 223.749 228.733H220.844Z" fill="#47284F"/>
<path d="M166.579 88.6152H186.663V89.0479C217.169 92.8413 240.881 121.406 240.881 156.087C240.881 190.768 217.169 219.333 186.663 223.126V223.558H166.579C132.814 223.558 105.442 193.35 105.442 156.087C105.442 118.823 132.814 88.6152 166.579 88.6152Z" fill="#008196"/>
<path d="M125.525 156.087C125.525 193.35 152.898 223.559 186.663 223.559C220.428 223.559 247.8 193.35 247.8 156.087C247.8 118.823 220.428 88.6153 186.663 88.6153C152.898 88.6153 125.525 118.823 125.525 156.087Z" fill="#41AABE"/>
<path d="M235.371 156.087C235.371 124.155 212.547 97.9973 183.958 96.4365C184.854 96.3874 185.755 96.3618 186.662 96.3618C216.504 96.3618 240.78 123.155 240.78 156.087C240.78 189.019 216.504 215.812 186.662 215.812C185.755 215.812 184.854 215.786 183.958 215.737C212.547 214.176 235.371 188.018 235.371 156.087Z" fill="#435277"/>
<path d="M132.545 156.087C132.545 124.155 155.369 97.9973 183.958 96.4365C212.547 97.9973 235.371 124.155 235.371 156.087C235.371 188.018 212.547 214.176 183.958 215.737C155.369 214.176 132.545 188.018 132.545 156.087Z" fill="white"/>
<path d="M182.08 112.51H185.835V102.604H182.08V112.51Z" fill="#3E4E6C"/>
<path d="M200.635 117.231L203.887 119.466L208.048 110.887L204.796 108.652L200.635 117.231Z" fill="#3E4E6C"/>
<path d="M214.722 132.364L216.599 136.234L223.806 131.281L221.929 127.41L214.722 132.364Z" fill="#3E4E6C"/>
<path d="M220.565 158.321H228.887V153.852H220.565V158.321Z" fill="#3E4E6C"/>
<path d="M216.599 175.94L214.722 179.81L221.929 184.763L223.806 180.893L216.599 175.94Z" fill="#3E4E6C"/>
<path d="M203.887 192.708L200.635 194.942L204.796 203.522L208.048 201.287L203.887 192.708Z" fill="#3E4E6C"/>
<path d="M185.835 199.663H182.08V209.57H185.835V199.663Z" fill="#3E4E6C"/>
<path d="M167.28 194.942L164.028 192.708L159.867 201.287L163.119 203.522L167.28 194.942Z" fill="#3E4E6C"/>
<path d="M153.193 179.81L151.316 175.94L144.109 180.893L145.987 184.763L153.193 179.81Z" fill="#3E4E6C"/>
<path d="M147.351 153.852H139.028V158.321H147.351V153.852Z" fill="#3E4E6C"/>
<path d="M151.316 136.234L153.193 132.364L145.986 127.41L144.109 131.281L151.316 136.234Z" fill="#3E4E6C"/>
<path d="M164.028 119.466L167.28 117.231L163.119 108.652L159.867 110.887L164.028 119.466Z" fill="#3E4E6C"/>
<path d="M185.139 158.35L183.958 156.087L182.777 153.823L163.493 168.234L162.761 171.927L165.856 172.761L185.139 158.35Z" fill="#96A5B2"/>
<path d="M183.958 149.144C187.174 149.144 189.79 152.259 189.79 156.087C189.79 159.915 187.174 163.03 183.958 163.03C180.741 163.03 178.125 159.915 178.125 156.087C178.125 152.259 180.741 149.144 183.958 149.144Z" fill="#3E4E6C"/>
<path d="M182.739 153.859L183.958 156.087L185.176 158.315L214.968 141.669L215.818 138.285L212.53 137.213L182.739 153.859Z" fill="#3E4E6C"/>
<path d="M184.295 152.672H185.743V153.143C186.592 153.737 187.165 154.833 187.165 156.087C187.165 157.341 186.592 158.436 185.743 159.031V159.502H184.295C182.713 159.502 181.426 157.97 181.426 156.087C181.426 154.204 182.713 152.672 184.295 152.672Z" fill="#FF9268"/>
<path d="M185.743 152.672C187.325 152.672 188.612 154.204 188.612 156.087C188.612 157.97 187.325 159.502 185.743 159.502C184.161 159.502 182.874 157.97 182.874 156.087C182.874 154.204 184.161 152.672 185.743 152.672Z" fill="#FFC067"/>
<path d="M128.358 231.647H135.958C137.244 231.647 138.458 231.05 139.245 230.029L145.886 221.414C147.378 219.477 147.782 216.88 146.855 214.615C142.663 204.38 131.078 204.293 129.839 208.163L124.381 226.267C123.573 228.946 125.571 231.647 128.358 231.647Z" fill="#3E4E6C"/>
<path d="M146.855 214.615C145.857 212.177 144.436 210.32 142.838 208.95C143.363 209.753 143.835 210.641 144.238 211.626C145.166 213.89 144.762 216.488 143.269 218.424L136.628 227.04C135.841 228.061 134.628 228.658 133.342 228.658H125.742C125.234 228.658 124.754 228.567 124.311 228.404C124.726 230.215 126.329 231.648 128.359 231.648H135.958C137.244 231.648 138.458 231.05 139.245 230.029L145.886 221.413C147.378 219.477 147.783 216.88 146.855 214.615Z" fill="#47284F"/>
<path d="M178.929 88.6134H170.698V84.1602H178.929V88.6134Z" fill="#FFC067"/>
<path d="M178.929 86.3871H170.698V84.1602H178.929V86.3871Z" fill="#47284F"/>
<path d="M201.863 84.1603H147.765L148.465 81.614C150.824 73.0391 158.595 67.0998 167.456 67.0998H182.172C191.033 67.0998 198.804 73.0391 201.162 81.614L201.863 84.1603Z" fill="#FFC067"/>
<path d="M194.267 81.6138C192.526 73.0389 186.789 67.1001 180.246 67.1001H179.053C184.159 67.1001 188.635 73.0389 189.994 81.6138L190.398 84.1601H194.784L194.267 81.6138Z" fill="#FFA358"/>
<path d="M178.195 67.1H177.672C181.113 67.1 184.131 73.0388 185.046 81.6137L185.319 84.1605H187.242L186.92 81.6137C185.837 73.0388 182.266 67.1 178.195 67.1Z" fill="#FFA358"/>
<path d="M171.873 67.1H169.277C165.774 67.1 162.499 68.7401 159.92 71.5396C158.836 72.7172 159.698 74.6324 161.296 74.6324H163.123C164.596 74.6324 165.93 73.7508 166.512 72.392C167.934 69.0757 169.83 67.1 171.873 67.1Z" fill="#FFEDCB"/>
<path d="M156.023 78.0186C155.95 78.2154 155.878 78.4138 155.809 78.6148C155.394 79.8216 156.283 81.0828 157.555 81.0828H162.741C163.653 81.0828 164.421 80.4125 164.566 79.5095C164.593 79.3409 164.62 79.1733 164.649 79.0073C164.845 77.8714 163.98 76.8337 162.832 76.8337H157.748C156.985 76.8337 156.293 77.3014 156.023 78.0186Z" fill="#FFEDCB"/>
<path d="M76.124 70.092L74.9061 70.4402C71.4892 71.4163 68.9391 74.2811 68.3557 77.7988L64.1531 103.125C63.5821 106.564 65.5451 109.92 68.8138 111.095C71.1736 111.943 73.8032 111.495 75.7517 109.912L80.3297 106.193L76.124 70.092Z" fill="white"/>
<g opacity="0.300003">
<path d="M72.5973 99.9885C71.135 99.5239 69.4638 99.7813 68.2074 100.664C66.9511 101.547 66.1389 103.036 66.0739 104.574C65.9933 103.742 65.9085 102.87 65.9844 102.038C66.0604 101.206 66.298 100.371 66.791 99.6978C67.4519 98.7968 68.5668 98.2503 69.6811 98.2816C70.795 98.3134 71.9884 99.0515 72.5973 99.9885Z" fill="#435277"/>
</g>
<g opacity="0.300003">
<path d="M76.124 73.6775V90.8048L74.2583 81.4621C73.7102 78.7179 74.3924 75.8709 76.124 73.6775Z" fill="#435277"/>
</g>
<path d="M86.6403 67.0872L76.1238 70.0919V94.1007L74.4203 109.968C74.1431 112.551 74.9876 115.128 76.738 117.041L77.1207 117.46H111.614C114.137 115.908 115.738 113.209 115.895 110.243L117.074 87.9672L110.834 68.1312L99.1338 66.9567L86.6403 67.0872Z" fill="white"/>
<g opacity="0.300003">
<path d="M107.531 74.6995C104.768 79.3104 105.614 84.2694 105.614 84.2694L106.154 88.946L97.7508 91.5727C98.874 94.2745 100.868 95.0048 100.868 95.0048L100.608 97.1763L112.33 116.966C114.436 115.371 115.753 112.917 115.895 110.243L117.074 87.9672L112.742 74.1963L107.531 74.6995Z" fill="#435277"/>
</g>
<path d="M73.7538 99.5504L74.1578 99.3207" stroke="#1C1C1B" stroke-width="1.33333" stroke-miterlimit="10"/>
<g opacity="0.300003">
<path d="M86.6403 67.0872L84.3788 77.2333L89.9038 72.3072L96.1002 78.506L99.1338 66.9567L86.6403 67.0872Z" fill="#435277"/>
</g>
<path d="M87.9108 64.5206L90.0777 70.5669L96.1003 64.2162L94.584 57.4678L87.9108 64.5206Z" fill="#FFC09C"/>
<path d="M88.9074 67.3024C91.8865 66.1738 94.2827 60.804 94.7418 58.171L94.5843 57.4679L87.9106 64.5206L88.9074 67.3024Z" fill="#FF8983"/>
<path d="M90.0775 70.5671L95.2775 74.6998L99.1343 66.9565L96.1006 64.216L90.0775 70.5671Z" fill="white"/>
<path d="M88.4121 65.9194L90.0777 70.5672L85.8937 74.2646L86.6405 67.0871L88.4121 65.9194Z" fill="white"/>
<path d="M90.0775 70.5672L87.6288 72.7314L88.2143 76.0278H91.3265L93.0487 72.9282L90.0775 70.5672Z" fill="#E86164"/>
<path d="M88.9899 71.5283L90.0773 70.5673L93.0485 72.9283L91.3263 76.028H88.2141L88.0883 75.3196H89.9119C90.3128 75.3196 90.6784 75.0878 90.851 74.7245L91.3247 73.7254C91.5073 73.3417 91.4391 72.885 91.1526 72.5713L90.4397 71.7898C90.2125 71.5414 89.8791 71.4182 89.5453 71.4594L88.9899 71.5283Z" fill="#BC4063"/>
<path d="M88.214 76.0277L84.379 110.614L88.214 115.111L94.3672 110.614L91.3262 76.0277H88.214Z" fill="#E86164"/>
<path d="M106.154 88.946L107.909 88.0977L114.669 94.0355L107.974 82.5515C107.974 82.5515 105.114 74.2647 110.834 68.1312C115.408 68.59 119.274 71.7341 120.67 76.1314L128.82 101.805C129.942 105.34 128.551 109.191 125.434 111.183C121.933 113.419 117.317 112.655 114.716 109.409L102.937 94.7041C102.709 93.7583 103.164 93.122 103.164 93.122L106.154 88.946Z" fill="white"/>
<g opacity="0.300003">
<path d="M122.676 101.068L114.669 94.0355L113.937 92.7791C120.909 92.9263 121.973 98.0534 122.676 101.068Z" fill="#435277"/>
</g>
<path d="M94.5851 76.1786C94.2861 75.9959 93.9658 75.9761 93.8696 76.1353L85.1793 90.4496L86.2614 91.1115L94.9517 76.7972C95.0479 76.638 94.8836 76.3613 94.5851 76.1786Z" fill="#3E4E6C"/>
<path d="M106.154 88.946C106.198 89.0775 104.771 86.6111 103.832 84.9824C103.315 84.0846 102.503 83.3971 101.535 83.0348L95.4269 80.7527C94.611 80.4478 93.699 80.5506 92.971 81.0298L89.8057 83.1147C88.643 83.88 87.8422 85.0894 87.589 86.4618L87.1724 88.7199C87.032 89.481 87.5562 90.205 88.3211 90.3063C88.943 90.3882 89.5395 90.0281 89.7584 89.4377L90.619 87.119L92.374 85.3572L91.6569 86.7316C91.23 87.5491 91.3668 88.5482 91.9965 89.2205C92.387 89.6371 92.9257 89.8814 93.4951 89.9012L96.1003 89.99C97.4534 91.7355 99.4756 92.8296 101.672 93.0035L103.164 93.122L104.204 94.0355C108.104 91.3602 106.154 88.946 106.154 88.946Z" fill="#FFC09C"/>
<path d="M102.167 89.99H96.1006C99.8706 91.8389 100.651 91.4907 102.167 89.99Z" fill="#FF8983"/>
<g opacity="0.199997">
<path d="M105.614 98.0471C107.03 97.9234 108.941 97.3492 110.025 96.4268C111.108 95.5044 111.898 94.2391 112.251 92.8579L112.265 92.9101C112.97 95.4856 111.415 98.2298 108.8 98.7262C108.567 98.7706 108.344 98.7946 108.136 98.7988L113.365 107.722L105.614 98.0471Z" fill="#435277"/>
</g>
<path d="M101.592 111.709H76.2421L62.4954 78.301H87.8454L101.592 111.709Z" fill="#6B70C7"/>
<path d="M69.9081 100.629L72.5555 96.9667C72.8222 96.5971 73.1654 96.2896 73.5611 96.0652L74.4997 95.5333C75.0234 95.2362 75.6869 95.3981 76.0166 95.9034C76.3078 96.3502 76.2527 96.9401 75.884 97.3248L73.3074 100.017L76.7233 97.9193C77.3015 97.5638 78.0571 97.7471 78.4096 98.3281C78.6769 98.7681 78.6431 99.3277 78.3249 99.7317L75.0764 103.858L77.8179 101.544C78.3555 101.09 79.1714 101.24 79.5141 101.856C79.7424 102.267 79.6909 102.777 79.3857 103.134L76.2111 106.846L78.8823 104.606C79.4044 104.168 80.1953 104.323 80.5156 104.925C80.7387 105.343 80.6633 105.857 80.33 106.193L76.8564 109.69C76.2085 110.343 75.3073 110.678 74.3926 110.604H74.3905C73.2429 110.514 72.2377 109.797 71.7734 108.74L69.5774 103.743C69.1281 102.72 69.254 101.534 69.9081 100.629Z" fill="#FFC09C"/>
<path d="M69.9081 100.629L71.0391 99.0641L70.2623 97.176L69.9081 100.629Z" fill="#FF8983"/>
<path d="M75.2234 51.0898L76.9337 57.9817C77.4485 60.0546 78.4438 61.9761 79.8395 63.5891C81.6584 65.6917 84.4846 66.6151 87.1876 65.9897C88.7476 65.629 90.1521 64.7766 91.1952 63.5567L93.8394 60.4654C95.2044 58.8691 95.7988 56.7493 95.4634 54.6728L94.2523 47.1701C93.3615 41.651 88.0435 38.0105 82.6007 39.1929C77.2374 40.3575 73.8969 45.745 75.2234 51.0898Z" fill="#FFC09C"/>
<path d="M95.2249 56.2262C94.4958 55.5815 93.981 54.7281 93.7507 53.7806L92.8973 50.2712C91.8365 50.4638 90.6962 49.8155 89.9567 49.0278C89.2168 48.2401 88.82 47.1768 88.6687 46.1046C88.5179 45.033 88.5949 43.943 88.6973 42.8656C87.9839 44.7333 86.5149 46.4632 84.9086 47.6471C84.1218 48.2265 83.1926 48.7099 82.2197 48.6389C81.2467 48.5685 80.2811 47.7599 80.3383 46.7827C79.1875 48.4134 77.783 50.2916 76.028 51.2343C74.2725 52.177 71.8087 52.1154 70.5701 50.5505C69.905 49.7111 69.6955 48.5763 69.7963 47.5083C69.8972 46.4403 70.2805 45.4208 70.6991 44.4337C72.0807 41.1754 73.9631 38.01 76.808 35.9167C79.654 33.8235 83.6164 32.9956 86.7827 34.5564C86.3687 33.7176 86.1384 33.0395 85.7245 32.2006C86.2902 32.1844 86.8913 32.614 87.2621 33.0431C87.6329 33.4727 87.7998 34.072 87.7041 34.6321C87.8695 34.1064 88.2579 33.6894 88.7285 33.4059C89.1996 33.123 89.7747 33.0191 90.3145 33.1199C89.8392 33.6721 89.2755 34.2719 88.8008 34.8242C90.1221 33.8815 92.3118 33.8006 93.8167 34.4045C95.2051 34.9625 96.2779 36.149 96.9455 37.4927C97.6127 38.8358 97.9117 40.3329 98.0942 41.8232C98.5352 45.4171 98.3371 49.0899 97.5123 52.6155C97.2092 53.9101 96.4983 55.8577 95.2249 56.2262Z" fill="#A13E4B"/>
<path d="M96.177 51.5109C96.9279 50.7634 98.1972 50.4721 99.0682 51.0735C99.5944 51.4363 99.8976 52.0553 100.031 52.6828C100.39 54.3668 99.5601 56.2376 98.0729 57.0968C97.5649 57.3907 96.9518 57.5734 96.3907 57.4011C95.8463 57.2341 95.4412 56.7549 95.2249 56.2261C94.6206 54.7515 95.0455 52.6374 96.177 51.5109Z" fill="#FFC09C"/>
<path d="M98.6552 52.1371C98.3666 51.9863 98.0145 51.9868 97.7072 52.0938C97.3999 52.2008 97.1342 52.4065 96.9121 52.645C96.2101 53.3998 95.9319 54.5284 96.2023 55.5249C96.3115 55.9284 96.5596 56.3528 96.9683 56.4311C97.2454 56.4843 97.5356 56.357 97.7301 56.1523C97.9246 55.9477 98.0348 55.6752 98.0998 55.4001C98.196 54.9925 98.1934 54.5347 97.9599 54.1875C97.7264 53.8404 97.2085 53.6713 96.871 53.9182C96.9043 53.4975 97.0983 53.0778 97.3718 52.7583C97.6458 52.4383 98.2459 52.2332 98.6552 52.1371Z" fill="#FF8983"/>
<path d="M88.5837 49.8518L83.184 51.4131C83.1393 50.7454 83.6021 50.0569 84.1512 49.6774C84.7003 49.2979 85.3857 49.1601 86.0523 49.1633C86.8755 49.168 87.8583 49.4608 88.5837 49.8518Z" fill="#A13E4B"/>
<path d="M86.1714 54.4316C85.8277 54.5308 85.4683 54.3319 85.3695 53.9863L85.1725 53.3004C85.0737 52.9554 85.2723 52.5947 85.616 52.4955C85.9597 52.3963 86.3191 52.5952 86.4184 52.9407L86.6149 53.6267C86.7137 53.9717 86.5156 54.3324 86.1714 54.4316Z" fill="#47284F"/>
<path d="M75.8579 53.5313L79.1958 52.5661C78.9321 51.9617 78.408 51.5587 77.9738 51.4637C77.5396 51.3681 77.1418 51.5435 76.8137 51.8348C76.4091 52.1939 76.0488 52.8757 75.8579 53.5313Z" fill="#A13E4B"/>
<path d="M78.8706 56.5425C79.1082 56.4736 79.2455 56.2246 79.1769 55.986L78.8695 54.9138C78.8009 54.6753 78.5529 54.5375 78.3152 54.6064C78.0776 54.6753 77.9398 54.9243 78.0084 55.1628L78.3163 56.235C78.3844 56.4736 78.6329 56.6114 78.8706 56.5425Z" fill="#47284F"/>
<path d="M83.6592 58.2594L80.6848 59.1196C81.0009 59.4845 81.4934 59.7225 81.966 59.6275C82.3009 59.5602 82.6004 59.3686 82.8485 59.1332C83.0965 58.8983 83.459 58.5366 83.6592 58.2594Z" fill="#FF8983"/>
<path d="M89.7476 58.4653C87.4887 59.549 85.2298 60.6321 82.9709 61.7158C83.5559 62.2566 84.4873 62.5755 85.2813 62.6157C86.0753 62.6559 86.8803 62.4085 87.5163 61.9298C88.5713 61.1348 89.2936 59.7082 89.7476 58.4653Z" fill="white"/>
<path d="M77.1208 120.984L74.3685 130.554L75.7449 137.862L83.014 220.512H99.8277L94.3677 136.644H95.7212L107.064 220.512H124.354L116.039 137.949V130.38L111.614 120.984H77.1208Z" fill="#3E4E6C"/>
<path d="M93.7253 135.479C93.7035 135.479 93.6816 135.476 93.6603 135.47C93.574 135.448 93.5053 135.383 93.4778 135.298C92.1851 131.282 91.4274 127.108 91.2251 122.893C91.2184 122.749 91.3291 122.626 91.4727 122.619C91.6141 122.61 91.7373 122.723 91.7446 122.868C91.9381 126.901 92.6453 130.894 93.8485 134.746L94.797 133.858C95.7408 132.975 96.135 131.648 95.8266 130.394C95.0071 127.071 94.7814 122.935 94.7793 122.894C94.7721 122.75 94.8818 122.627 95.0253 122.619C95.1605 122.606 95.291 122.723 95.2988 122.866C95.3009 122.907 95.524 126.995 96.331 130.269C96.6851 131.706 96.2333 133.228 95.1511 134.241L93.9026 135.409C93.8537 135.454 93.7903 135.479 93.7253 135.479Z" fill="#797D9C"/>
<path d="M92.4756 149.358L92.085 143.976C92.006 145.779 92.1381 147.584 92.4756 149.358Z" fill="#47284F"/>
<path d="M91.8353 136.948C91.9757 136.936 92.1031 137.046 92.1135 137.19L92.2086 138.503C92.4234 138.473 92.6376 138.433 92.8508 138.384L92.3958 141.023C92.3948 141.029 92.3937 141.035 92.3927 141.041L93.2107 152.303L96.0239 162.09L94.3677 136.643L83.9677 135.948L87.7683 137.802C88.9929 138.4 90.347 138.653 91.6912 138.554L91.595 137.228C91.5846 137.084 91.6923 136.959 91.8353 136.948Z" fill="#47284F"/>
<path d="M93.2106 152.303L92.9647 151.447C92.7665 150.757 92.609 150.059 92.4753 149.358L97.4918 218.442C97.5017 218.58 97.6155 218.685 97.7507 218.685C97.757 218.685 97.7632 218.685 97.77 218.684C97.913 218.673 98.0206 218.548 98.0102 218.405L93.2106 152.303Z" fill="#797D9C"/>
<path d="M92.2087 138.503C92.0366 138.528 91.864 138.541 91.6908 138.554L92.085 143.976C92.1276 142.994 92.2259 142.014 92.3928 141.041L92.2087 138.503Z" fill="#797D9C"/>
<path d="M92.1133 137.19C92.1029 137.046 91.9755 136.936 91.8351 136.948C91.6921 136.959 91.5845 137.084 91.5949 137.228L91.6911 138.554C91.8642 138.541 92.0369 138.528 92.209 138.503L92.1133 137.19Z" fill="#3E4E6C"/>
<path d="M93.2106 152.303L92.3927 141.041C92.2258 142.014 92.1275 142.994 92.0848 143.976L92.4754 149.358C92.609 150.059 92.7666 150.757 92.9647 151.447L93.2106 152.303Z" fill="#3E4E6C"/>
<path d="M82.235 230.44H68.9027C68.7826 230.825 68.714 231.23 68.714 231.648H81.0811C83.0244 231.648 84.9286 231.101 86.5781 230.07L88.6477 228.776L85.7653 229.821C84.6327 230.231 83.4383 230.44 82.235 230.44Z" fill="#D56C67"/>
<path d="M88.6475 231.647H96.0143L96.6425 228.776H88.6475V231.647Z" fill="#D56C67"/>
<path d="M96.014 220.512H83.014L76.8739 225.766C76.4651 226.116 75.9899 226.381 75.4771 226.544L71.5236 227.798C70.248 228.203 69.2881 229.207 68.9028 230.441H82.2351C83.4383 230.441 84.6328 230.231 85.7653 229.82L88.6472 228.776H96.6422C98.029 226.341 96.014 220.512 96.014 220.512Z" fill="#A13E4B"/>
<path d="M83.014 220.512H96.014L91.2269 221.806C88.1646 222.634 84.924 222.504 81.9376 221.433L83.014 220.512Z" fill="#47284F"/>
<path d="M119.761 231.647H115.558L114.778 228.907L119.588 228.646L119.761 231.647Z" fill="#47284F"/>
<path d="M119.761 231.647H122.101L122.729 228.776L119.588 228.646L119.761 231.647Z" fill="#D56C67"/>
<path d="M114.888 230.212H102.579L102.428 231.647H113.451C115.847 231.647 118.11 230.541 119.588 228.646L119.211 228.898C117.93 229.755 116.427 230.212 114.888 230.212Z" fill="#D56C67"/>
<path d="M121.494 220.512H110.227L107.437 225.021C106.944 225.818 106.19 226.419 105.305 226.722C103.815 227.232 102.754 228.565 102.587 230.137L102.58 230.212H114.888C116.427 230.212 117.93 229.755 119.211 228.898L119.587 228.646L122.729 228.776C124.809 225.514 121.494 220.512 121.494 220.512Z" fill="#A13E4B"/>
<path d="M110.227 220.512H121.494L117.425 221.696C114.875 222.438 112.155 222.345 109.66 221.428L110.227 220.512Z" fill="#47284F"/>
<path d="M77.1208 117.46H111.614V120.984H77.1208V117.46Z" fill="#47284F"/>
<path d="M81.7468 120.984H80.3298V117.46H81.7468V120.984Z" fill="#3E4E6C"/>
<path d="M87.1418 120.984H85.7248V117.46H87.1418V120.984Z" fill="#3E4E6C"/>
<path d="M106.291 120.984H107.708V117.46H106.291V120.984Z" fill="#3E4E6C"/>
<path d="M99.3613 120.984H100.778V117.46H99.3613V120.984Z" fill="#3E4E6C"/>
<path d="M95.3694 121.571H91.1335C90.2718 121.571 89.5735 120.87 89.5735 120.005V118.532C89.5735 117.667 90.2718 116.966 91.1335 116.966H95.3694C96.231 116.966 96.9294 117.667 96.9294 118.532V120.005C96.9294 120.87 96.231 121.571 95.3694 121.571Z" fill="#FFC067"/>
<path d="M329.86 120.485H240.905C239.181 120.485 237.785 119.082 237.785 117.353V110.388C237.785 108.658 239.181 107.256 240.905 107.256H329.86C331.583 107.256 332.98 108.658 332.98 110.388V117.353C332.98 119.082 331.583 120.485 329.86 120.485Z" fill="#435277"/>
<path d="M262.318 118.305V109.436C262.318 108.232 263.29 107.256 264.49 107.256H256.171C254.764 107.256 253.622 108.401 253.622 109.814V117.926C253.622 119.339 254.764 120.485 256.171 120.485H264.49C263.29 120.485 262.318 119.509 262.318 118.305Z" fill="#797D9C"/>
<path d="M329.86 231.806H240.905C239.181 231.806 237.785 230.403 237.785 228.674V221.709C237.785 219.98 239.181 218.577 240.905 218.577H329.86C331.583 218.577 332.98 219.98 332.98 221.709V228.674C332.98 230.403 331.583 231.806 329.86 231.806Z" fill="#435277"/>
<path d="M262.318 229.626V220.758C262.318 219.553 263.29 218.577 264.49 218.577H256.171C254.764 218.577 253.622 219.722 253.622 221.135V229.247C253.622 230.66 254.764 231.806 256.171 231.806H264.49C263.29 231.806 262.318 230.83 262.318 229.626Z" fill="#797D9C"/>
<path d="M273.552 178.927H273.646C275.38 178.927 276.787 177.291 276.787 175.273V169.531V163.789C276.787 161.771 275.38 160.135 273.646 160.135H273.552C260.158 160.135 249.301 147.501 249.301 131.916V120.485H243.558V131.916C243.558 147.501 256.144 160.135 271.669 160.135H271.778C273.789 160.135 275.418 161.771 275.418 163.789V169.531V175.273C275.418 177.291 273.789 178.927 271.778 178.927H271.669C256.144 178.927 243.558 191.561 243.558 207.146V218.577H249.301V207.146C249.301 191.561 260.158 178.927 273.552 178.927Z" fill="#73E7E1"/>
<path d="M295.456 163.789C295.456 161.771 297.086 160.135 299.096 160.135C314.621 160.135 327.207 147.501 327.207 131.916V120.485H321.464V131.916C321.464 147.501 310.607 160.135 297.213 160.135C295.479 160.135 294.073 161.771 294.073 163.789V169.531V175.273C294.073 177.291 295.479 178.927 297.213 178.927C310.607 178.927 321.464 191.561 321.464 207.146V218.577H327.207V207.146C327.207 191.561 314.621 178.927 299.096 178.927C297.086 178.927 295.456 177.291 295.456 175.273V169.531V163.789Z" fill="#E0FFFF"/>
<path d="M297.213 178.927C295.479 178.927 294.073 177.291 294.073 175.273V169.531V163.789C294.073 161.771 295.479 160.135 297.213 160.135C310.607 160.135 321.464 147.501 321.464 131.916V120.485H249.301V131.916C249.301 147.501 260.158 160.135 273.552 160.135H273.646C275.38 160.135 276.786 161.771 276.786 163.789V169.531V175.273C276.786 177.291 275.38 178.927 273.646 178.927H273.552C260.158 178.927 249.301 191.561 249.301 207.146V218.577H321.464V207.146C321.464 191.561 310.607 178.927 297.213 178.927Z" fill="#C2F4F5"/>
<path d="M299.096 196.675C292.215 196.675 286.616 191.055 286.616 184.147V163.789C286.616 156.881 292.215 151.261 299.096 151.261C305.318 151.261 310.857 148.283 314.383 143.675H256.382C259.908 148.283 265.447 151.261 271.669 151.261H271.778C278.66 151.261 284.258 156.881 284.258 163.789V184.147C284.258 191.055 278.66 196.675 271.778 196.675H271.669C261.042 196.675 252.398 205.353 252.398 216.02V218.577H318.367V216.02C318.367 205.353 309.722 196.675 299.096 196.675Z" fill="#41AABE"/>
<g opacity="0.600006">
<path d="M261.389 190.481H267.363C268.009 190.481 268.593 190.08 268.819 189.472C269.494 187.661 270.27 186.032 271.13 184.628C271.765 183.592 271.004 182.26 269.792 182.26H266.08C265.739 182.26 265.404 182.367 265.133 182.576C263.244 184.037 261.541 185.892 260.082 188.06C259.389 189.091 260.151 190.481 261.389 190.481Z" fill="white"/>
</g>
<g opacity="0.600006">
<path d="M265.935 127.841C265.935 125.535 264.073 123.665 261.775 123.665H258.794C256.496 123.665 254.634 125.535 254.634 127.841V128.015C254.634 130.322 256.496 132.191 258.794 132.191H261.775C264.074 132.191 265.937 130.317 265.935 128.01V127.841Z" fill="white"/>
</g>
<g opacity="0.600006">
<path d="M280.749 169.531V163.789C280.749 161.771 279.992 160.135 279.057 160.135H279.006C273.127 160.135 268.157 151.753 266.514 140.223C266.219 138.15 264.477 136.595 262.391 136.595H259.977C257.248 136.595 255.226 139.197 255.952 141.837C258.893 152.527 266.444 160.135 275.3 160.135H275.381C276.859 160.135 278.057 161.771 278.057 163.789V169.531V173.209C278.057 173.955 278.659 174.56 279.403 174.56C280.147 174.56 280.749 173.955 280.749 173.209V169.531Z" fill="white"/>
</g>
<g opacity="0.600006">
<path d="M265.935 207.146C265.935 205.174 266.029 203.25 266.207 201.393C266.413 199.249 264.732 197.398 262.587 197.398H258.812C257.067 197.398 255.547 198.637 255.236 200.361C254.843 202.534 254.634 204.807 254.634 207.146V209.804C254.634 211.822 256.263 213.458 258.274 213.458H262.295C264.306 213.458 265.935 211.822 265.935 209.804V207.146Z" fill="white"/>
</g>
<path d="M357.443 232.936C357.443 232.228 356.871 231.654 356.166 231.654H59.5467C58.8416 231.654 58.2696 232.228 58.2696 232.936C58.2696 233.644 58.8416 234.218 59.5467 234.218H82.3518C83.0575 234.218 83.6295 234.792 83.6295 235.5C83.6295 236.208 83.0575 236.782 82.3518 236.782H59.5467C58.8411 236.782 58.2696 237.356 58.2696 238.063C58.2696 238.772 58.8411 239.345 59.5467 239.345H317.599C318.304 239.345 318.876 238.772 318.876 238.063C318.876 237.356 318.304 236.782 317.599 236.782H271.998C271.292 236.782 270.721 236.208 270.721 235.5C270.721 234.792 271.292 234.218 271.998 234.218H356.166C356.871 234.218 357.443 233.644 357.443 232.936Z" fill="#41AABE"/>
<path d="M36.9265 234.218H54.2191C54.9242 234.218 55.4962 233.643 55.4962 232.936C55.4962 232.227 54.9242 231.654 54.2191 231.654H36.9265C36.2214 231.654 35.6494 232.227 35.6494 232.936C35.6494 233.643 36.2214 234.218 36.9265 234.218Z" fill="#41AABE"/>
<path d="M46.3733 239.345H51.0122C51.7179 239.345 52.2894 238.771 52.2894 238.063C52.2894 237.356 51.7179 236.782 51.0122 236.782H46.3733C45.6682 236.782 45.0962 237.356 45.0962 238.063C45.0962 238.771 45.6682 239.345 46.3733 239.345Z" fill="#41AABE"/>
<path d="M335.917 239.345H322.741C322.036 239.345 321.464 238.771 321.464 238.064C321.464 237.356 322.036 236.782 322.741 236.782H335.917C336.622 236.782 337.194 237.356 337.194 238.064C337.194 238.771 336.622 239.345 335.917 239.345Z" fill="#41AABE"/>
</g>
</svg>
