<svg width="236" height="236" viewBox="0 0 236 236" fill="none" xmlns="http://www.w3.org/2000/svg">
<g opacity="0.2">
<g opacity="0.699997">
<path d="M218.107 173.816C234.367 135.317 236.424 80.9048 208.399 47.1072C192.942 28.467 168.62 22.2692 145.402 20.8838C124.595 19.642 102.322 20.1381 83.4172 29.9845C51.3736 46.6744 50.5835 86.3602 26.5818 109.777C7.22981 128.657 -0.794189 155.561 15.7258 190.961C32.2458 226.361 62.9258 234.385 93.1338 223.057C123.342 211.729 137.03 209.369 173.374 215.033C190.078 217.636 202.199 205.1 209.527 191.596C212.669 185.805 215.55 179.869 218.107 173.816Z" fill="white"/>
</g>
<g opacity="0.199997">
<path d="M54.0094 21.6019H75.0111V49.3795H48.7126" stroke="black" stroke-width="1.33333" stroke-miterlimit="10" stroke-linecap="round" stroke-linejoin="round"/>
<path d="M45.966 49.3795H39.5704V21.6019H51.2628" stroke="black" stroke-width="1.33333" stroke-miterlimit="10" stroke-linecap="round" stroke-linejoin="round"/>
<path d="M46.1347 33.5505H42.2468V29.6627H46.1347V33.5505Z" stroke="black" stroke-width="1.33333" stroke-miterlimit="10" stroke-linecap="round" stroke-linejoin="round"/>
<path d="M51.3748 33.5505H47.4869V29.6627H51.3748V33.5505Z" stroke="black" stroke-width="1.33333" stroke-miterlimit="10" stroke-linecap="round" stroke-linejoin="round"/>
<path d="M56.6144 33.5505H52.7266V29.6627H56.6144V33.5505Z" stroke="black" stroke-width="1.33333" stroke-miterlimit="10" stroke-linecap="round" stroke-linejoin="round"/>
<path d="M61.8545 33.5505H57.9667V29.6627H61.8545V33.5505Z" stroke="black" stroke-width="1.33333" stroke-miterlimit="10" stroke-linecap="round" stroke-linejoin="round"/>
<path d="M67.0948 33.5505H63.2069V29.6627H67.0948V33.5505Z" stroke="black" stroke-width="1.33333" stroke-miterlimit="10" stroke-linecap="round" stroke-linejoin="round"/>
<path d="M72.3354 33.5505H68.4475V29.6627H72.3354V33.5505Z" stroke="black" stroke-width="1.33333" stroke-miterlimit="10" stroke-linecap="round" stroke-linejoin="round"/>
<path d="M46.1347 38.9597H42.2468V35.0718H46.1347V38.9597Z" stroke="black" stroke-width="1.33333" stroke-miterlimit="10" stroke-linecap="round" stroke-linejoin="round"/>
<path d="M51.3748 38.9597H47.4869V35.0718H51.3748V38.9597Z" stroke="black" stroke-width="1.33333" stroke-miterlimit="10" stroke-linecap="round" stroke-linejoin="round"/>
<path d="M56.6144 38.9597H52.7266V35.0718H56.6144V38.9597Z" stroke="black" stroke-width="1.33333" stroke-miterlimit="10" stroke-linecap="round" stroke-linejoin="round"/>
<path d="M61.8545 38.9597H57.9667V35.0718H61.8545V38.9597Z" stroke="black" stroke-width="1.33333" stroke-miterlimit="10" stroke-linecap="round" stroke-linejoin="round"/>
<path d="M67.0948 38.9597H63.2069V35.0718H67.0948V38.9597Z" stroke="black" stroke-width="1.33333" stroke-miterlimit="10" stroke-linecap="round" stroke-linejoin="round"/>
<path d="M72.3354 38.9597H68.4475V35.0718H72.3354V38.9597Z" stroke="black" stroke-width="1.33333" stroke-miterlimit="10" stroke-linecap="round" stroke-linejoin="round"/>
<path d="M46.1347 44.3688H42.2468V40.4809H46.1347V44.3688Z" stroke="black" stroke-width="1.33333" stroke-miterlimit="10" stroke-linecap="round" stroke-linejoin="round"/>
<path d="M51.3748 44.3688H47.4869V40.4809H51.3748V44.3688Z" stroke="black" stroke-width="1.33333" stroke-miterlimit="10" stroke-linecap="round" stroke-linejoin="round"/>
<path d="M56.6144 44.3688H52.7266V40.4809H56.6144V44.3688Z" stroke="black" stroke-width="1.33333" stroke-miterlimit="10" stroke-linecap="round" stroke-linejoin="round"/>
<path d="M61.8545 44.3688H57.9667V40.4809H61.8545V44.3688Z" stroke="black" stroke-width="1.33333" stroke-miterlimit="10" stroke-linecap="round" stroke-linejoin="round"/>
<path d="M67.0948 44.3688H63.2069V40.4809H67.0948V44.3688Z" stroke="black" stroke-width="1.33333" stroke-miterlimit="10" stroke-linecap="round" stroke-linejoin="round"/>
<path d="M72.3354 44.3688H68.4475V40.4809H72.3354V44.3688Z" stroke="black" stroke-width="1.33333" stroke-miterlimit="10" stroke-linecap="round" stroke-linejoin="round"/>
<path d="M72.4831 25.4369H42.3945V26.7892H72.4831V25.4369Z" stroke="black" stroke-width="1.33333" stroke-miterlimit="10" stroke-linecap="round" stroke-linejoin="round"/>
</g>
<g opacity="0.199997">
<path d="M208.4 53.3512H221.65V81.1289H218.209" stroke="black" stroke-width="1.33333" stroke-miterlimit="10" stroke-linecap="round" stroke-linejoin="round"/>
<path d="M215.855 81.1289H186.21V53.3513H205.261" stroke="black" stroke-width="1.33333" stroke-miterlimit="10" stroke-linecap="round" stroke-linejoin="round"/>
<path d="M192.774 65.3001H188.886V61.4122H192.774V65.3001Z" stroke="black" stroke-width="1.33333" stroke-miterlimit="10" stroke-linecap="round" stroke-linejoin="round"/>
<path d="M198.014 65.3001H194.126V61.4122H198.014V65.3001Z" stroke="black" stroke-width="1.33333" stroke-miterlimit="10" stroke-linecap="round" stroke-linejoin="round"/>
<path d="M203.254 65.3001H199.366V61.4122H203.254V65.3001Z" stroke="black" stroke-width="1.33333" stroke-miterlimit="10" stroke-linecap="round" stroke-linejoin="round"/>
<path d="M208.494 65.3001H204.606V61.4122H208.494V65.3001Z" stroke="black" stroke-width="1.33333" stroke-miterlimit="10" stroke-linecap="round" stroke-linejoin="round"/>
<path d="M213.734 65.3001H209.846V61.4122H213.734V65.3001Z" stroke="black" stroke-width="1.33333" stroke-miterlimit="10" stroke-linecap="round" stroke-linejoin="round"/>
<path d="M218.974 65.3001H215.087V61.4122H218.974V65.3001Z" stroke="black" stroke-width="1.33333" stroke-miterlimit="10" stroke-linecap="round" stroke-linejoin="round"/>
<path d="M192.774 70.7092H188.886V66.8214H192.774V70.7092Z" stroke="black" stroke-width="1.33333" stroke-miterlimit="10" stroke-linecap="round" stroke-linejoin="round"/>
<path d="M198.014 70.7092H194.126V66.8214H198.014V70.7092Z" stroke="black" stroke-width="1.33333" stroke-miterlimit="10" stroke-linecap="round" stroke-linejoin="round"/>
<path d="M203.254 70.7092H199.366V66.8214H203.254V70.7092Z" stroke="black" stroke-width="1.33333" stroke-miterlimit="10" stroke-linecap="round" stroke-linejoin="round"/>
<path d="M208.494 70.7092H204.606V66.8214H208.494V70.7092Z" stroke="black" stroke-width="1.33333" stroke-miterlimit="10" stroke-linecap="round" stroke-linejoin="round"/>
<path d="M213.734 70.7092H209.846V66.8214H213.734V70.7092Z" stroke="black" stroke-width="1.33333" stroke-miterlimit="10" stroke-linecap="round" stroke-linejoin="round"/>
<path d="M218.974 70.7092H215.087V66.8214H218.974V70.7092Z" stroke="black" stroke-width="1.33333" stroke-miterlimit="10" stroke-linecap="round" stroke-linejoin="round"/>
<path d="M192.774 76.1183H188.886V72.2305H192.774V76.1183Z" stroke="black" stroke-width="1.33333" stroke-miterlimit="10" stroke-linecap="round" stroke-linejoin="round"/>
<path d="M198.014 76.1183H194.126V72.2305H198.014V76.1183Z" stroke="black" stroke-width="1.33333" stroke-miterlimit="10" stroke-linecap="round" stroke-linejoin="round"/>
<path d="M203.254 76.1183H199.366V72.2305H203.254V76.1183Z" stroke="black" stroke-width="1.33333" stroke-miterlimit="10" stroke-linecap="round" stroke-linejoin="round"/>
<path d="M208.494 76.1183H204.606V72.2305H208.494V76.1183Z" stroke="black" stroke-width="1.33333" stroke-miterlimit="10" stroke-linecap="round" stroke-linejoin="round"/>
<path d="M213.734 76.1183H209.846V72.2305H213.734V76.1183Z" stroke="black" stroke-width="1.33333" stroke-miterlimit="10" stroke-linecap="round" stroke-linejoin="round"/>
<path d="M218.974 76.1183H215.087V72.2305H218.974V76.1183Z" stroke="black" stroke-width="1.33333" stroke-miterlimit="10" stroke-linecap="round" stroke-linejoin="round"/>
<path d="M219.122 57.1864H189.034V58.5387H219.122V57.1864Z" stroke="black" stroke-width="1.33333" stroke-miterlimit="10" stroke-linecap="round" stroke-linejoin="round"/>
</g>
<g opacity="0.199997">
<path d="M22.0496 97.775V83.2766C22.0496 82.2797 22.8572 81.4717 23.854 81.4717H46.4959C47.4927 81.4717 48.3008 82.2797 48.3008 83.2766V104.114H22.0496V100.914" stroke="black" stroke-width="1.33333" stroke-miterlimit="10" stroke-linecap="round" stroke-linejoin="round"/>
<path d="M22.3776 86.394H47.9727" stroke="black" stroke-width="1.33333" stroke-miterlimit="10" stroke-linecap="round" stroke-linejoin="round"/>
<path d="M28.5064 90.6599H24.6747V93.6133H45.6754V90.6599H32.4301" stroke="black" stroke-width="1.33333" stroke-miterlimit="10" stroke-linecap="round" stroke-linejoin="round"/>
<path d="M45.6759 96.8948H24.6747V99.8481H45.6759V96.8948Z" stroke="black" stroke-width="1.33333" stroke-miterlimit="10" stroke-linecap="round" stroke-linejoin="round"/>
</g>
<g opacity="0.199997">
<path d="M154.973 225.89H128.722V205.053C128.722 204.056 129.53 203.248 130.526 203.248H153.168C154.165 203.248 154.973 204.056 154.973 205.053V225.89Z" stroke="black" stroke-width="1.33333" stroke-miterlimit="10" stroke-linecap="round" stroke-linejoin="round"/>
<path d="M129.05 208.17H154.645" stroke="black" stroke-width="1.33333" stroke-miterlimit="10" stroke-linecap="round" stroke-linejoin="round"/>
<path d="M152.348 212.436H131.347V215.389H152.348V212.436Z" stroke="black" stroke-width="1.33333" stroke-miterlimit="10" stroke-linecap="round" stroke-linejoin="round"/>
<path d="M152.348 218.67H131.347V221.624H152.348V218.67Z" stroke="black" stroke-width="1.33333" stroke-miterlimit="10" stroke-linecap="round" stroke-linejoin="round"/>
</g>
<g opacity="0.199997">
<path d="M135.594 26.5689C132.994 24.2207 129.549 22.791 125.771 22.791C117.673 22.791 111.109 29.3551 111.109 37.4523C111.109 41.4855 112.738 45.1384 115.373 47.7891" stroke="black" stroke-width="1.33333" stroke-miterlimit="10" stroke-linecap="round" stroke-linejoin="round"/>
<path d="M117.045 49.2351C119.483 51.0438 122.502 52.1133 125.771 52.1133C133.868 52.1133 140.432 45.5492 140.432 37.452C140.432 33.7369 139.05 30.3447 136.772 27.7609" stroke="black" stroke-width="1.33333" stroke-miterlimit="10" stroke-linecap="round" stroke-linejoin="round"/>
<path d="M132.479 37.4521H125.771V48.8424" stroke="black" stroke-width="1.33333" stroke-miterlimit="10" stroke-linecap="round" stroke-linejoin="round"/>
</g>
<g opacity="0.199997">
<path d="M22.0088 47.5955C18.474 48.1397 15.7676 51.195 15.7676 54.8818C15.7676 58.9537 19.0687 62.2544 23.1402 62.2544C24.0507 62.2544 24.9225 62.0897 25.7273 61.7876" stroke="black" stroke-width="1.33333" stroke-miterlimit="10" stroke-linecap="round" stroke-linejoin="round"/>
<path d="M28.1233 60.3156C29.5922 58.968 30.5126 57.0323 30.5126 54.8819C30.5126 51.1149 27.6882 48.0082 24.041 47.5635" stroke="black" stroke-width="1.33333" stroke-miterlimit="10" stroke-linecap="round" stroke-linejoin="round"/>
<path d="M23.1403 51.126V58.6379" stroke="black" stroke-width="1.33333" stroke-miterlimit="10"/>
<path d="M26.8962 54.8818H19.3843" stroke="black" stroke-width="1.33333" stroke-miterlimit="10"/>
</g>
<g opacity="0.199997">
<path d="M228.903 112.331C228.903 108.259 225.602 104.958 221.53 104.958C217.459 104.958 214.158 108.259 214.158 112.331C214.158 116.403 217.459 119.703 221.53 119.703C225.602 119.703 228.903 116.403 228.903 112.331Z" stroke="black" stroke-width="1.33333" stroke-miterlimit="10" stroke-linecap="round" stroke-linejoin="round"/>
<path d="M221.53 108.575V116.087" stroke="black" stroke-width="1.33333" stroke-miterlimit="10"/>
<path d="M225.286 112.331H217.775" stroke="black" stroke-width="1.33333" stroke-miterlimit="10"/>
</g>
<path d="M207.83 210.785H38.3816L38.5803 71.294C38.5803 68.497 40.8478 66.2299 43.6444 66.2299H202.964C205.761 66.2299 208.029 68.497 208.029 71.294L207.83 210.785Z" fill="white"/>
<path d="M207.83 210.785H38.3816L38.5803 71.294C38.5803 68.497 40.8478 66.2299 43.6444 66.2299H202.964C205.761 66.2299 208.029 68.497 208.029 71.294L207.83 210.785Z" stroke="#1A2E35" stroke-width="1.33333" stroke-miterlimit="10" stroke-linecap="round" stroke-linejoin="round"/>
<path d="M84.9741 83.5769H60.9177V78.6242H84.9741V83.5769Z" stroke="#1A2E35" stroke-width="1.33333" stroke-miterlimit="10" stroke-linecap="round" stroke-linejoin="round"/>
<path d="M157.909 85.3695H201.785" stroke="#1A2E35" stroke-width="1.33333" stroke-miterlimit="10" stroke-linecap="round" stroke-linejoin="round"/>
<path d="M47.9863 85.3695H155.352" stroke="#1A2E35" stroke-width="1.33333" stroke-miterlimit="10" stroke-linecap="round" stroke-linejoin="round"/>
<path d="M202.964 66.2301H43.6445C40.8479 66.2301 38.5804 68.4971 38.5804 71.2941V75.1494H208.028V71.2941C208.028 68.4971 205.761 66.2301 202.964 66.2301Z" fill="#1A2E35"/>
<path d="M202.964 66.2301H43.6445C40.8479 66.2301 38.5804 68.4971 38.5804 71.2941V75.1494H208.028V71.2941C208.028 68.4971 205.761 66.2301 202.964 66.2301Z" stroke="#1A2E35" stroke-width="1.33333" stroke-miterlimit="10" stroke-linecap="round" stroke-linejoin="round"/>
<path d="M47.8112 71.1805C47.8112 70.3366 47.1273 69.6527 46.2834 69.6527C45.4394 69.6527 44.7555 70.3366 44.7555 71.1805C44.7555 72.0245 45.4394 72.7084 46.2834 72.7084C47.1273 72.7084 47.8112 72.0245 47.8112 71.1805Z" fill="white"/>
<path d="M47.8112 71.1805C47.8112 70.3366 47.1273 69.6527 46.2834 69.6527C45.4394 69.6527 44.7555 70.3366 44.7555 71.1805C44.7555 72.0245 45.4394 72.7084 46.2834 72.7084C47.1273 72.7084 47.8112 72.0245 47.8112 71.1805Z" stroke="#1A2E35" stroke-width="1.33333" stroke-miterlimit="10" stroke-linecap="round" stroke-linejoin="round"/>
<path d="M53.9225 71.1805C53.9225 70.3366 53.2386 69.6527 52.3947 69.6527C51.5507 69.6527 50.8668 70.3366 50.8668 71.1805C50.8668 72.0245 51.5507 72.7084 52.3947 72.7084C53.2386 72.7084 53.9225 72.0245 53.9225 71.1805Z" fill="white"/>
<path d="M53.9225 71.1805C53.9225 70.3366 53.2386 69.6527 52.3947 69.6527C51.5507 69.6527 50.8668 70.3366 50.8668 71.1805C50.8668 72.0245 51.5507 72.7084 52.3947 72.7084C53.2386 72.7084 53.9225 72.0245 53.9225 71.1805Z" stroke="#1A2E35" stroke-width="1.33333" stroke-miterlimit="10" stroke-linecap="round" stroke-linejoin="round"/>
<path d="M60.0339 71.1805C60.0339 70.3366 59.3499 69.6527 58.506 69.6527C57.6625 69.6527 56.9781 70.3366 56.9781 71.1805C56.9781 72.0245 57.6625 72.7084 58.506 72.7084C59.3499 72.7084 60.0339 72.0245 60.0339 71.1805Z" fill="white"/>
<path d="M60.0339 71.1805C60.0339 70.3366 59.3499 69.6527 58.506 69.6527C57.6625 69.6527 56.9781 70.3366 56.9781 71.1805C56.9781 72.0245 57.6625 72.7084 58.506 72.7084C59.3499 72.7084 60.0339 72.0245 60.0339 71.1805Z" stroke="#1A2E35" stroke-width="1.33333" stroke-miterlimit="10" stroke-linecap="round" stroke-linejoin="round"/>
<path d="M48.359 78.9192H55.6113" stroke="#1A2E35" stroke-width="1.33333" stroke-miterlimit="10" stroke-linecap="round" stroke-linejoin="round"/>
<path d="M48.359 80.8648H55.6113" stroke="#1A2E35" stroke-width="1.33333" stroke-miterlimit="10" stroke-linecap="round" stroke-linejoin="round"/>
<path d="M48.359 82.8107H55.6113" stroke="#1A2E35" stroke-width="1.33333" stroke-miterlimit="10" stroke-linecap="round" stroke-linejoin="round"/>
<path d="M49.7015 96.1154V89.8685H48.42V89.1633H51.7571V89.8685H50.4761V96.1154H49.7015Z" fill="#1A2E35"/>
<path d="M52.8004 94.0495H54.3495L53.5651 90.037L52.8004 94.0495ZM52.7008 94.715L52.4327 96.1154H51.7177L53.0482 89.1629H54.1706L55.5017 96.1154H54.7271L54.459 94.715H52.7008Z" fill="#1A2E35"/>
<path d="M59.1172 90.8317V91.02H58.3818V90.792C58.3818 90.1662 58.1434 89.799 57.5874 89.799C57.0314 89.799 56.793 90.1662 56.793 90.7821C56.793 92.3412 59.1271 92.4903 59.1271 94.4467C59.1271 95.4998 58.6201 96.1851 57.5577 96.1851C56.4947 96.1851 55.9987 95.4998 55.9987 94.4467V94.0493H56.7236V94.4864C56.7236 95.1123 56.9818 95.48 57.5378 95.48C58.0939 95.48 58.352 95.1123 58.352 94.4864C58.352 92.9373 56.0284 92.7886 56.0284 90.8317C56.0284 89.7593 56.5249 89.0933 57.5676 89.0933C58.6201 89.0933 59.1172 89.7791 59.1172 90.8317Z" fill="#1A2E35"/>
<path d="M60.9844 93.0963L60.5775 93.7811V96.1152H59.8025V89.1631H60.5775V92.5199L62.4245 89.1631H63.2089L61.4512 92.3316L63.2689 96.1152H62.474L60.9844 93.0963Z" fill="#1A2E35"/>
<path d="M66.8249 90.8317V91.02H66.0895V90.792C66.0895 90.1662 65.8512 89.799 65.2952 89.799C64.7392 89.799 64.5008 90.1662 64.5008 90.7821C64.5008 92.3412 66.8348 92.4903 66.8348 94.4467C66.8348 95.4998 66.3279 96.1851 65.2654 96.1851C64.2025 96.1851 63.7064 95.4998 63.7064 94.4467V94.0493H64.4314V94.4864C64.4314 95.1123 64.6896 95.48 65.2456 95.48C65.8016 95.48 66.0598 95.1123 66.0598 94.4864C66.0598 92.9373 63.7362 92.7886 63.7362 90.8317C63.7362 89.7593 64.2327 89.0933 65.2753 89.0933C66.3279 89.0933 66.8249 89.7791 66.8249 90.8317Z" fill="#1A2E35"/>
<path d="M154.732 163.636H48.1044V135.148H154.732V163.636Z" fill="white" stroke="#1A2E35" stroke-width="1.33333" stroke-miterlimit="10" stroke-linecap="round" stroke-linejoin="round"/>
<path d="M130.245 144.083C130.491 144.083 130.61 143.968 130.61 143.683V143.288C130.61 143.016 130.512 142.88 130.27 142.88H129.951V144.083H130.245ZM130.27 142.578C130.737 142.578 130.937 142.854 130.937 143.305V143.662C130.937 144.133 130.716 144.38 130.245 144.38H129.951V145.553H129.62V142.578H130.27Z" fill="#1A2E35"/>
<path d="M131.774 143.981C132.037 143.981 132.195 143.896 132.195 143.573V143.288C132.195 143.02 132.097 142.88 131.85 142.88H131.528V143.981H131.774ZM131.859 142.578C132.326 142.578 132.522 142.816 132.522 143.258V143.5C132.522 143.828 132.407 144.031 132.152 144.112C132.424 144.193 132.526 144.414 132.526 144.733V145.196C132.526 145.328 132.53 145.451 132.585 145.553H132.25C132.212 145.468 132.195 145.391 132.195 145.192V144.724C132.195 144.388 132.037 144.283 131.761 144.283H131.528V145.553H131.196V142.578H131.859Z" fill="#1A2E35"/>
<path d="M133.171 144.852C133.171 145.124 133.286 145.281 133.524 145.281C133.766 145.281 133.877 145.124 133.877 144.852V143.279C133.877 143.012 133.766 142.85 133.524 142.85C133.286 142.85 133.171 143.012 133.171 143.279V144.852ZM132.844 143.296C132.844 142.842 133.069 142.549 133.524 142.549C133.983 142.549 134.208 142.842 134.208 143.296V144.835C134.208 145.285 133.983 145.583 133.524 145.583C133.069 145.583 132.844 145.285 132.844 144.835V143.296Z" fill="#1A2E35"/>
<path d="M135.835 143.296V143.551H135.52V143.279C135.52 143.011 135.414 142.85 135.172 142.85C134.934 142.85 134.823 143.011 134.823 143.279V144.852C134.823 145.119 134.934 145.281 135.172 145.281C135.414 145.281 135.52 145.119 135.52 144.852V144.257H135.215V143.959H135.835V144.835C135.835 145.285 135.622 145.583 135.164 145.583C134.709 145.583 134.496 145.285 134.496 144.835V143.296C134.496 142.846 134.709 142.549 135.164 142.549C135.622 142.549 135.835 142.846 135.835 143.296Z" fill="#1A2E35"/>
<path d="M136.727 143.981C136.991 143.981 137.148 143.896 137.148 143.573V143.288C137.148 143.02 137.05 142.88 136.803 142.88H136.481V143.981H136.727ZM136.812 142.578C137.279 142.578 137.475 142.816 137.475 143.258V143.5C137.475 143.828 137.36 144.031 137.105 144.112C137.377 144.193 137.479 144.414 137.479 144.733V145.196C137.479 145.328 137.483 145.451 137.539 145.553H137.203C137.165 145.468 137.148 145.391 137.148 145.192V144.724C137.148 144.388 136.991 144.283 136.715 144.283H136.481V145.553H136.149V142.578H136.812Z" fill="#1A2E35"/>
<path d="M138.881 143.896V144.193H138.154V145.251H139.047V145.553H137.823V142.578H139.047V142.88H138.154V143.896H138.881Z" fill="#1A2E35"/>
<path d="M140.639 143.292V143.373H140.325V143.275C140.325 143.007 140.223 142.85 139.984 142.85C139.747 142.85 139.645 143.007 139.645 143.271C139.645 143.938 140.643 144.002 140.643 144.839C140.643 145.289 140.427 145.583 139.972 145.583C139.517 145.583 139.305 145.289 139.305 144.839V144.669H139.615V144.856C139.615 145.124 139.725 145.281 139.963 145.281C140.202 145.281 140.312 145.124 140.312 144.856C140.312 144.193 139.318 144.129 139.318 143.292C139.318 142.833 139.53 142.549 139.976 142.549C140.427 142.549 140.639 142.842 140.639 143.292Z" fill="#1A2E35"/>
<path d="M142.22 143.292V143.373H141.905V143.275C141.905 143.007 141.803 142.85 141.565 142.85C141.327 142.85 141.226 143.007 141.226 143.271C141.226 143.938 142.224 144.002 142.224 144.839C142.224 145.289 142.007 145.583 141.553 145.583C141.098 145.583 140.885 145.289 140.885 144.839V144.669H141.195V144.856C141.195 145.124 141.306 145.281 141.544 145.281C141.782 145.281 141.893 145.124 141.893 144.856C141.893 144.193 140.898 144.129 140.898 143.292C140.898 142.833 141.111 142.549 141.557 142.549C142.007 142.549 142.22 142.842 142.22 143.292Z" fill="#1A2E35"/>
<path d="M108.955 145.251C109.193 145.251 109.308 145.103 109.308 144.83V143.301C109.308 143.029 109.193 142.88 108.95 142.88H108.593V145.251H108.955ZM108.959 142.578C109.422 142.578 109.634 142.859 109.634 143.318V144.818C109.634 145.273 109.422 145.553 108.959 145.553H108.262V142.578H108.959Z" fill="#1A2E35"/>
<path d="M111.002 143.896V144.193H110.276V145.251H111.169V145.553H109.945V142.578H111.169V142.88H110.276V143.896H111.002Z" fill="#1A2E35"/>
<path d="M111.852 144.669H112.514L112.179 142.952L111.852 144.669ZM111.809 144.954L111.694 145.553H111.389L111.958 142.578H112.438L113.008 145.553H112.676L112.561 144.954H111.809Z" fill="#1A2E35"/>
<path d="M113.959 145.251C114.197 145.251 114.312 145.103 114.312 144.83V143.301C114.312 143.029 114.197 142.88 113.955 142.88H113.598V145.251H113.959ZM113.964 142.578C114.426 142.578 114.638 142.859 114.638 143.318V144.818C114.638 145.273 114.426 145.553 113.964 145.553H113.266V142.578H113.964Z" fill="#1A2E35"/>
<path d="M114.949 145.553V142.578H115.28V145.251H116.13V145.553H114.949Z" fill="#1A2E35"/>
<path d="M116.711 145.553H116.38V142.578H116.711V145.553Z" fill="#1A2E35"/>
<path d="M117.344 145.553H117.047V142.578H117.468L118.156 144.729V142.578H118.449V145.553H118.105L117.344 143.147V145.553Z" fill="#1A2E35"/>
<path d="M119.847 143.896V144.193H119.12V145.251H120.013V145.553H118.789V142.578H120.013V142.88H119.12V143.896H119.847Z" fill="#1A2E35"/>
<path d="M89.411 145.977H95.6197" stroke="#1A2E35" stroke-width="1.33333" stroke-miterlimit="10" stroke-linecap="round" stroke-linejoin="round"/>
<path d="M70.7853 145.977H87.1759" stroke="#1A2E35" stroke-width="1.33333" stroke-miterlimit="10" stroke-linecap="round" stroke-linejoin="round"/>
<path d="M53.3875 145.977H68.3022" stroke="#1A2E35" stroke-width="1.33333" stroke-miterlimit="10" stroke-linecap="round" stroke-linejoin="round"/>
<path d="M80.2225 153.042H84.9699" stroke="#1A2E35" stroke-width="1.33333" stroke-miterlimit="10" stroke-linecap="round" stroke-linejoin="round"/>
<path d="M68.0536 153.042H76.2489" stroke="#1A2E35" stroke-width="1.33333" stroke-miterlimit="10" stroke-linecap="round" stroke-linejoin="round"/>
<path d="M62.0934 153.042H65.5701" stroke="#1A2E35" stroke-width="1.33333" stroke-miterlimit="10" stroke-linecap="round" stroke-linejoin="round"/>
<path d="M53.3875 153.042H60.1068" stroke="#1A2E35" stroke-width="1.33333" stroke-miterlimit="10" stroke-linecap="round" stroke-linejoin="round"/>
<path d="M150.783 151.723C150.783 152.337 150.534 152.893 150.132 153.295C149.727 153.701 149.169 153.951 148.556 153.951H125.168C123.936 153.951 122.935 152.951 122.935 151.723C122.935 151.105 123.186 150.548 123.592 150.147C123.993 149.741 124.55 149.491 125.168 149.491H148.556C149.788 149.491 150.783 150.491 150.783 151.723Z" fill="white"/>
<path d="M150.783 151.723C150.783 152.337 150.534 152.893 150.132 153.295C149.727 153.701 149.169 153.951 148.556 153.951H125.168C123.936 153.951 122.935 152.951 122.935 151.723C122.935 151.105 123.186 150.548 123.592 150.147C123.993 149.741 124.55 149.491 125.168 149.491H148.556C149.788 149.491 150.783 150.491 150.783 151.723Z" stroke="#1A2E35" stroke-width="1.33333" stroke-miterlimit="10" stroke-linecap="round" stroke-linejoin="round"/>
<path d="M143.812 149.491V153.951H125.168C123.936 153.951 122.936 152.95 122.936 151.723C122.936 151.105 123.186 150.548 123.592 150.147C123.993 149.741 124.549 149.491 125.168 149.491H143.812Z" fill="#5AE4A7"/>
<path d="M143.812 149.491V153.951H125.168C123.936 153.951 122.936 152.95 122.936 151.723C122.936 151.105 123.186 150.548 123.592 150.147C123.993 149.741 124.549 149.491 125.168 149.491H143.812Z" stroke="#1A2E35" stroke-width="1.33333" stroke-miterlimit="10" stroke-linecap="round" stroke-linejoin="round"/>
<path d="M118.506 153.951H109.278C108.046 153.951 107.048 152.953 107.048 151.721V151.721C107.048 150.49 108.046 149.492 109.278 149.492H118.506C119.737 149.492 120.736 150.49 120.736 151.721V151.721C120.736 152.953 119.737 153.951 118.506 153.951Z" fill="white"/>
<path d="M118.506 153.951H109.278C108.046 153.951 107.048 152.953 107.048 151.721V151.721C107.048 150.49 108.046 149.492 109.278 149.492H118.506C119.737 149.492 120.736 150.49 120.736 151.721V151.721C120.736 152.953 119.737 153.951 118.506 153.951Z" stroke="#1A2E35" stroke-width="1.33333" stroke-miterlimit="10" stroke-linecap="round" stroke-linejoin="round"/>
<path d="M154.732 199.985H48.1044V171.498H154.732V199.985Z" fill="white" stroke="#1A2E35" stroke-width="1.33333" stroke-miterlimit="10" stroke-linecap="round" stroke-linejoin="round"/>
<path d="M130.245 181.033C130.491 181.033 130.61 180.918 130.61 180.633V180.238C130.61 179.966 130.512 179.83 130.27 179.83H129.951V181.033H130.245ZM130.27 179.528C130.737 179.528 130.937 179.804 130.937 180.255V180.612C130.937 181.084 130.716 181.33 130.245 181.33H129.951V182.503H129.62V179.528H130.27Z" fill="#1A2E35"/>
<path d="M131.774 180.931C132.037 180.931 132.195 180.845 132.195 180.523V180.238C132.195 179.97 132.097 179.83 131.85 179.83H131.528V180.931H131.774ZM131.859 179.528C132.326 179.528 132.522 179.766 132.522 180.209V180.45C132.522 180.778 132.407 180.981 132.152 181.062C132.424 181.143 132.526 181.364 132.526 181.683V182.146C132.526 182.278 132.53 182.401 132.585 182.503H132.25C132.212 182.418 132.195 182.341 132.195 182.141V181.675C132.195 181.338 132.037 181.233 131.761 181.233H131.528V182.503H131.196V179.528H131.859Z" fill="#1A2E35"/>
<path d="M133.171 181.802C133.171 182.074 133.286 182.231 133.524 182.231C133.766 182.231 133.877 182.074 133.877 181.802V180.23C133.877 179.962 133.766 179.801 133.524 179.801C133.286 179.801 133.171 179.962 133.171 180.23V181.802ZM132.844 180.247C132.844 179.792 133.069 179.498 133.524 179.498C133.983 179.498 134.208 179.792 134.208 180.247V181.785C134.208 182.235 133.983 182.532 133.524 182.532C133.069 182.532 132.844 182.235 132.844 181.785V180.247Z" fill="#1A2E35"/>
<path d="M135.835 180.247V180.502H135.52V180.23C135.52 179.962 135.414 179.801 135.172 179.801C134.934 179.801 134.823 179.962 134.823 180.23V181.802C134.823 182.069 134.934 182.231 135.172 182.231C135.414 182.231 135.52 182.069 135.52 181.802V181.207H135.215V180.909H135.835V181.785C135.835 182.235 135.622 182.533 135.164 182.533C134.709 182.533 134.496 182.235 134.496 181.785V180.247C134.496 179.796 134.709 179.499 135.164 179.499C135.622 179.499 135.835 179.796 135.835 180.247Z" fill="#1A2E35"/>
<path d="M136.727 180.931C136.991 180.931 137.148 180.845 137.148 180.523V180.238C137.148 179.97 137.05 179.83 136.803 179.83H136.481V180.931H136.727ZM136.812 179.528C137.279 179.528 137.475 179.766 137.475 180.209V180.45C137.475 180.778 137.36 180.981 137.105 181.062C137.377 181.143 137.479 181.364 137.479 181.683V182.146C137.479 182.278 137.483 182.401 137.539 182.503H137.203C137.165 182.418 137.148 182.341 137.148 182.141V181.675C137.148 181.338 136.991 181.233 136.715 181.233H136.481V182.503H136.149V179.528H136.812Z" fill="#1A2E35"/>
<path d="M138.881 180.845V181.143H138.154V182.201H139.047V182.503H137.823V179.528H139.047V179.831H138.154V180.845H138.881Z" fill="#1A2E35"/>
<path d="M140.639 180.242V180.323H140.325V180.225C140.325 179.957 140.223 179.8 139.984 179.8C139.747 179.8 139.645 179.957 139.645 180.221C139.645 180.888 140.643 180.952 140.643 181.789C140.643 182.239 140.427 182.533 139.972 182.533C139.517 182.533 139.305 182.239 139.305 181.789V181.619H139.615V181.806C139.615 182.074 139.725 182.231 139.963 182.231C140.202 182.231 140.312 182.074 140.312 181.806C140.312 181.143 139.318 181.079 139.318 180.242C139.318 179.783 139.53 179.499 139.976 179.499C140.427 179.499 140.639 179.792 140.639 180.242Z" fill="#1A2E35"/>
<path d="M142.22 180.242V180.323H141.905V180.225C141.905 179.957 141.803 179.8 141.565 179.8C141.327 179.8 141.226 179.957 141.226 180.221C141.226 180.888 142.224 180.952 142.224 181.789C142.224 182.239 142.007 182.533 141.553 182.533C141.098 182.533 140.885 182.239 140.885 181.789V181.619H141.195V181.806C141.195 182.074 141.306 182.231 141.544 182.231C141.782 182.231 141.893 182.074 141.893 181.806C141.893 181.143 140.898 181.079 140.898 180.242C140.898 179.783 141.111 179.499 141.557 179.499C142.007 179.499 142.22 179.792 142.22 180.242Z" fill="#1A2E35"/>
<path d="M108.955 182.201C109.193 182.201 109.308 182.053 109.308 181.78V180.251C109.308 179.979 109.193 179.831 108.95 179.831H108.593V182.201H108.955ZM108.959 179.529C109.422 179.529 109.634 179.809 109.634 180.268V181.768C109.634 182.222 109.422 182.503 108.959 182.503H108.262V179.529H108.959Z" fill="#1A2E35"/>
<path d="M111.002 180.845V181.143H110.276V182.201H111.169V182.503H109.945V179.528H111.169V179.831H110.276V180.845H111.002Z" fill="#1A2E35"/>
<path d="M111.852 181.619H112.514L112.179 179.902L111.852 181.619ZM111.809 181.904L111.694 182.503H111.389L111.958 179.528H112.438L113.008 182.503H112.676L112.561 181.904H111.809Z" fill="#1A2E35"/>
<path d="M113.959 182.201C114.197 182.201 114.312 182.053 114.312 181.78V180.251C114.312 179.979 114.197 179.831 113.955 179.831H113.598V182.201H113.959ZM113.964 179.529C114.426 179.529 114.638 179.809 114.638 180.268V181.768C114.638 182.222 114.426 182.503 113.964 182.503H113.266V179.529H113.964Z" fill="#1A2E35"/>
<path d="M114.949 182.503V179.528H115.28V182.201H116.13V182.503H114.949Z" fill="#1A2E35"/>
<path d="M116.711 182.503H116.38V179.528H116.711V182.503Z" fill="#1A2E35"/>
<path d="M117.344 182.503H117.047V179.528H117.468L118.156 181.679V179.528H118.449V182.503H118.105L117.344 180.098V182.503Z" fill="#1A2E35"/>
<path d="M119.847 180.845V181.143H119.12V182.201H120.013V182.503H118.789V179.528H120.013V179.831H119.12V180.845H119.847Z" fill="#1A2E35"/>
<path d="M89.411 182.927H95.6197" stroke="#1A2E35" stroke-width="1.33333" stroke-miterlimit="10" stroke-linecap="round" stroke-linejoin="round"/>
<path d="M70.7853 182.927H87.1759" stroke="#1A2E35" stroke-width="1.33333" stroke-miterlimit="10" stroke-linecap="round" stroke-linejoin="round"/>
<path d="M53.3875 182.927H68.3022" stroke="#1A2E35" stroke-width="1.33333" stroke-miterlimit="10" stroke-linecap="round" stroke-linejoin="round"/>
<path d="M80.2225 189.992H84.9699" stroke="#1A2E35" stroke-width="1.33333" stroke-miterlimit="10" stroke-linecap="round" stroke-linejoin="round"/>
<path d="M68.0536 189.992H76.2489" stroke="#1A2E35" stroke-width="1.33333" stroke-miterlimit="10" stroke-linecap="round" stroke-linejoin="round"/>
<path d="M62.0934 189.992H65.5701" stroke="#1A2E35" stroke-width="1.33333" stroke-miterlimit="10" stroke-linecap="round" stroke-linejoin="round"/>
<path d="M53.3875 189.992H60.1068" stroke="#1A2E35" stroke-width="1.33333" stroke-miterlimit="10" stroke-linecap="round" stroke-linejoin="round"/>
<path d="M150.783 188.672C150.783 189.29 150.534 189.846 150.132 190.248C149.727 190.649 149.169 190.9 148.556 190.9H125.168C123.936 190.9 122.935 189.903 122.935 188.672C122.935 188.053 123.186 187.496 123.592 187.095C123.993 186.694 124.55 186.443 125.168 186.443H148.556C149.788 186.443 150.783 187.44 150.783 188.672Z" fill="white"/>
<path d="M150.783 188.672C150.783 189.29 150.534 189.846 150.132 190.248C149.727 190.649 149.169 190.9 148.556 190.9H125.168C123.936 190.9 122.935 189.903 122.935 188.672C122.935 188.053 123.186 187.496 123.592 187.095C123.993 186.694 124.55 186.443 125.168 186.443H148.556C149.788 186.443 150.783 187.44 150.783 188.672Z" stroke="#1A2E35" stroke-width="1.33333" stroke-miterlimit="10" stroke-linecap="round" stroke-linejoin="round"/>
<path d="M127.391 186.443V190.899H125.168C123.936 190.899 122.936 189.903 122.936 188.672C122.936 188.053 123.186 187.496 123.592 187.095C123.993 186.694 124.549 186.443 125.168 186.443H127.391Z" fill="#5AE4A7"/>
<path d="M127.391 186.443V190.899H125.168C123.936 190.899 122.936 189.903 122.936 188.672C122.936 188.053 123.186 187.496 123.592 187.095C123.993 186.694 124.549 186.443 125.168 186.443H127.391Z" stroke="#1A2E35" stroke-width="1.33333" stroke-miterlimit="10" stroke-linecap="round" stroke-linejoin="round"/>
<path d="M118.506 190.901H109.278C108.046 190.901 107.048 189.903 107.048 188.671C107.048 187.44 108.046 186.442 109.278 186.442H118.506C119.737 186.442 120.736 187.44 120.736 188.671C120.736 189.903 119.737 190.901 118.506 190.901Z" fill="white"/>
<path d="M118.506 190.901H109.278C108.046 190.901 107.048 189.903 107.048 188.671C107.048 187.44 108.046 186.442 109.278 186.442H118.506C119.737 186.442 120.736 187.44 120.736 188.671C120.736 189.903 119.737 190.901 118.506 190.901Z" stroke="#1A2E35" stroke-width="1.33333" stroke-miterlimit="10" stroke-linecap="round" stroke-linejoin="round"/>
<path d="M200.947 113.81H163.648C162.416 113.81 161.418 112.812 161.418 111.58V101.039C161.418 99.8075 162.416 98.8092 163.648 98.8092H200.947C202.178 98.8092 203.177 99.8075 203.177 101.039V111.58C203.177 112.812 202.178 113.81 200.947 113.81Z" fill="#5AE4A7"/>
<path d="M200.947 113.81H163.648C162.416 113.81 161.418 112.812 161.418 111.58V101.039C161.418 99.8075 162.416 98.8092 163.648 98.8092H200.947C202.178 98.8092 203.177 99.8075 203.177 101.039V111.58C203.177 112.812 202.178 113.81 200.947 113.81Z" stroke="#1A2E35" stroke-width="1.33333" stroke-miterlimit="10" stroke-linecap="round" stroke-linejoin="round"/>
<path d="M169.52 108.056H171.069L170.285 104.044L169.52 108.056ZM169.421 108.721L169.152 110.122H168.437L169.768 103.169H170.89L172.221 110.122H171.447L171.179 108.721H169.421Z" fill="white"/>
<path d="M174.446 109.417C175.003 109.417 175.27 109.069 175.27 108.433V104.858C175.27 104.222 175.003 103.875 174.436 103.875H173.602V109.417H174.446ZM174.456 103.17C175.538 103.17 176.035 103.825 176.035 104.898V108.404C176.035 109.466 175.538 110.122 174.456 110.122H172.827V103.17H174.456Z" fill="white"/>
<path d="M178.379 109.417C178.936 109.417 179.203 109.069 179.203 108.433V104.858C179.203 104.222 178.936 103.875 178.369 103.875H177.535V109.417H178.379ZM178.389 103.17C179.472 103.17 179.969 103.825 179.969 104.898V108.404C179.969 109.466 179.472 110.122 178.389 110.122H176.76V103.17H178.389Z" fill="white"/>
<path d="M183.246 110.122V103.875H181.965V103.17H185.302V103.875H184.021V110.122H183.246Z" fill="white"/>
<path d="M186.345 108.056H187.894L187.11 104.044L186.345 108.056ZM186.246 108.721L185.978 110.122H185.262L186.593 103.169H187.715L189.046 110.122H188.272L188.004 108.721H186.246Z" fill="white"/>
<path d="M192.662 104.838V105.026H191.927V104.799C191.927 104.173 191.689 103.805 191.133 103.805C190.577 103.805 190.338 104.173 190.338 104.789C190.338 106.348 192.672 106.497 192.672 108.453C192.672 109.506 192.165 110.192 191.103 110.192C190.04 110.192 189.544 109.506 189.544 108.453V108.056H190.269V108.493C190.269 109.119 190.527 109.486 191.083 109.486C191.639 109.486 191.897 109.119 191.897 108.493C191.897 106.944 189.574 106.795 189.574 104.838C189.574 103.766 190.07 103.1 191.113 103.1C192.165 103.1 192.662 103.786 192.662 104.838Z" fill="white"/>
<path d="M194.53 107.103L194.123 107.788V110.122H193.348V103.17H194.123V106.526L195.97 103.17H196.754L194.996 106.338L196.814 110.122H196.019L194.53 107.103Z" fill="white"/>
<path d="M167.384 39.0334C167.384 39.0334 161.897 41.4476 159.044 42.2161C156.191 42.984 153.118 44.1914 152.349 46.6052C151.582 49.0199 148.154 58.298 147.934 60.2734C147.715 62.2487 151.252 65.8099 151.252 65.8099H196.904C196.904 65.8099 197.751 54.2601 195.885 50.3094C194.02 46.3588 188.344 42.984 186.698 42.3256C185.052 41.6671 180.772 39.5823 179.017 39.2528C177.261 38.9239 169.359 38.2654 167.384 39.0334Z" fill="white"/>
<path d="M167.384 39.0334C167.384 39.0334 161.897 41.4476 159.044 42.2161C156.191 42.984 153.118 44.1914 152.349 46.6052C151.582 49.0199 148.154 58.298 147.934 60.2734C147.715 62.2487 151.252 65.8099 151.252 65.8099H196.904C196.904 65.8099 197.751 54.2601 195.885 50.3094C194.02 46.3588 188.344 42.984 186.698 42.3256C185.052 41.6671 180.772 39.5823 179.017 39.2528C177.261 38.9239 169.359 38.2654 167.384 39.0334Z" stroke="#1A2E35" stroke-width="1.33333" stroke-miterlimit="10" stroke-linecap="round" stroke-linejoin="round"/>
<path d="M152.252 55.0247C152.252 55.0247 154.923 54.0807 157.444 55.9687Z" fill="white"/>
<path d="M152.252 55.0247C152.252 55.0247 154.923 54.0807 157.444 55.9687" stroke="#1A2E35" stroke-width="1.33333" stroke-miterlimit="10" stroke-linecap="round" stroke-linejoin="round"/>
<path d="M155.91 55.9687C155.91 55.9687 157.444 55.9687 158.742 57.1487Z" fill="white"/>
<path d="M155.91 55.9687C155.91 55.9687 157.444 55.9687 158.742 57.1487" stroke="#1A2E35" stroke-width="1.33333" stroke-miterlimit="10" stroke-linecap="round" stroke-linejoin="round"/>
<path d="M160.571 50.6988C160.942 51.3223 161.207 52.1327 161.119 53.1366C160.881 55.8719 159.964 57.8571 159.964 57.8571" stroke="#1A2E35" stroke-width="1.33333" stroke-miterlimit="10" stroke-linecap="round" stroke-linejoin="round"/>
<path d="M158.979 49.1023C158.979 49.1023 159.562 49.4214 160.123 50.076" stroke="#1A2E35" stroke-width="1.33333" stroke-miterlimit="10" stroke-linecap="round" stroke-linejoin="round"/>
<path d="M161.779 50.5656C161.779 50.5656 162.657 53.2215 162.162 55.3715" stroke="#1A2E35" stroke-width="1.33333" stroke-miterlimit="10" stroke-linecap="round" stroke-linejoin="round"/>
<path d="M185.491 52.2021C185.491 52.2021 184.394 56.0432 184.503 57.2501" stroke="#1A2E35" stroke-width="1.33333" stroke-miterlimit="10" stroke-linecap="round" stroke-linejoin="round"/>
<path d="M168.036 48.4514L170.051 52.0774L171.763 57.6163L174.18 52.581L176.497 48.552L171.964 47.8473L168.036 48.4514Z" fill="#5AE4A7"/>
<path d="M168.036 48.4514L170.051 52.0774L171.763 57.6163L174.18 52.581L176.497 48.552L171.964 47.8473L168.036 48.4514Z" stroke="#1A2E35" stroke-width="1.33333" stroke-miterlimit="10" stroke-linecap="round" stroke-linejoin="round"/>
<path d="M170.051 52.0772L174.18 52.5808" stroke="#1A2E35" stroke-width="1.33333" stroke-miterlimit="10" stroke-linecap="round" stroke-linejoin="round"/>
<path d="M167.823 41.9965C167.823 41.9965 167.055 42.9839 166.616 44.3008C166.177 45.6176 165.409 50.1172 165.409 50.1172C165.409 50.1172 169.689 49.8977 170.786 49.8977C171.884 49.8977 173.639 50.0072 173.969 50.0072C174.298 50.0072 179.236 52.9705 179.236 52.9705C179.236 52.9705 180.114 47.9224 179.126 45.0692C178.139 42.2159 171.445 38.8138 167.823 41.9965Z" fill="white"/>
<path d="M167.823 41.9965C167.823 41.9965 167.055 42.9839 166.616 44.3008C166.177 45.6176 165.409 50.1172 165.409 50.1172C165.409 50.1172 169.689 49.8977 170.786 49.8977C171.884 49.8977 173.639 50.0072 173.969 50.0072C174.298 50.0072 179.236 52.9705 179.236 52.9705C179.236 52.9705 180.114 47.9224 179.126 45.0692C178.139 42.2159 171.445 38.8138 167.823 41.9965Z" stroke="#1A2E35" stroke-width="1.33333" stroke-miterlimit="10" stroke-linecap="round" stroke-linejoin="round"/>
<path d="M170.128 48.2231L171.864 51.8759L175.395 47.8936C175.395 47.8936 172.103 48.8815 170.128 48.2231Z" fill="white"/>
<path d="M170.128 48.2231L171.864 51.8759L175.395 47.8936C175.395 47.8936 172.103 48.8815 170.128 48.2231Z" stroke="#1A2E35" stroke-width="1.33333" stroke-miterlimit="10" stroke-linecap="round" stroke-linejoin="round"/>
<path d="M184.841 89.4175L183.15 92.5497C183.15 92.5497 181.054 92.9858 180.834 93.4248C180.614 93.8638 179.517 95.7296 178.969 96.278C178.42 96.827 177.322 97.5949 178.31 98.0339C179.298 98.4728 181.054 96.4975 181.054 96.4975L182.041 95.9486C182.041 95.9486 182.188 97.1947 181.721 98.5389C181.076 100.394 180.33 102.652 180.427 102.887C180.912 104.067 181.676 103.234 181.676 103.234L183.15 99.7926L183.41 99.6274C183.41 99.6274 183.112 103.559 183.111 103.577C183.057 104.297 183.693 105.14 184.247 104.402L185.564 100.232V103.982C185.564 104.559 186.1 105.038 186.656 104.884C186.696 104.874 186.735 104.859 186.772 104.841C187.211 104.621 187.363 100.043 187.363 100.043L188.281 103.359C188.38 103.717 188.768 103.949 189.112 103.806C189.199 103.771 189.268 103.716 189.295 103.634C189.405 103.304 189.076 98.0367 189.076 98.0367L188.857 92.5497L189.185 90.6844L184.841 89.4175Z" fill="white"/>
<path d="M184.841 89.4175L183.15 92.5497C183.15 92.5497 181.054 92.9858 180.834 93.4248C180.614 93.8638 179.517 95.7296 178.969 96.278C178.42 96.827 177.322 97.5949 178.31 98.0339C179.298 98.4728 181.054 96.4975 181.054 96.4975L182.041 95.9486C182.041 95.9486 182.188 97.1947 181.721 98.5389C181.076 100.394 180.33 102.652 180.427 102.887C180.912 104.067 181.676 103.234 181.676 103.234L183.15 99.7926L183.41 99.6274C183.41 99.6274 183.112 103.559 183.111 103.577C183.057 104.297 183.693 105.14 184.247 104.402L185.564 100.232V103.982C185.564 104.559 186.1 105.038 186.656 104.884C186.696 104.874 186.735 104.859 186.772 104.841C187.211 104.621 187.363 100.043 187.363 100.043L188.281 103.359C188.38 103.717 188.768 103.949 189.112 103.806C189.199 103.771 189.268 103.716 189.295 103.634C189.405 103.304 189.076 98.0367 189.076 98.0367L188.857 92.5497L189.185 90.6844L184.841 89.4175Z" stroke="#1A2E35" stroke-width="1.33333" stroke-miterlimit="10" stroke-linecap="round" stroke-linejoin="round"/>
<path d="M186.918 52.6411C186.918 52.6411 185.162 56.3723 185.381 57.6892C185.601 59.0061 190.715 71.5952 190.715 71.5952L184.357 89.9159L189.406 91.1233C189.406 91.1233 198.03 78.3033 198.945 75.5454C199.713 73.2321 199.604 71.3753 199.604 70.7168C199.604 70.0584 197.563 55.0554 196.355 52.4217C195.148 49.7879 193.612 48.1416 193.612 48.1416" fill="white"/>
<path d="M186.918 52.6411C186.918 52.6411 185.162 56.3723 185.381 57.6892C185.601 59.0061 190.715 71.5952 190.715 71.5952L184.357 89.9159L189.406 91.1233C189.406 91.1233 198.03 78.3033 198.945 75.5454C199.713 73.2321 199.604 71.3753 199.604 70.7168C199.604 70.0584 197.563 55.0554 196.355 52.4217C195.148 49.7879 193.612 48.1416 193.612 48.1416" stroke="#1A2E35" stroke-width="1.33333" stroke-miterlimit="10" stroke-linecap="round" stroke-linejoin="round"/>
<path d="M191.483 71.1561C191.483 71.1561 193.458 68.4128 194.665 66.6565" stroke="#1A2E35" stroke-width="1.33333" stroke-miterlimit="10" stroke-linecap="round" stroke-linejoin="round"/>
<path d="M194.336 65.6691L191.922 68.7418" stroke="#1A2E35" stroke-width="1.33333" stroke-miterlimit="10" stroke-linecap="round" stroke-linejoin="round"/>
<path d="M184.796 88.16L190.174 89.4769Z" fill="white"/>
<path d="M184.796 88.16L190.174 89.4769" stroke="#1A2E35" stroke-width="1.33333" stroke-miterlimit="10" stroke-linecap="round" stroke-linejoin="round"/>
<path d="M149.648 57.1542C149.277 57.4695 148.783 57.9637 148.289 58.6769C147.302 60.1037 147.85 63.176 148.509 64.1639C149.167 65.1513 151.801 65.8097 151.801 65.8097H173.11L173.538 62.2079C173.084 62.1999 172.762 62.1885 172.762 62.1885C172.762 62.1885 168.92 60.9812 166.177 60.2132C163.433 59.4453 158.033 57.1646 156.41 56.811C154.91 56.4844 153.557 56.5429 152.631 56.6657" fill="white"/>
<path d="M149.648 57.1542C149.277 57.4695 148.783 57.9637 148.289 58.6769C147.302 60.1037 147.85 63.176 148.509 64.1639C149.167 65.1513 151.801 65.8097 151.801 65.8097H173.11L173.538 62.2079C173.084 62.1999 172.762 62.1885 172.762 62.1885C172.762 62.1885 168.92 60.9812 166.177 60.2132C163.433 59.4453 158.033 57.1646 156.41 56.811C154.91 56.4844 153.557 56.5429 152.631 56.6657" stroke="#1A2E35" stroke-width="1.33333" stroke-miterlimit="10" stroke-linecap="round" stroke-linejoin="round"/>
<path d="M176.706 65.8099L176.597 65.6735C176.597 65.6735 178.813 65.4724 179.115 65.3714C179.417 65.2709 180.324 65.1704 180.324 65.1704L183.522 65.8099H186.698L186.369 65.261L183.516 63.5056L181.069 62.2817C178.524 61.0097 175.468 62.5791 172.762 62.1887C172.762 62.1887 173.21 62.2534 173.273 62.2539L172.846 65.8099H176.706Z" fill="white"/>
<path d="M176.706 65.8099L176.597 65.6735C176.597 65.6735 178.813 65.4724 179.115 65.3714C179.417 65.2709 180.324 65.1704 180.324 65.1704L183.522 65.8099H186.698L186.369 65.261L183.516 63.5056L181.069 62.2817C178.524 61.0097 175.468 62.5791 172.762 62.1887C172.762 62.1887 173.21 62.2534 173.273 62.2539L172.846 65.8099H176.706Z" stroke="#1A2E35" stroke-width="1.33333" stroke-miterlimit="10" stroke-linecap="round" stroke-linejoin="round"/>
<path d="M181.129 63.3573L186.165 65.5728Z" fill="white"/>
<path d="M181.129 63.3573L186.165 65.5728" stroke="#1A2E35" stroke-width="1.33333" stroke-miterlimit="10" stroke-linecap="round" stroke-linejoin="round"/>
<path d="M171.36 62.048L171.225 65.7003" stroke="#1A2E35" stroke-width="1.33333" stroke-miterlimit="10" stroke-linecap="round" stroke-linejoin="round"/>
<path d="M167.165 35.7414C167.165 35.7414 165.738 33.8755 165.628 31.5712C165.519 29.2665 166.616 28.828 166.616 28.828C166.616 28.828 164.97 26.1937 168.591 24.6579C172.213 23.1215 177.7 22.2431 180.773 23.8894C183.845 25.5353 184.943 29.3764 184.833 32.0102C184.723 34.644 183.186 37.7167 183.186 37.7167L180.773 40.6794C180.773 40.6794 179.236 41.2284 178.907 40.5699C178.578 39.9115 176.712 37.9362 175.724 37.9362C174.737 37.9362 172.213 37.9362 170.896 37.3872C169.579 36.8388 167.165 35.7414 167.165 35.7414Z" fill="#1A2E35"/>
<path d="M167.165 35.7414C167.165 35.7414 165.738 33.8755 165.628 31.5712C165.519 29.2665 166.616 28.828 166.616 28.828C166.616 28.828 164.97 26.1937 168.591 24.6579C172.213 23.1215 177.7 22.2431 180.773 23.8894C183.845 25.5353 184.943 29.3764 184.833 32.0102C184.723 34.644 183.186 37.7167 183.186 37.7167L180.773 40.6794C180.773 40.6794 179.236 41.2284 178.907 40.5699C178.578 39.9115 176.712 37.9362 175.724 37.9362C174.737 37.9362 172.213 37.9362 170.896 37.3872C169.579 36.8388 167.165 35.7414 167.165 35.7414Z" stroke="#1A2E35" stroke-width="1.33333" stroke-miterlimit="10" stroke-linecap="round" stroke-linejoin="round"/>
<path d="M166.945 32.4491C166.945 32.4491 166.836 39.1435 166.836 40.5699C166.836 41.9967 166.836 43.4231 167.494 44.8495C168.153 46.2763 168.701 50.117 171.664 50.3365C174.627 50.556 178.907 47.4832 179.675 45.8374C180.443 44.191 180.882 41.3383 180.882 41.3383C180.882 41.3383 183.516 39.582 183.955 37.4971C184.394 35.4118 183.516 34.4244 182.967 35.4118C182.418 36.3997 181.65 38.9235 181.321 39.1435C180.992 39.3625 180.553 37.8266 180.553 37.8266C180.553 37.8266 178.907 38.485 178.687 37.8266C178.468 37.1682 179.565 33.9855 179.565 33.9855C179.565 33.9855 175.944 34.9734 175.176 34.9734C174.408 34.9734 172.761 34.4244 172.761 34.4244L175.944 36.3997C175.944 36.3997 173.749 37.3872 171.554 36.7287C169.359 36.0703 167.713 32.4491 167.713 32.4491H166.945Z" fill="white"/>
<path d="M166.945 32.4491C166.945 32.4491 166.836 39.1435 166.836 40.5699C166.836 41.9967 166.836 43.4231 167.494 44.8495C168.153 46.2763 168.701 50.117 171.664 50.3365C174.627 50.556 178.907 47.4832 179.675 45.8374C180.443 44.191 180.882 41.3383 180.882 41.3383C180.882 41.3383 183.516 39.582 183.955 37.4971C184.394 35.4118 183.516 34.4244 182.967 35.4118C182.418 36.3997 181.65 38.9235 181.321 39.1435C180.992 39.3625 180.553 37.8266 180.553 37.8266C180.553 37.8266 178.907 38.485 178.687 37.8266C178.468 37.1682 179.565 33.9855 179.565 33.9855C179.565 33.9855 175.944 34.9734 175.176 34.9734C174.408 34.9734 172.761 34.4244 172.761 34.4244L175.944 36.3997C175.944 36.3997 173.749 37.3872 171.554 36.7287C169.359 36.0703 167.713 32.4491 167.713 32.4491H166.945Z" stroke="#1A2E35" stroke-width="1.33333" stroke-miterlimit="10" stroke-linecap="round" stroke-linejoin="round"/>
<path d="M170.237 39.4724V40.7893C170.237 40.7893 168.811 44.5205 169.03 45.1789C169.249 45.8373 171.225 45.5084 171.664 45.2884" fill="white"/>
<path d="M170.237 39.4724V40.7893C170.237 40.7893 168.811 44.5205 169.03 45.1789C169.249 45.8373 171.225 45.5084 171.664 45.2884" stroke="#1A2E35" stroke-width="1.33333" stroke-miterlimit="10" stroke-linecap="round" stroke-linejoin="round"/>
<path d="M170.018 46.2763C170.018 46.2763 172.103 47.5932 174.298 46.3858Z" fill="white"/>
<path d="M170.018 46.2763C170.018 46.2763 172.103 47.5932 174.298 46.3858" stroke="#1A2E35" stroke-width="1.33333" stroke-miterlimit="10" stroke-linecap="round" stroke-linejoin="round"/>
<path d="M173.2 41.338C173.2 41.338 174.846 42.6549 177.041 41.887Z" fill="white"/>
<path d="M173.2 41.338C173.2 41.338 174.846 42.6549 177.041 41.887" stroke="#1A2E35" stroke-width="1.33333" stroke-miterlimit="10" stroke-linecap="round" stroke-linejoin="round"/>
<path d="M173.31 39.3627C173.31 39.3627 175.724 38.4848 177.261 40.1306Z" fill="white"/>
<path d="M173.31 39.3627C173.31 39.3627 175.724 38.4848 177.261 40.1306" stroke="#1A2E35" stroke-width="1.33333" stroke-miterlimit="10" stroke-linecap="round" stroke-linejoin="round"/>
<path d="M167.713 39.5821C167.713 39.5821 168.153 40.57 170.238 40.7895Z" fill="white"/>
<path d="M167.713 39.5821C167.713 39.5821 168.153 40.57 170.238 40.7895" stroke="#1A2E35" stroke-width="1.33333" stroke-miterlimit="10" stroke-linecap="round" stroke-linejoin="round"/>
<path d="M169.799 38.4849C169.799 38.4849 169.03 37.168 167.933 37.6069Z" fill="white"/>
<path d="M169.799 38.4849C169.799 38.4849 169.03 37.168 167.933 37.6069" stroke="#1A2E35" stroke-width="1.33333" stroke-miterlimit="10" stroke-linecap="round" stroke-linejoin="round"/>
<path d="M171.763 57.6165L168.641 85.5146L172.669 91.1545L176.395 85.5146L171.763 57.6165Z" fill="#5AE4A7"/>
<path d="M171.763 57.6165L168.641 85.5146L172.669 91.1545L176.395 85.5146L171.763 57.6165Z" stroke="#1A2E35" stroke-width="1.33333" stroke-miterlimit="10" stroke-linecap="round" stroke-linejoin="round"/>
<path d="M50.6963 125.58V130.171C50.6963 130.171 97.698 128.249 154.732 127.297L50.6963 125.58Z" fill="#1A2E35"/>
<path d="M50.6963 125.58V130.171C50.6963 130.171 97.698 128.249 154.732 127.297L50.6963 125.58Z" stroke="#1A2E35" stroke-width="1.33333" stroke-miterlimit="10" stroke-linecap="round" stroke-linejoin="round"/>
<path d="M154.732 127.297H48.1044V98.8093H154.732V127.297Z" fill="white" stroke="#1A2E35" stroke-width="1.33333" stroke-miterlimit="10" stroke-linecap="round" stroke-linejoin="round"/>
<path d="M130.245 107.655C130.491 107.655 130.61 107.54 130.61 107.256V106.86C130.61 106.588 130.512 106.452 130.27 106.452H129.951V107.655H130.245ZM130.27 106.151C130.737 106.151 130.937 106.427 130.937 106.878V107.234C130.937 107.706 130.716 107.952 130.245 107.952H129.951V109.125H129.62V106.151H130.27Z" fill="#1A2E35"/>
<path d="M131.774 107.553C132.037 107.553 132.195 107.468 132.195 107.145V106.86C132.195 106.592 132.097 106.452 131.85 106.452H131.528V107.553H131.774ZM131.859 106.151C132.326 106.151 132.522 106.388 132.522 106.831V107.073C132.522 107.4 132.407 107.604 132.152 107.685C132.424 107.765 132.526 107.986 132.526 108.305V108.768C132.526 108.9 132.53 109.023 132.585 109.125H132.25C132.212 109.04 132.195 108.964 132.195 108.764V108.297C132.195 107.961 132.037 107.854 131.761 107.854H131.528V109.125H131.196V106.151H131.859Z" fill="#1A2E35"/>
<path d="M133.171 108.424C133.171 108.696 133.286 108.853 133.524 108.853C133.766 108.853 133.877 108.696 133.877 108.424V106.852C133.877 106.584 133.766 106.423 133.524 106.423C133.286 106.423 133.171 106.584 133.171 106.852V108.424ZM132.844 106.869C132.844 106.414 133.069 106.121 133.524 106.121C133.983 106.121 134.208 106.414 134.208 106.869V108.407C134.208 108.857 133.983 109.155 133.524 109.155C133.069 109.155 132.844 108.857 132.844 108.407V106.869Z" fill="#1A2E35"/>
<path d="M135.835 106.869V107.124H135.52V106.852C135.52 106.584 135.414 106.423 135.172 106.423C134.934 106.423 134.823 106.584 134.823 106.852V108.424C134.823 108.692 134.934 108.853 135.172 108.853C135.414 108.853 135.52 108.692 135.52 108.424V107.829H135.215V107.532H135.835V108.407C135.835 108.857 135.622 109.155 135.164 109.155C134.709 109.155 134.496 108.857 134.496 108.407V106.869C134.496 106.418 134.709 106.121 135.164 106.121C135.622 106.121 135.835 106.418 135.835 106.869Z" fill="#1A2E35"/>
<path d="M136.727 107.553C136.991 107.553 137.148 107.468 137.148 107.145V106.86C137.148 106.592 137.05 106.452 136.803 106.452H136.481V107.553H136.727ZM136.812 106.151C137.279 106.151 137.475 106.388 137.475 106.831V107.073C137.475 107.4 137.36 107.604 137.105 107.685C137.377 107.765 137.479 107.986 137.479 108.305V108.768C137.479 108.9 137.483 109.023 137.539 109.125H137.203C137.165 109.04 137.148 108.964 137.148 108.764V108.297C137.148 107.961 136.991 107.854 136.715 107.854H136.481V109.125H136.149V106.151H136.812Z" fill="#1A2E35"/>
<path d="M138.881 107.468V107.765H138.154V108.823H139.047V109.125H137.823V106.15H139.047V106.453H138.154V107.468H138.881Z" fill="#1A2E35"/>
<path d="M140.639 106.864V106.945H140.325V106.847C140.325 106.58 140.223 106.423 139.985 106.423C139.747 106.423 139.645 106.58 139.645 106.843C139.645 107.511 140.644 107.574 140.644 108.411C140.644 108.862 140.427 109.155 139.972 109.155C139.517 109.155 139.305 108.862 139.305 108.411V108.241H139.615V108.428C139.615 108.696 139.725 108.853 139.963 108.853C140.202 108.853 140.312 108.696 140.312 108.428C140.312 107.766 139.318 107.701 139.318 106.864C139.318 106.406 139.53 106.121 139.977 106.121C140.427 106.121 140.639 106.414 140.639 106.864Z" fill="#1A2E35"/>
<path d="M142.22 106.864V106.945H141.905V106.847C141.905 106.58 141.803 106.423 141.565 106.423C141.327 106.423 141.226 106.58 141.226 106.843C141.226 107.511 142.224 107.574 142.224 108.411C142.224 108.862 142.007 109.155 141.553 109.155C141.098 109.155 140.885 108.862 140.885 108.411V108.241H141.195V108.428C141.195 108.696 141.306 108.853 141.544 108.853C141.782 108.853 141.893 108.696 141.893 108.428C141.893 107.766 140.898 107.701 140.898 106.864C140.898 106.406 141.111 106.121 141.557 106.121C142.007 106.121 142.22 106.414 142.22 106.864Z" fill="#1A2E35"/>
<path d="M108.955 108.823C109.193 108.823 109.308 108.675 109.308 108.403V106.873C109.308 106.601 109.193 106.453 108.95 106.453H108.594V108.823H108.955ZM108.959 106.151C109.422 106.151 109.634 106.431 109.634 106.89V108.39C109.634 108.845 109.422 109.125 108.959 109.125H108.262V106.151H108.959Z" fill="#1A2E35"/>
<path d="M111.003 107.468V107.765H110.276V108.823H111.169V109.125H109.945V106.15H111.169V106.453H110.276V107.468H111.003Z" fill="#1A2E35"/>
<path d="M111.852 108.241H112.514L112.179 106.525L111.852 108.241ZM111.809 108.526L111.694 109.125H111.389L111.958 106.151H112.438L113.008 109.125H112.676L112.561 108.526H111.809Z" fill="#1A2E35"/>
<path d="M113.959 108.823C114.197 108.823 114.312 108.675 114.312 108.403V106.873C114.312 106.601 114.197 106.453 113.955 106.453H113.598V108.823H113.959ZM113.964 106.151C114.426 106.151 114.638 106.431 114.638 106.89V108.39C114.638 108.845 114.426 109.125 113.964 109.125H113.266V106.151H113.964Z" fill="#1A2E35"/>
<path d="M114.949 109.125V106.151H115.28V108.824H116.13V109.125H114.949Z" fill="#1A2E35"/>
<path d="M116.711 109.125H116.38V106.151H116.711V109.125Z" fill="#1A2E35"/>
<path d="M117.344 109.125H117.047V106.151H117.468L118.156 108.301V106.151H118.449V109.125H118.105L117.344 106.72V109.125Z" fill="#1A2E35"/>
<path d="M119.847 107.468V107.765H119.12V108.823H120.013V109.125H118.789V106.15H120.013V106.453H119.12V107.468H119.847Z" fill="#1A2E35"/>
<path d="M89.4111 109.549H95.6198" stroke="#1A2E35" stroke-width="1.33333" stroke-miterlimit="10" stroke-linecap="round" stroke-linejoin="round"/>
<path d="M70.7853 109.549H87.1759" stroke="#1A2E35" stroke-width="1.33333" stroke-miterlimit="10" stroke-linecap="round" stroke-linejoin="round"/>
<path d="M53.3875 109.549H68.3022" stroke="#1A2E35" stroke-width="1.33333" stroke-miterlimit="10" stroke-linecap="round" stroke-linejoin="round"/>
<path d="M80.2225 116.614H84.9699" stroke="#1A2E35" stroke-width="1.33333" stroke-miterlimit="10" stroke-linecap="round" stroke-linejoin="round"/>
<path d="M68.0536 116.614H76.2489" stroke="#1A2E35" stroke-width="1.33333" stroke-miterlimit="10" stroke-linecap="round" stroke-linejoin="round"/>
<path d="M62.0934 116.614H65.5701" stroke="#1A2E35" stroke-width="1.33333" stroke-miterlimit="10" stroke-linecap="round" stroke-linejoin="round"/>
<path d="M53.3875 116.614H60.1068" stroke="#1A2E35" stroke-width="1.33333" stroke-miterlimit="10" stroke-linecap="round" stroke-linejoin="round"/>
<path d="M150.784 115.294C150.784 115.913 150.534 116.47 150.132 116.871C149.727 117.272 149.169 117.522 148.556 117.522H125.168C123.936 117.522 122.936 116.526 122.936 115.294C122.936 114.676 123.186 114.119 123.592 113.718C123.993 113.312 124.55 113.062 125.168 113.062H148.556C149.788 113.062 150.784 114.062 150.784 115.294Z" fill="white"/>
<path d="M150.784 115.294C150.784 115.913 150.534 116.47 150.132 116.871C149.727 117.272 149.169 117.522 148.556 117.522H125.168C123.936 117.522 122.936 116.526 122.936 115.294C122.936 114.676 123.186 114.119 123.592 113.718C123.993 113.312 124.55 113.062 125.168 113.062H148.556C149.788 113.062 150.784 114.062 150.784 115.294Z" stroke="#1A2E35" stroke-width="1.33333" stroke-miterlimit="10" stroke-linecap="round" stroke-linejoin="round"/>
<path d="M118.506 117.523H109.278C108.046 117.523 107.048 116.525 107.048 115.293C107.048 114.062 108.046 113.063 109.278 113.063H118.506C119.737 113.063 120.736 114.062 120.736 115.293C120.736 116.525 119.737 117.523 118.506 117.523Z" fill="white"/>
<path d="M118.506 117.523H109.278C108.046 117.523 107.048 116.525 107.048 115.293C107.048 114.062 108.046 113.063 109.278 113.063H118.506C119.737 113.063 120.736 114.062 120.736 115.293C120.736 116.525 119.737 117.523 118.506 117.523Z" stroke="#1A2E35" stroke-width="1.33333" stroke-miterlimit="10" stroke-linecap="round" stroke-linejoin="round"/>
<path d="M57.5063 131.955C57.5063 131.955 59.0838 127.854 59.3995 127.433C59.7148 127.012 60.2406 125.961 61.187 125.961C62.1338 125.961 63.816 126.066 64.5524 125.75C65.2882 125.435 66.235 125.435 66.0245 126.066C65.8145 126.697 64.5524 126.908 64.5524 126.908L70.021 127.328C70.021 127.328 68.4431 128.8 67.7072 129.116C66.9709 129.431 65.3935 129.747 65.3935 129.747C65.3935 129.747 64.1318 130.588 63.2902 130.799C62.4491 131.009 61.187 131.114 61.187 131.114L60.0306 133.217L57.5063 131.955Z" fill="white"/>
<path d="M57.5063 131.955C57.5063 131.955 59.0838 127.854 59.3995 127.433C59.7148 127.012 60.2406 125.961 61.187 125.961C62.1338 125.961 63.816 126.066 64.5524 125.75C65.2882 125.435 66.235 125.435 66.0245 126.066C65.8145 126.697 64.5524 126.908 64.5524 126.908L70.021 127.328C70.021 127.328 68.4431 128.8 67.7072 129.116C66.9709 129.431 65.3935 129.747 65.3935 129.747C65.3935 129.747 64.1318 130.588 63.2902 130.799C62.4491 131.009 61.187 131.114 61.187 131.114L60.0306 133.217L57.5063 131.955Z" stroke="#1A2E35" stroke-width="1.33333" stroke-miterlimit="10" stroke-linecap="round" stroke-linejoin="round"/>
<path d="M64.5523 126.907L62.1338 127.538" stroke="#1A2E35" stroke-width="1.33333" stroke-miterlimit="10" stroke-linecap="round" stroke-linejoin="round"/>
<path d="M44.4664 113.762L42.6785 116.812L43.7301 119.23L46.6749 117.022L48.1471 115.971V109.661L44.4664 113.762Z" fill="white"/>
<path d="M44.4664 113.762L42.6785 116.812L43.7301 119.23L46.6749 117.022L48.1471 115.971V109.661L44.4664 113.762Z" stroke="#1A2E35" stroke-width="1.33333" stroke-miterlimit="10" stroke-linecap="round" stroke-linejoin="round"/>
<path d="M44.0457 115.445C44.0457 115.445 44.8872 111.133 45.3078 110.607C45.7283 110.081 47.411 108.82 47.9368 108.714C48.4626 108.609 49.1985 108.925 48.7779 109.555C48.3574 110.186 46.9905 111.133 46.9905 111.133C46.9905 111.133 47.7263 113.236 47.2005 114.393C46.6747 115.55 45.5183 116.076 45.5183 116.076" fill="white"/>
<path d="M44.0457 115.445C44.0457 115.445 44.8872 111.133 45.3078 110.607C45.7283 110.081 47.411 108.82 47.9368 108.714C48.4626 108.609 49.1985 108.925 48.7779 109.555C48.3574 110.186 46.9905 111.133 46.9905 111.133C46.9905 111.133 47.7263 113.236 47.2005 114.393C46.6747 115.55 45.5183 116.076 45.5183 116.076" stroke="#1A2E35" stroke-width="1.33333" stroke-miterlimit="10" stroke-linecap="round" stroke-linejoin="round"/>
<path d="M42.7838 115.97L44.5718 120.493L35.4225 127.433L33.4241 120.282L42.7838 115.97Z" fill="#5AE4A7"/>
<path d="M42.7838 115.97L44.5718 120.493L35.4225 127.433L33.4241 120.282L42.7838 115.97Z" stroke="#1A2E35" stroke-width="1.33333" stroke-miterlimit="10" stroke-linecap="round" stroke-linejoin="round"/>
<path d="M38.6176 191.826L38.9716 196.31C38.9716 196.31 36.6116 201.266 36.8476 205.632C37.0836 209.998 37.5556 222.624 37.5556 223.332C37.5556 224.04 36.3756 224.866 37.2016 227.816C37.431 228.635 39.4436 228.052 41.4496 229.35C43.4556 230.648 45.9336 231.474 47.4676 231.474C49.0016 231.474 49.8276 231.474 49.8276 230.766C49.8276 230.058 47.5856 229.114 46.6416 228.17C45.6976 227.226 42.7476 223.332 42.5116 222.86C42.2756 222.388 43.3376 215.426 44.0456 212.712C44.7536 209.998 46.7596 203.508 47.5856 198.906C48.4116 194.304 48.7656 190.528 48.7656 190.528L38.6176 191.826Z" fill="white"/>
<path d="M38.6176 191.826L38.9716 196.31C38.9716 196.31 36.6116 201.266 36.8476 205.632C37.0836 209.998 37.5556 222.624 37.5556 223.332C37.5556 224.04 36.3756 224.866 37.2016 227.816C37.431 228.635 39.4436 228.052 41.4496 229.35C43.4556 230.648 45.9336 231.474 47.4676 231.474C49.0016 231.474 49.8276 231.474 49.8276 230.766C49.8276 230.058 47.5856 229.114 46.6416 228.17C45.6976 227.226 42.7476 223.332 42.5116 222.86C42.2756 222.388 43.3376 215.426 44.0456 212.712C44.7536 209.998 46.7596 203.508 47.5856 198.906C48.4116 194.304 48.7656 190.528 48.7656 190.528L38.6176 191.826Z" stroke="#1A2E35" stroke-width="1.33333" stroke-miterlimit="10" stroke-linecap="round" stroke-linejoin="round"/>
<path d="M37.2017 227.816L37.4377 231.002H39.0897L39.7977 228.406C39.7977 228.406 37.7917 227.698 37.2017 227.816Z" fill="#1A2E35"/>
<path d="M37.2017 227.816L37.4377 231.002H39.0897L39.7977 228.406C39.7977 228.406 37.7917 227.698 37.2017 227.816Z" stroke="#1A2E35" stroke-width="1.33333" stroke-miterlimit="10" stroke-linecap="round" stroke-linejoin="round"/>
<path d="M47.4677 231.474C48.9936 231.32 49.8277 231.474 49.8277 230.766C49.8277 230.058 47.5857 229.114 46.6417 228.17C45.9068 227.435 43.9612 224.918 43.0219 223.614C42.573 223.948 42.0038 224.231 41.3317 224.276C39.5617 224.394 37.5557 223.332 37.5557 223.332C37.5557 224.04 36.3757 224.866 37.2017 227.816C37.4311 228.635 39.5107 228.489 41.1306 230.433C42.6599 232.269 47.2387 231.497 47.4677 231.474Z" fill="#1A2E35"/>
<path d="M47.4677 231.474C48.9936 231.32 49.8277 231.474 49.8277 230.766C49.8277 230.058 47.5857 229.114 46.6417 228.17C45.9068 227.435 43.9612 224.918 43.0219 223.614C42.573 223.948 42.0038 224.231 41.3317 224.276C39.5617 224.394 37.5557 223.332 37.5557 223.332C37.5557 224.04 36.3757 224.866 37.2017 227.816C37.4311 228.635 39.5107 228.489 41.1306 230.433C42.6599 232.269 47.2387 231.497 47.4677 231.474Z" stroke="#1A2E35" stroke-width="1.33333" stroke-miterlimit="10" stroke-linecap="round" stroke-linejoin="round"/>
<path d="M24.8116 188.404L25.0476 195.012C25.0476 195.012 21.9796 199.142 21.3896 203.154C20.7996 207.166 18.7936 222.86 18.7936 224.394C18.7936 225.928 17.8496 230.884 18.3216 231.238C18.7936 231.592 24.2216 231.238 24.2216 231.238C24.2216 231.238 24.4576 230.766 24.4576 229.586C24.4576 228.406 23.5136 224.512 23.7496 223.568C23.9856 222.624 24.8116 219.674 24.8116 219.674C24.8116 219.674 28.4696 210.116 30.0036 207.166C31.5376 204.216 32.8356 199.968 33.6616 197.372C34.4876 194.776 35.1956 191.118 35.1956 191.118L24.8116 188.404Z" fill="white"/>
<path d="M24.8116 188.404L25.0476 195.012C25.0476 195.012 21.9796 199.142 21.3896 203.154C20.7996 207.166 18.7936 222.86 18.7936 224.394C18.7936 225.928 17.8496 230.884 18.3216 231.238C18.7936 231.592 24.2216 231.238 24.2216 231.238C24.2216 231.238 24.4576 230.766 24.4576 229.586C24.4576 228.406 23.5136 224.512 23.7496 223.568C23.9856 222.624 24.8116 219.674 24.8116 219.674C24.8116 219.674 28.4696 210.116 30.0036 207.166C31.5376 204.216 32.8356 199.968 33.6616 197.372C34.4876 194.776 35.1956 191.118 35.1956 191.118L24.8116 188.404Z" stroke="#1A2E35" stroke-width="1.33333" stroke-miterlimit="10" stroke-linecap="round" stroke-linejoin="round"/>
<path d="M23.7233 223.746C22.084 221.442 19.4116 222.848 18.8858 223.158C18.8268 223.765 18.7937 224.197 18.7937 224.394C18.7937 225.928 17.8497 230.884 18.3217 231.238C18.7937 231.592 24.2217 231.238 24.2217 231.238C24.2217 231.238 24.4577 230.766 24.4577 229.586C24.4577 228.469 23.6124 224.921 23.7233 223.746Z" fill="#1A2E35"/>
<path d="M23.7233 223.746C22.084 221.442 19.4116 222.848 18.8858 223.158C18.8268 223.765 18.7937 224.197 18.7937 224.394C18.7937 225.928 17.8497 230.884 18.3217 231.238C18.7937 231.592 24.2217 231.238 24.2217 231.238C24.2217 231.238 24.4577 230.766 24.4577 229.586C24.4577 228.469 23.6124 224.921 23.7233 223.746Z" stroke="#1A2E35" stroke-width="1.33333" stroke-miterlimit="10" stroke-linecap="round" stroke-linejoin="round"/>
<path d="M24.2216 231.238C23.9856 230.53 22.3336 227.698 22.3336 227.698L19.2656 227.816C18.2036 228.996 18.3216 231.238 18.3216 231.238C18.7936 231.592 24.2216 231.238 24.2216 231.238Z" fill="#8D8D8D"/>
<path d="M24.2216 231.238C23.9856 230.53 22.3336 227.698 22.3336 227.698L19.2656 227.816C18.2036 228.996 18.3216 231.238 18.3216 231.238C18.7936 231.592 24.2216 231.238 24.2216 231.238Z" stroke="#1A2E35" stroke-width="1.33333" stroke-miterlimit="10" stroke-linecap="round" stroke-linejoin="round"/>
<path d="M22.3336 227.698C22.3336 227.698 21.2716 226.754 20.4456 227.108C19.6196 227.462 19.2656 227.816 19.2656 227.816L19.3836 231.356H21.5076L22.3336 227.698Z" fill="#1A2E35"/>
<path d="M22.3336 227.698C22.3336 227.698 21.2716 226.754 20.4456 227.108C19.6196 227.462 19.2656 227.816 19.2656 227.816L19.3836 231.356H21.5076L22.3336 227.698Z" stroke="#1A2E35" stroke-width="1.33333" stroke-miterlimit="10" stroke-linecap="round" stroke-linejoin="round"/>
<path d="M22.2156 164.922C22.2156 164.922 21.2716 167.282 21.1536 170.35C21.0356 173.418 21.8616 188.522 21.8616 188.522C21.8616 188.522 27.7616 192.534 37.6736 192.888C47.5856 193.242 52.1876 190.528 52.1876 190.528C52.1876 190.528 51.9516 172.356 50.7716 167.99C49.5916 163.624 47.4676 161.854 47.4676 161.854C47.4676 161.854 42.7476 163.27 35.5496 163.152C28.3516 163.034 23.3956 161.736 23.3956 161.736L22.2156 164.922Z" fill="#1A2E35"/>
<path d="M22.2156 164.922C22.2156 164.922 21.2716 167.282 21.1536 170.35C21.0356 173.418 21.8616 188.522 21.8616 188.522C21.8616 188.522 27.7616 192.534 37.6736 192.888C47.5856 193.242 52.1876 190.528 52.1876 190.528C52.1876 190.528 51.9516 172.356 50.7716 167.99C49.5916 163.624 47.4676 161.854 47.4676 161.854C47.4676 161.854 42.7476 163.27 35.5496 163.152C28.3516 163.034 23.3956 161.736 23.3956 161.736L22.2156 164.922Z" stroke="#1A2E35" stroke-width="1.33333" stroke-miterlimit="10" stroke-linecap="round" stroke-linejoin="round"/>
<path d="M25.3268 128.59C25.3268 128.59 22.3824 134.058 21.9619 138.055C21.5409 142.051 25.432 154.25 25.432 154.67C25.432 155.091 21.3308 165.607 21.3308 165.607C21.3308 165.607 26.0631 167.711 31.3212 168.867C36.5792 170.024 41.9426 169.288 42.9942 168.972L44.3611 164.871L44.8869 168.342C44.8869 168.342 44.8869 168.446 46.5696 168.026C48.2523 167.605 50.3555 165.817 50.3555 165.817C50.3555 165.817 47.6212 159.402 46.2543 157.615C44.8869 155.827 43.2042 151.726 43.2042 151.726L43.8353 146.468C43.8353 146.468 48.5676 150.358 48.9881 150.464C49.4091 150.568 55.9289 142.892 57.2963 140.683C58.6632 138.475 60.8717 132.796 60.8717 132.796L57.7168 131.219L56.4552 132.481L48.9881 140.578C48.9881 140.578 44.4664 135.425 42.2579 134.584C40.0494 133.743 35.8429 132.481 35.8429 132.481L27.3247 130.483L27.9558 128.695C27.9558 128.695 27.5353 127.433 25.3268 128.59Z" fill="#5AE4A7"/>
<path d="M25.3268 128.59C25.3268 128.59 22.3824 134.058 21.9619 138.055C21.5409 142.051 25.432 154.25 25.432 154.67C25.432 155.091 21.3308 165.607 21.3308 165.607C21.3308 165.607 26.0631 167.711 31.3212 168.867C36.5792 170.024 41.9426 169.288 42.9942 168.972L44.3611 164.871L44.8869 168.342C44.8869 168.342 44.8869 168.446 46.5696 168.026C48.2523 167.605 50.3555 165.817 50.3555 165.817C50.3555 165.817 47.6212 159.402 46.2543 157.615C44.8869 155.827 43.2042 151.726 43.2042 151.726L43.8353 146.468C43.8353 146.468 48.5676 150.358 48.9881 150.464C49.4091 150.568 55.9289 142.892 57.2963 140.683C58.6632 138.475 60.8717 132.796 60.8717 132.796L57.7168 131.219L56.4552 132.481L48.9881 140.578C48.9881 140.578 44.4664 135.425 42.2579 134.584C40.0494 133.743 35.8429 132.481 35.8429 132.481L27.3247 130.483L27.9558 128.695C27.9558 128.695 27.5353 127.433 25.3268 128.59Z" stroke="#1A2E35" stroke-width="1.33333" stroke-miterlimit="10" stroke-linecap="round" stroke-linejoin="round"/>
<path d="M43.8354 146.468L39.0895 143.682L43.4135 148.907L43.8354 146.468Z" fill="#1A2E35"/>
<path d="M43.8354 146.468L39.0895 143.682L43.4135 148.907L43.8354 146.468Z" stroke="#1A2E35" stroke-width="1.33333" stroke-miterlimit="10" stroke-linecap="round" stroke-linejoin="round"/>
<path d="M33.8662 152.977C34.3349 153.521 34.8197 154.011 35.3148 154.42" stroke="#1A2E35" stroke-width="1.33333" stroke-miterlimit="10" stroke-linecap="round" stroke-linejoin="round"/>
<path d="M28.0782 142.703C28.0782 142.703 30.106 147.933 32.9016 151.757" stroke="#1A2E35" stroke-width="1.33333" stroke-miterlimit="10" stroke-linecap="round" stroke-linejoin="round"/>
<path d="M30.3182 150.63C30.3182 150.63 31.6965 153.042 34.2811 155.799" stroke="#1A2E35" stroke-width="1.33333" stroke-miterlimit="10" stroke-linecap="round" stroke-linejoin="round"/>
<path d="M38.9979 112.079C38.9979 112.079 39.5237 113.026 39.9443 114.709C40.3648 116.391 41.8374 117.232 42.3633 117.127C42.8891 117.022 42.8891 118.284 42.5733 118.915C42.258 119.546 41.7322 120.072 41.7322 120.072C41.7322 120.072 41.6269 122.596 41.3116 124.489C40.9959 126.382 40.8911 127.854 40.1548 127.854H36.3689C36.3689 127.854 36.0536 129.536 35.9483 130.904C35.8431 132.271 35.8431 132.481 35.8431 132.481L27.3249 130.483L28.2712 127.538C28.2712 127.538 22.9084 125.119 25.5369 120.703C28.1664 116.286 34.3709 110.713 38.9979 112.079Z" fill="white"/>
<path d="M38.9979 112.079C38.9979 112.079 39.5237 113.026 39.9443 114.709C40.3648 116.391 41.8374 117.232 42.3633 117.127C42.8891 117.022 42.8891 118.284 42.5733 118.915C42.258 119.546 41.7322 120.072 41.7322 120.072C41.7322 120.072 41.6269 122.596 41.3116 124.489C40.9959 126.382 40.8911 127.854 40.1548 127.854H36.3689C36.3689 127.854 36.0536 129.536 35.9483 130.904C35.8431 132.271 35.8431 132.481 35.8431 132.481L27.3249 130.483L28.2712 127.538C28.2712 127.538 22.9084 125.119 25.5369 120.703C28.1664 116.286 34.3709 110.713 38.9979 112.079Z" stroke="#1A2E35" stroke-width="1.33333" stroke-miterlimit="10" stroke-linecap="round" stroke-linejoin="round"/>
<path d="M36.3689 127.854L34.6259 127.713L36.0046 130.125L36.3689 127.854Z" fill="#1A2E35"/>
<path d="M36.3689 127.854L34.6259 127.713L36.0046 130.125L36.3689 127.854Z" stroke="#1A2E35" stroke-width="1.33333" stroke-miterlimit="10" stroke-linecap="round" stroke-linejoin="round"/>
<path d="M41.5217 122.385C41.5217 122.385 40.6806 123.016 39.4185 122.491" stroke="#1A2E35" stroke-width="1.33333" stroke-miterlimit="10" stroke-linecap="round" stroke-linejoin="round"/>
<path d="M38.2617 115.865C38.2617 115.865 38.4722 113.867 39.5238 113.972" stroke="#1A2E35" stroke-width="1.33333" stroke-miterlimit="10" stroke-linecap="round" stroke-linejoin="round"/>
<path d="M39.9267 116.699C40.1042 117.252 40.0914 117.751 39.8974 117.813C39.7039 117.875 39.4032 117.477 39.2258 116.924C39.0483 116.371 39.0615 115.873 39.255 115.81C39.4486 115.748 39.7492 116.147 39.9267 116.699Z" fill="#1A2E35"/>
<path d="M39.0002 108.924C39.0125 108.94 39.0252 108.955 39.037 108.971C40.1528 110.419 39.9616 112.033 39.1031 113.552C37.3548 116.645 32.0151 119.519 32.0151 122.074C32.0151 124.629 34.7045 124.494 34.7045 124.494C34.7045 124.494 35.7802 126.781 33.0907 128.798C30.4013 130.815 24.8879 131.353 21.3913 127.722C20.3718 126.663 19.736 125.374 19.3466 124.08C18.2822 120.539 18.1312 116.6 19.6949 113.39C21.0057 110.7 22.517 108.52 25.2617 107.169C27.4121 106.11 30.8124 105.847 33.212 105.985C34.3755 106.052 35.5518 106.287 36.6015 106.808C37.477 107.243 38.3965 108.152 39.0002 108.924Z" fill="#1A2E35"/>
<path d="M39.0002 108.924C39.0125 108.94 39.0252 108.955 39.037 108.971C40.1528 110.419 39.9616 112.033 39.1031 113.552C37.3548 116.645 32.0151 119.519 32.0151 122.074C32.0151 124.629 34.7045 124.494 34.7045 124.494C34.7045 124.494 35.7802 126.781 33.0907 128.798C30.4013 130.815 24.8879 131.353 21.3913 127.722C20.3718 126.663 19.736 125.374 19.3466 124.08C18.2822 120.539 18.1312 116.6 19.6949 113.39C21.0057 110.7 22.517 108.52 25.2617 107.169C27.4121 106.11 30.8124 105.847 33.212 105.985C34.3755 106.052 35.5518 106.287 36.6015 106.808C37.477 107.243 38.3965 108.152 39.0002 108.924Z" stroke="#1A2E35" stroke-width="1.33333" stroke-miterlimit="10" stroke-linecap="round" stroke-linejoin="round"/>
<path d="M31.646 126.665C32.5244 126.518 33.1616 126.242 33.1616 126.242" stroke="#767676" stroke-width="1.33333" stroke-miterlimit="10" stroke-linecap="round" stroke-linejoin="round"/>
<path d="M36.2387 114.864C35.6029 115.788 34.7283 116.754 33.5323 117.591C29.8252 120.187 25.7466 122.906 27.6007 125.377C28.3337 126.354 29.3565 126.694 30.3255 126.747" stroke="#767676" stroke-width="1.33333" stroke-miterlimit="10" stroke-linecap="round" stroke-linejoin="round"/>
<path d="M37.8575 111.165C37.8575 111.165 37.7131 112.061 37.1448 113.28" stroke="#767676" stroke-width="1.33333" stroke-miterlimit="10" stroke-linecap="round" stroke-linejoin="round"/>
<path d="M29.0102 118.438C28.4084 119.273 27.6485 120.256 26.7352 121.299C24.1401 124.265 24.5111 130.32 30.3191 129.826" stroke="#767676" stroke-width="1.33333" stroke-miterlimit="10" stroke-linecap="round" stroke-linejoin="round"/>
<path d="M30.69 115.861C30.69 115.861 30.4162 116.359 29.88 117.176" stroke="#767676" stroke-width="1.33333" stroke-miterlimit="10" stroke-linecap="round" stroke-linejoin="round"/>
<path d="M182.592 174.656C183.828 175.196 186.85 175.128 186.853 175.128C186.884 175.127 186.203 173.149 186.146 173.029C185.482 171.642 183.385 169.351 181.679 169.581C180.449 169.748 179.766 170.978 180.043 172.135C180.326 173.318 181.539 174.196 182.592 174.656Z" fill="#1A2E35"/>
<path d="M203.229 210.368C202.83 211.288 202.445 212.134 202.081 212.913H199.496C199.333 211.927 199.139 210.839 198.903 209.653C198.743 208.841 198.557 207.975 198.356 207.088C198.558 207.008 199.699 206.546 200.711 205.981C201.592 206.936 203.851 208.052 204.144 208.194C203.836 208.95 203.53 209.682 203.229 210.368ZM222.187 164.367C220.475 164.183 218.441 166.529 217.815 167.934C217.761 168.056 217.134 170.052 217.165 170.051C217.165 170.051 217.194 170.051 217.202 170.051C216.877 170.418 216.534 170.817 216.168 171.26C215.498 172.083 214.749 173.018 214.003 174.092C213.253 175.162 212.47 176.347 211.757 177.669C211.041 178.993 210.355 180.423 209.839 181.987C209.833 182.005 209.829 182.024 209.823 182.041C209.832 181.537 209.81 180.126 209.796 180.017C209.598 178.493 208.32 175.662 206.626 175.349C205.406 175.124 204.374 176.08 204.276 177.266C204.177 178.478 205.055 179.69 205.912 180.455C206.878 181.318 209.559 182.154 209.773 182.22C209.296 183.714 208.926 185.286 208.64 186.898C208.476 187.82 208.339 188.752 208.214 189.689C208.207 189.253 208.198 188.863 208.191 188.808C207.993 187.283 206.715 184.453 205.022 184.14C203.801 183.914 202.768 184.871 202.671 186.057C202.572 187.268 203.451 188.481 204.307 189.246C205.176 190.022 207.448 190.781 208.052 190.973C208.007 191.334 207.959 191.693 207.916 192.053C207.71 193.781 207.511 195.507 207.265 197.193C207.178 197.788 207.071 198.369 206.966 198.952C206.96 198.565 206.951 198.239 206.945 198.189C206.747 196.664 205.469 193.833 203.775 193.52C202.555 193.295 201.522 194.251 201.425 195.437C201.326 196.648 202.204 197.861 203.061 198.627C203.89 199.367 205.981 200.086 206.698 200.319C206.572 200.912 206.447 201.507 206.299 202.077C206.188 202.463 206.109 202.843 205.977 203.225C205.854 203.606 205.732 203.984 205.612 204.358C205.352 205.068 205.09 205.804 204.82 206.491C204.636 206.971 204.452 207.424 204.268 207.881C204.361 207.291 204.519 206.13 204.521 206.032C204.545 205.011 204.182 203.35 203.46 202.183C203.464 202.032 203.456 201.881 203.432 201.732C203.243 200.557 202.139 199.684 200.94 200.003C199.276 200.447 198.221 203.367 198.142 204.903C198.137 204.993 198.196 205.982 198.244 206.605C198.16 206.243 198.084 205.891 197.993 205.519C197.818 204.783 197.622 204.054 197.415 203.268C197.301 202.892 197.186 202.513 197.07 202.13C196.963 201.747 196.802 201.357 196.668 200.966C196.339 200.066 195.962 199.169 195.561 198.276C196.206 198.121 198.485 197.54 199.401 196.838C200.311 196.139 201.278 194.994 201.27 193.78C201.261 192.589 200.302 191.558 199.069 191.693C197.356 191.878 195.87 194.606 195.559 196.112C195.541 196.206 195.439 197.312 195.395 197.92C195.15 197.385 194.908 196.848 194.644 196.315C193.878 194.774 193.056 193.238 192.242 191.702C191.992 191.231 191.75 190.76 191.504 190.289C191.734 190.236 194.459 189.604 195.484 188.817C196.395 188.118 197.361 186.974 197.353 185.758C197.344 184.568 196.385 183.538 195.152 183.672C193.44 183.858 191.954 186.585 191.643 188.091C191.62 188.205 191.477 189.796 191.46 190.202C190.921 189.164 190.393 188.125 189.914 187.079C189.252 185.638 188.682 184.186 188.233 182.739C188.341 182.714 191.186 182.067 192.237 181.262C193.148 180.563 194.114 179.419 194.106 178.203C194.097 177.013 193.138 175.982 191.905 176.117C190.193 176.302 188.707 179.03 188.396 180.536C188.372 180.654 188.218 182.366 188.213 182.678C188.186 182.592 188.149 182.506 188.123 182.42C187.665 180.868 187.415 179.308 187.252 177.836C187.156 176.982 187.112 176.158 187.088 175.357C187.63 175.291 190.106 174.961 191.131 174.341C192.114 173.745 193.2 172.715 193.325 171.506C193.447 170.322 192.607 169.193 191.366 169.19C189.644 169.187 187.868 171.734 187.394 173.198C187.368 173.277 187.195 174.115 187.078 174.726C187.073 174.365 187.06 173.991 187.061 173.644C187.064 172.343 187.146 171.15 187.228 170.095C187.279 169.494 187.337 168.953 187.397 168.448C187.896 168.105 189.886 166.699 190.499 165.694C191.098 164.713 191.586 163.298 191.14 162.167C190.703 161.06 189.437 160.445 188.334 161.015C186.805 161.805 186.403 164.885 186.656 166.402C186.678 166.533 187.255 168.544 187.281 168.526C187.281 168.526 187.306 168.509 187.311 168.505C187.244 168.991 187.178 169.513 187.116 170.084C187.012 171.14 186.903 172.333 186.873 173.641C186.838 174.947 186.838 176.367 186.973 177.863C187.106 179.363 187.323 180.934 187.756 182.523C187.761 182.541 187.768 182.559 187.773 182.577C187.502 182.151 186.704 180.986 186.633 180.904C185.627 179.741 182.999 178.086 181.414 178.758C180.272 179.244 179.938 180.611 180.511 181.654C181.097 182.719 182.499 183.246 183.635 183.412C184.917 183.598 187.615 182.816 187.829 182.753C188.255 184.263 188.815 185.778 189.465 187.28C189.836 188.139 190.237 188.993 190.649 189.844C190.403 189.483 190.18 189.163 190.144 189.121C189.138 187.958 186.51 186.303 184.926 186.976C183.783 187.461 183.449 188.828 184.022 189.871C184.608 190.937 186.01 191.463 187.146 191.629C188.3 191.797 190.613 191.176 191.223 191.004C191.384 191.329 191.542 191.655 191.705 191.979C192.486 193.534 193.272 195.083 193.997 196.626C194.252 197.169 194.484 197.714 194.718 198.258C194.499 197.938 194.312 197.671 194.279 197.632C193.273 196.47 190.646 194.814 189.06 195.487C187.919 195.972 187.584 197.339 188.157 198.382C188.744 199.448 190.145 199.975 191.282 200.14C192.382 200.301 194.522 199.747 195.248 199.545C195.471 200.11 195.695 200.675 195.885 201.232C196.007 201.615 196.15 201.976 196.25 202.368C196.358 202.753 196.465 203.135 196.57 203.514C196.747 204.249 196.933 205.007 197.087 205.729C197.199 206.23 197.295 206.71 197.394 207.193C197.146 206.65 196.637 205.595 196.585 205.512C195.767 204.209 193.42 202.175 191.751 202.6C190.549 202.907 190.011 204.207 190.42 205.325C190.838 206.467 192.144 207.2 193.242 207.536C194.451 207.906 197.128 207.568 197.462 207.524C197.623 208.323 197.772 209.103 197.9 209.841C198.096 210.952 198.257 211.977 198.393 212.913H196.831V231.557H204.242V212.913H203.262C203.554 212.243 203.857 211.53 204.17 210.766C204.485 209.999 204.807 209.174 205.129 208.324C205.453 208.392 208.103 208.93 209.338 208.651C210.459 208.398 211.816 207.764 212.317 206.657C212.808 205.573 212.369 204.235 211.192 203.84C209.56 203.292 207.069 205.146 206.155 206.383C206.102 206.456 205.605 207.313 205.302 207.86C205.432 207.511 205.562 207.175 205.691 206.815C205.952 206.105 206.19 205.388 206.45 204.619C206.563 204.242 206.677 203.863 206.792 203.479C206.913 203.101 206.994 202.686 207.098 202.286C207.32 201.354 207.5 200.398 207.66 199.432C208.282 199.659 210.503 200.431 211.655 200.35C212.8 200.27 214.237 199.849 214.901 198.831C215.55 197.833 215.318 196.444 214.216 195.876C212.685 195.087 209.942 196.542 208.851 197.627C208.783 197.694 208.089 198.56 207.717 199.044C207.808 198.462 207.902 197.882 207.975 197.29C208.187 195.583 208.349 193.848 208.517 192.118C208.569 191.588 208.627 191.061 208.682 190.533C208.903 190.615 211.523 191.591 212.813 191.5C213.958 191.42 215.395 190.999 216.059 189.98C216.709 188.983 216.477 187.594 215.374 187.026C213.843 186.237 211.1 187.692 210.01 188.777C209.928 188.858 208.93 190.106 208.692 190.436C208.815 189.273 208.948 188.115 209.126 186.978C209.369 185.41 209.694 183.885 210.119 182.431C210.221 182.469 212.952 183.5 214.272 183.407C215.418 183.327 216.855 182.906 217.518 181.887C218.168 180.89 217.936 179.502 216.834 178.933C215.303 178.144 212.56 179.599 211.47 180.683C211.384 180.768 210.311 182.112 210.134 182.369C210.16 182.283 210.177 182.191 210.203 182.104C210.676 180.558 211.328 179.118 212.005 177.801C212.396 177.035 212.814 176.324 213.235 175.642C213.724 175.886 215.971 176.977 217.168 177.025C218.316 177.071 219.791 176.81 220.562 175.87C221.317 174.951 221.239 173.545 220.206 172.859C218.771 171.906 215.884 173.051 214.682 174.01C214.616 174.062 214.01 174.665 213.575 175.111C213.77 174.806 213.965 174.487 214.158 174.199C214.878 173.114 215.605 172.165 216.255 171.33C216.629 170.858 216.975 170.438 217.304 170.049C217.91 170.039 220.346 169.965 221.411 169.465C222.451 168.976 223.64 168.066 223.891 166.876C224.138 165.712 223.421 164.5 222.187 164.367" fill="#1A2E35"/>
<path d="M213.165 175.321C213.192 175.338 213.715 173.312 213.734 173.181C213.945 171.657 213.46 168.59 211.909 167.841C210.793 167.301 209.543 167.95 209.136 169.069C208.721 170.211 209.248 171.613 209.872 172.577C210.604 173.709 213.164 175.32 213.165 175.321Z" fill="#1A2E35"/>
<path d="M223.255 231.419H229.239" stroke="#1A2E35" stroke-width="1.33333" stroke-miterlimit="10" stroke-linecap="round" stroke-linejoin="round"/>
<path d="M218.144 231.419H220.503" stroke="#1A2E35" stroke-width="1.33333" stroke-miterlimit="10" stroke-linecap="round" stroke-linejoin="round"/>
<path d="M9.75903 231.419H216.441" stroke="#1A2E35" stroke-width="1.33333" stroke-miterlimit="10" stroke-linecap="round" stroke-linejoin="round"/>
</g>
</svg>
