<svg width="304" height="217" viewBox="0 0 304 217" fill="none" xmlns="http://www.w3.org/2000/svg">
<path d="M62.9036 216.062H27.6383C27.0188 216.062 26.5171 215.531 26.5171 214.877V214.226C26.5171 213.572 27.0188 213.041 27.6383 213.041H62.9036C63.5231 213.041 64.0255 213.572 64.0255 214.226V214.877C64.0255 215.531 63.5231 216.062 62.9036 216.062Z" fill="#ADBEC4"/>
<path d="M286.362 216.062H276.713C276.094 216.062 275.591 215.531 275.591 214.877V214.226C275.591 213.572 276.094 213.041 276.713 213.041H286.362C286.981 213.041 287.484 213.572 287.484 214.226V214.877C287.484 215.531 286.981 216.062 286.362 216.062Z" fill="#ADBEC4"/>
<path d="M129.269 216.062H94.0035C93.3839 216.062 92.8822 215.531 92.8822 214.877V214.226C92.8822 213.572 93.3839 213.041 94.0035 213.041H129.269C129.888 213.041 130.391 213.572 130.391 214.226V214.877C130.391 215.531 129.888 216.062 129.269 216.062Z" fill="#ADBEC4"/>
<path d="M181.05 216.062H145.785C145.165 216.062 144.663 215.531 144.663 214.877V214.226C144.663 213.572 145.165 213.041 145.785 213.041H181.05C181.669 213.041 182.171 213.572 182.171 214.226V214.877C182.171 215.531 181.669 216.062 181.05 216.062Z" fill="#ADBEC4"/>
<path d="M244.467 216.062H196.394C195.774 216.062 195.272 215.531 195.272 214.877V214.226C195.272 213.572 195.774 213.041 196.394 213.041H244.467C245.086 213.041 245.589 213.572 245.589 214.226V214.877C245.589 215.531 245.086 216.062 244.467 216.062Z" fill="#ADBEC4"/>
<path d="M74.724 46.8782C74.724 46.8782 70.9992 44.2019 65.5515 46.263C60.1038 48.3248 58.8808 56.0745 60.2228 62.3627C61.5643 68.6515 54.0641 90.1226 54.0641 90.1226C54.0641 90.1226 57.9624 95.9132 71.5867 93.6966C71.5867 93.6966 81.7454 74.1967 80.9908 60.1974C80.2369 46.1988 74.724 46.8782 74.724 46.8782Z" fill="#0E3944"/>
<path d="M79.0246 71.0679C84.1446 69.3387 87.2781 73.8415 90.2118 82.2226C93.1449 90.6036 94.1318 91.4439 94.1318 91.4439L105.455 99.1287L104.515 103.607C104.515 103.607 93.7376 99.1503 91.1321 96.3152C88.5267 93.4807 81.031 79.1211 81.031 79.1211L79.0246 71.0679Z" fill="#EF6E4B"/>
<path d="M54.0695 125.212C54.0695 125.212 51.8481 137.095 52.2141 154.983C52.2141 154.983 43.4602 168.618 50.6845 207.52H54.474C54.474 207.52 57.5703 174.422 59.9389 165.453C62.3069 156.484 71.0538 153.732 71.5274 126.463L54.0695 125.212Z" fill="#FF8B66"/>
<path d="M36.7503 160.154C34.5481 152.489 28.8886 139.651 14.3702 122.25C14.3702 122.25 13.5043 121.779 12.3337 122.534C11.0979 123.331 11.0979 124.269 11.0979 124.269C11.0979 124.269 18.3779 141.027 23.0204 153.305C24.5833 157.439 28.3644 160.154 32.5782 160.154H36.7503Z" fill="#FF8B66"/>
<path d="M63.1832 174.976C63.1832 174.976 63.2331 180.695 59.6805 180.792C54.6635 180.935 54.4785 175.164 48.7941 175.351C43.1096 175.539 31.3854 177.04 27.6549 167.658C25.7291 162.81 28.3659 156.588 22.1483 151.897C15.9307 147.207 18.9509 141.953 22.1483 139.138C25.3457 136.331 20.7697 133.254 24.1022 131.82C24.8977 131.483 25.6798 131.52 26.4043 131.776C26.8305 131.933 27.2286 132.151 27.6126 132.421C29.3745 133.659 30.611 135.813 30.611 135.813C40.0261 108.577 56.7883 104.982 56.7883 104.982L73.3656 111.023C73.7637 153.398 63.1832 174.976 63.1832 174.976Z" fill="#164353"/>
<path d="M79.0246 71.0679C79.0246 71.0679 75.1571 72.4463 69.6557 71.5634C64.1549 70.6812 62.3661 67.0335 58.4992 69.3813C52.6938 72.9066 55.4106 85.0408 56.8685 91.3499C57.4118 93.7017 58.1005 99.8817 56.7891 104.982C56.7891 104.982 64.519 111.335 73.3664 111.019L78.1933 99.9311C78.1933 99.9311 88.6906 86.6646 79.0246 71.0679Z" fill="#CFD8DC"/>
<path d="M69.2017 60.8901C69.2017 60.8901 69.8449 66.63 67.8347 71.8521C67.8347 71.8521 70.7051 76.3279 73.4443 73.3825C73.4443 73.3825 73.6945 68.1219 76.7716 62.1704C78.8318 58.1847 69.2017 60.8901 69.2017 60.8901Z" fill="#EF6E4B"/>
<path d="M64.8032 61.0852C64.8032 61.0852 62.3821 59.4675 62.6553 61.9633C62.9721 64.8553 65.6422 65.419 65.927 64.4078C66.2112 63.3971 64.8032 61.0852 64.8032 61.0852Z" fill="#FF8B66"/>
<path d="M78.6928 57.9546C78.6928 57.9546 80.2294 55.4007 80.9904 57.7816C81.8717 60.5403 79.6835 62.2526 79.0179 61.4665C78.353 60.6803 78.6928 57.9546 78.6928 57.9546Z" fill="#FF8B66"/>
<path d="M73.6933 69.7293C69.3023 70.7676 66.1816 68.3246 64.2552 59.2378C63.2613 54.5504 64.9099 51.1413 69.8283 49.9779C74.7467 48.8152 77.4277 51.1995 78.4216 55.8868C80.4914 65.651 78.2296 68.6565 73.6933 69.7293Z" fill="#FF8B66"/>
<path d="M77.6542 59.4721C77.8302 59.9203 77.5428 60.4712 77.0123 60.7038C76.4817 60.9356 75.9089 60.7612 75.7336 60.313C75.5576 59.8648 75.8449 59.3132 76.3755 59.0814C76.906 58.8488 77.4782 59.0239 77.6542 59.4721Z" fill="#DB614D"/>
<path d="M68.6758 61.8621C68.7469 62.3414 68.3443 62.8058 67.7773 62.8991C67.2102 62.993 66.6925 62.6807 66.6214 62.2014C66.551 61.7221 66.9529 61.2577 67.52 61.1644C68.0877 61.0705 68.6048 61.3828 68.6758 61.8621Z" fill="#DB614D"/>
<path d="M74.5966 55.2379C74.5537 55.2379 74.5108 55.2251 74.4718 55.198C73.7217 54.6687 72.6574 54.95 72.6459 54.9527C72.5236 54.9865 72.4033 54.9087 72.372 54.7816C72.3412 54.6545 72.4136 54.5248 72.5339 54.4923C72.5851 54.4788 73.8049 54.1563 74.722 54.8033C74.8251 54.8756 74.8532 55.023 74.7841 55.1325C74.7406 55.2008 74.6696 55.2379 74.5966 55.2379Z" fill="#0E3944"/>
<path d="M66.3283 57.1934C66.2893 57.1934 66.2489 57.1826 66.2131 57.1596C66.1062 57.092 66.0717 56.946 66.1363 56.8338C66.704 55.836 67.9379 55.5778 67.9904 55.5669C68.1101 55.5467 68.2291 55.6264 68.2528 55.7556C68.2765 55.8847 68.1965 56.0084 68.0749 56.0334C68.064 56.0361 66.9843 56.2653 66.5209 57.0785C66.4793 57.1522 66.4045 57.1934 66.3283 57.1934Z" fill="#0E3944"/>
<path d="M74.7889 57.7829C74.9105 58.3588 74.764 58.8841 74.4612 58.9551C74.1585 59.0267 73.8136 58.6184 73.6913 58.0425C73.5691 57.4665 73.7163 56.9413 74.019 56.8696C74.3217 56.798 74.6667 57.2069 74.7889 57.7829Z" fill="#1A4850"/>
<path d="M68.6879 59.1699C68.8101 59.7458 68.6635 60.2711 68.3602 60.3421C68.0575 60.4137 67.7131 60.0054 67.5909 59.4295C67.4687 58.8535 67.6152 58.3283 67.9186 58.2566C68.2213 58.1849 68.5656 58.5939 68.6879 59.1699Z" fill="#1A4850"/>
<path d="M70.6606 64.6248C70.6606 64.6248 73.4811 64.3821 74.724 63.2735C74.724 63.2735 74.3816 65.601 72.8475 65.7625C71.3128 65.9241 70.6606 64.6248 70.6606 64.6248Z" fill="#1A4850"/>
<path d="M73.2519 57.8461C73.2519 57.8461 73.3511 56.3325 73.9002 56.3095C74.4493 56.2866 75.1072 57.4074 75.1072 57.4074L75.794 56.7868L75.0375 57.0788C75.0375 57.0788 74.3629 55.9073 73.8407 56.0283C73.097 56.2 73.2519 57.8461 73.2519 57.8461Z" fill="#1A4850"/>
<path d="M69.0249 59.0281C69.0249 59.0281 68.3241 57.7038 67.8179 57.9302C67.3123 58.1567 67.1696 59.4668 67.1696 59.4668L66.2979 59.2146L67.0998 59.1382C67.0998 59.1382 67.2374 57.7748 67.7584 57.649C68.5008 57.4699 69.0249 59.0281 69.0249 59.0281Z" fill="#1A4850"/>
<path d="M72.0833 61.9377L71.8573 61.4848C72.2228 61.2813 72.2535 61.0062 72.2157 60.8129C72.1613 60.5384 71.9501 60.3207 71.7972 60.3079C71.7095 60.3032 71.634 60.3823 71.5751 60.5472L71.1207 60.3687C71.3153 59.8158 71.6839 59.786 71.8343 59.7968C72.2202 59.8279 72.5959 60.2281 72.6906 60.7081C72.7898 61.211 72.5626 61.6707 72.0833 61.9377Z" fill="#DB614D"/>
<path d="M65.1509 62.7211C65.1509 62.7211 63.7967 57.4577 64.6005 53.7357C64.6005 53.7357 68.4207 48.1174 75.7941 50.8951C75.7941 50.8951 77.9803 54.6145 79.0645 59.819C79.0645 59.819 79.3397 57.9492 78.6056 53.785C77.8722 49.6215 74.3746 47.0338 69.5784 47.8673C64.7823 48.7002 59.6495 53.7404 65.1509 62.7211Z" fill="#0E3944"/>
<path d="M72.882 49.7268C72.882 49.7268 73.1745 51.1004 71.9092 54.6379C71.9092 54.6379 70.9991 53.6334 69.9335 54.6379C68.8679 55.6425 66.7034 55.3072 65.9649 55.85C65.2263 56.3935 65.2263 57.6346 65.2263 57.6346C65.2263 57.6346 64.5863 56.0893 65.2263 54.2357C65.2263 54.2357 63.7876 56.1664 63.9789 58.5506C63.9789 58.5506 62.0289 58.218 62.1172 54.8191C62.2061 51.4209 66.7796 45.9236 71.9092 46.2799C77.0394 46.6361 78.2605 55.2159 78.2605 55.2159C78.2605 55.2159 77.7927 54.8279 77.0605 55.0003C77.0605 55.0003 76.9473 53.1832 75.794 50.8949C75.794 50.8949 76.3258 52.5471 75.794 54.329C75.794 54.329 74.3649 53.5374 73.2385 53.7855C73.2385 53.7855 73.9341 52.3477 72.882 49.7268Z" fill="#0E3944"/>
<path d="M57.197 70.4658C59.6936 68.3864 61.6379 71.0316 62.1141 74.6887C62.5909 78.3466 58.0763 99.9245 54.5941 99.1288C53.2508 98.8213 52.7023 93.1692 52.7023 93.1692C52.7023 93.1692 54.0642 87.1028 54.9455 77.9714C55.3506 73.7748 55.8946 71.5501 57.197 70.4658Z" fill="#FF8B66"/>
<path d="M49.9325 96.079C46.5712 92.695 40.5443 81.47 39.0134 75.7517L41.5645 74.6674C41.5645 74.6674 49.2457 86.2743 52.7472 89.2014C56.2486 92.1278 57.4806 95.3875 55.9165 98.1787C54.3523 100.97 50.6397 96.7908 49.9325 96.079Z" fill="#FF8B66"/>
<path d="M40.0611 68.2638C39.8851 71.9345 42.7171 72.8045 41.4607 75.6221C41.2015 76.2041 40.8067 76.5131 40.3964 76.6665C39.6188 76.9572 38.7535 76.6821 38.1731 76.0628C36.8271 74.625 34.7452 73.1026 33.6374 72.4348C32.3779 71.6668 33.0915 71.4579 33.0915 71.4579C32.9692 71.3971 32.8502 71.3464 32.7318 71.2957C31.8326 70.8982 31.1145 70.7481 31.766 70.3256C32.4995 69.8443 35.0991 70.8475 35.0991 70.8475C31.7155 68.4673 30.7971 69.0473 31.4153 68.5417C32.2582 67.8495 35.4748 69.4414 35.5715 69.4894C33.7833 67.7041 32.4873 67.2999 33.1964 67.0301C33.9151 66.7577 37.4524 69.4631 38.7433 70.4791C39.0345 70.7069 39.2124 70.8536 39.2124 70.8536C39.1683 67.8528 40.0611 68.2638 40.0611 68.2638Z" fill="#FF8B66"/>
<path d="M38.7434 70.4788C39.0346 70.7067 39.2125 70.8534 39.2125 70.8534C39.2125 70.8534 38.6071 71.9295 39.3911 73.3235C39.3911 73.3235 37.9517 72.325 38.7434 70.4788Z" fill="#EF6E4B"/>
<path d="M35.7768 72.5868C35.4773 72.4131 33.7704 71.3977 33.0914 71.4579C32.9691 71.397 32.8501 71.3463 32.7317 71.2956C33.188 70.6602 35.437 72.3265 35.7768 72.5868Z" fill="#EF6E4B"/>
<path d="M49.1937 127.056C49.1937 127.454 48.8878 127.777 48.5108 127.777C48.1332 127.777 47.8273 127.454 47.8273 127.056C47.8273 126.657 48.1332 126.334 48.5108 126.334C48.8878 126.334 49.1937 126.657 49.1937 127.056Z" fill="#6097B2"/>
<path d="M61.3793 132.021C61.3793 132.419 61.0734 132.742 60.6964 132.742C60.3188 132.742 60.0129 132.419 60.0129 132.021C60.0129 131.622 60.3188 131.3 60.6964 131.3C61.0734 131.3 61.3793 131.622 61.3793 132.021Z" fill="#6097B2"/>
<path d="M71.7627 134.684C71.7627 135.083 71.4568 135.405 71.0799 135.405C70.7023 135.405 70.3963 135.083 70.3963 134.684C70.3963 134.286 70.7023 133.962 71.0799 133.962C71.4568 133.962 71.7627 134.286 71.7627 134.684Z" fill="#6097B2"/>
<path d="M55.8086 117.635C55.8086 118.033 55.5027 118.356 55.1258 118.356C54.7482 118.356 54.4422 118.033 54.4422 117.635C54.4422 117.236 54.7482 116.914 55.1258 116.914C55.5027 116.914 55.8086 117.236 55.8086 117.635Z" fill="#6097B2"/>
<path d="M58.1089 124.49C58.1089 124.889 57.803 125.212 57.426 125.212C57.0484 125.212 56.7425 124.889 56.7425 124.49C56.7425 124.092 57.0484 123.769 57.426 123.769C57.803 123.769 58.1089 124.092 58.1089 124.49Z" fill="#6097B2"/>
<path d="M68.9139 128.398C68.9139 128.796 68.608 129.119 68.231 129.119C67.8534 129.119 67.5475 128.796 67.5475 128.398C67.5475 128 67.8534 127.677 68.231 127.677C68.608 127.677 68.9139 128 68.9139 128.398Z" fill="#6097B2"/>
<path d="M70.3965 116.572C70.3965 116.971 70.0906 117.294 69.7137 117.294C69.3361 117.294 69.0301 116.971 69.0301 116.572C69.0301 116.174 69.3361 115.851 69.7137 115.851C70.0906 115.851 70.3965 116.174 70.3965 116.572Z" fill="#6097B2"/>
<path d="M63.3168 114.111C63.3168 114.509 63.0109 114.833 62.6339 114.833C62.2563 114.833 61.9504 114.509 61.9504 114.111C61.9504 113.712 62.2563 113.39 62.6339 113.39C63.0109 113.39 63.3168 113.712 63.3168 114.111Z" fill="#6097B2"/>
<path d="M43.1496 141.129C43.1496 141.528 42.8436 141.851 42.4667 141.851C42.0891 141.851 41.7832 141.528 41.7832 141.129C41.7832 140.731 42.0891 140.408 42.4667 140.408C42.8436 140.408 43.1496 140.731 43.1496 141.129Z" fill="#6097B2"/>
<path d="M33.4148 138.062C33.4148 138.461 33.1089 138.783 32.7319 138.783C32.3543 138.783 32.0484 138.461 32.0484 138.062C32.0484 137.664 32.3543 137.34 32.7319 137.34C33.1089 137.34 33.4148 137.664 33.4148 138.062Z" fill="#6097B2"/>
<path d="M27.6124 132.421C27.4914 132.616 27.2783 132.743 27.037 132.743C26.66 132.743 26.3548 132.421 26.3548 132.023C26.3548 131.933 26.3688 131.85 26.4047 131.775C26.8309 131.933 27.2284 132.15 27.6124 132.421Z" fill="#6097B2"/>
<path d="M46.6374 150.539C46.6374 150.937 46.3315 151.26 45.9545 151.26C45.5769 151.26 45.271 150.937 45.271 150.539C45.271 150.14 45.5769 149.817 45.9545 149.817C46.3315 149.817 46.6374 150.14 46.6374 150.539Z" fill="#6097B2"/>
<path d="M29.166 160.765C29.166 161.163 28.8601 161.486 28.4831 161.486C28.1055 161.486 27.7996 161.163 27.7996 160.765C27.7996 160.367 28.1055 160.043 28.4831 160.043C28.8601 160.043 29.166 160.367 29.166 160.765Z" fill="#6097B2"/>
<path d="M36.3036 154.566C36.3036 154.964 35.9977 155.287 35.6207 155.287C35.2431 155.287 34.9372 154.964 34.9372 154.566C34.9372 154.167 35.2431 153.845 35.6207 153.845C35.9977 153.845 36.3036 154.167 36.3036 154.566Z" fill="#6097B2"/>
<path d="M25.6735 149.082C25.6735 149.48 25.3676 149.803 24.9906 149.803C24.613 149.803 24.3071 149.48 24.3071 149.082C24.3071 148.683 24.613 148.36 24.9906 148.36C25.3676 148.36 25.6735 148.683 25.6735 149.082Z" fill="#6097B2"/>
<path d="M34.2543 170.678C34.2543 171.077 33.9484 171.399 33.5714 171.399C33.1938 171.399 32.8879 171.077 32.8879 170.678C32.8879 170.28 33.1938 169.957 33.5714 169.957C33.9484 169.957 34.2543 170.28 34.2543 170.678Z" fill="#6097B2"/>
<path d="M40.7576 132.743C40.7576 133.141 40.4516 133.464 40.0747 133.464C39.6971 133.464 39.3912 133.141 39.3912 132.743C39.3912 132.344 39.6971 132.021 40.0747 132.021C40.4516 132.021 40.7576 132.344 40.7576 132.743Z" fill="#6097B2"/>
<path d="M47.3205 120.592C47.3205 120.99 47.0146 121.313 46.6376 121.313C46.26 121.313 45.9541 120.99 45.9541 120.592C45.9541 120.193 46.26 119.87 46.6376 119.87C47.0146 119.87 47.3205 120.193 47.3205 120.592Z" fill="#6097B2"/>
<path d="M54.7474 110.479C54.7474 110.877 54.4415 111.2 54.0645 111.2C53.6869 111.2 53.381 110.877 53.381 110.479C53.381 110.08 53.6869 109.758 54.0645 109.758C54.4415 109.758 54.7474 110.08 54.7474 110.479Z" fill="#6097B2"/>
<path d="M39.6963 125.212C39.6963 125.61 39.3904 125.933 39.0134 125.933C38.6358 125.933 38.3299 125.61 38.3299 125.212C38.3299 124.813 38.6358 124.491 39.0134 124.491C39.3904 124.491 39.6963 124.813 39.6963 125.212Z" fill="#6097B2"/>
<path d="M48.0036 113.39C48.0036 113.789 47.6977 114.111 47.3208 114.111C46.9432 114.111 46.6372 113.789 46.6372 113.39C46.6372 112.992 46.9432 112.668 47.3208 112.668C47.6977 112.668 48.0036 112.992 48.0036 113.39Z" fill="#6097B2"/>
<path d="M34.9373 145.877C34.9373 146.276 34.6314 146.598 34.2545 146.598C33.8769 146.598 33.5709 146.276 33.5709 145.877C33.5709 145.479 33.8769 145.156 34.2545 145.156C34.6314 145.156 34.9373 145.479 34.9373 145.877Z" fill="#6097B2"/>
<path d="M26.3566 139.505C26.3566 139.903 26.0507 140.226 25.6737 140.226C25.2961 140.226 24.9902 139.903 24.9902 139.505C24.9902 139.106 25.2961 138.784 25.6737 138.784C26.0507 138.784 26.3566 139.106 26.3566 139.505Z" fill="#6097B2"/>
<path d="M51.2431 137.34C51.2431 137.739 50.9372 138.061 50.5602 138.061C50.1826 138.061 49.8767 137.739 49.8767 137.34C49.8767 136.942 50.1826 136.619 50.5602 136.619C50.9372 136.619 51.2431 136.942 51.2431 137.34Z" fill="#6097B2"/>
<path d="M65.3661 141.129C65.3661 141.528 65.0602 141.851 64.6832 141.851C64.3056 141.851 63.9997 141.528 63.9997 141.129C63.9997 140.731 64.3056 140.408 64.6832 140.408C65.0602 140.408 65.3661 140.731 65.3661 141.129Z" fill="#6097B2"/>
<path d="M64.683 120.592C64.683 120.99 64.3771 121.313 64.0001 121.313C63.6225 121.313 63.3166 120.99 63.3166 120.592C63.3166 120.193 63.6225 119.87 64.0001 119.87C64.3771 119.87 64.683 120.193 64.683 120.592Z" fill="#6097B2"/>
<path d="M72.8936 122.105C72.8936 122.503 72.5876 122.826 72.2107 122.826C71.8331 122.826 71.5272 122.503 71.5272 122.105C71.5272 121.706 71.8331 121.383 72.2107 121.383C72.5876 121.383 72.8936 121.706 72.8936 122.105Z" fill="#6097B2"/>
<path d="M56.4917 146.598C56.4917 146.997 56.1858 147.32 55.8088 147.32C55.4312 147.32 55.1253 146.997 55.1253 146.598C55.1253 146.2 55.4312 145.877 55.8088 145.877C56.1858 145.877 56.4917 146.2 56.4917 146.598Z" fill="#6097B2"/>
<path d="M50.56 159.433C50.56 159.831 50.2541 160.154 49.8771 160.154C49.4995 160.154 49.1936 159.831 49.1936 159.433C49.1936 159.035 49.4995 158.712 49.8771 158.712C50.2541 158.712 50.56 159.035 50.56 159.433Z" fill="#6097B2"/>
<path d="M40.0745 161.486C40.0745 161.885 39.7686 162.208 39.3916 162.208C39.014 162.208 38.7081 161.885 38.7081 161.486C38.7081 161.088 39.014 160.765 39.3916 160.765C39.7686 160.765 40.0745 161.088 40.0745 161.486Z" fill="#6097B2"/>
<path d="M68.9139 150.539C68.9139 150.937 68.608 151.26 68.231 151.26C67.8534 151.26 67.5475 150.937 67.5475 150.539C67.5475 150.14 67.8534 149.817 68.231 149.817C68.608 149.817 68.9139 150.14 68.9139 150.539Z" fill="#6097B2"/>
<path d="M59.4751 156.009C59.4751 156.408 59.1692 156.73 58.7923 156.73C58.4147 156.73 58.1087 156.408 58.1087 156.009C58.1087 155.611 58.4147 155.288 58.7923 155.288C59.1692 155.288 59.4751 155.611 59.4751 156.009Z" fill="#6097B2"/>
<path d="M45.2711 172.121C45.2711 172.52 44.9652 172.842 44.5882 172.842C44.2106 172.842 43.9047 172.52 43.9047 172.121C43.9047 171.723 44.2106 171.4 44.5882 171.4C44.9652 171.4 45.2711 171.723 45.2711 172.121Z" fill="#6097B2"/>
<path d="M55.8086 168.364C55.8086 168.763 55.5027 169.085 55.1258 169.085C54.7482 169.085 54.4422 168.763 54.4422 168.364C54.4422 167.966 54.7482 167.643 55.1258 167.643C55.5027 167.643 55.8086 167.966 55.8086 168.364Z" fill="#6097B2"/>
<path d="M65.9599 164.113C65.9599 164.512 65.6539 164.835 65.277 164.835C64.8994 164.835 64.5935 164.512 64.5935 164.113C64.5935 163.715 64.8994 163.392 65.277 163.392C65.6539 163.392 65.9599 163.715 65.9599 164.113Z" fill="#6097B2"/>
<path d="M61.3793 176.526C61.3793 176.925 61.0734 177.247 60.6964 177.247C60.3188 177.247 60.0129 176.925 60.0129 176.526C60.0129 176.128 60.3188 175.805 60.6964 175.805C61.0734 175.805 61.3793 176.128 61.3793 176.526Z" fill="#6097B2"/>
<path d="M60.6322 214.522H49.4124C48.6809 212.315 50.0306 210.101 49.8034 208.157C49.4124 204.87 51.2243 206.686 51.2243 206.686C51.5443 203.151 56.2483 202.483 56.1983 204.059C56.1202 206.379 56.5465 207.812 57.1718 208.772C58.4364 210.702 60.5113 210.687 60.8665 212.067C60.9023 212.202 60.9305 212.338 60.9523 212.458C61.3004 214.184 60.6322 214.522 60.6322 214.522Z" fill="#164353"/>
<path d="M60.952 212.458C58.6282 213.028 53.2707 212.285 53.0576 210.859C52.8515 209.478 55.7366 208.832 57.1715 208.773C58.4368 210.701 60.5117 210.687 60.8669 212.068C60.9021 212.202 60.9309 212.337 60.952 212.458Z" fill="#205260"/>
<path d="M14.5096 122.724C13.316 121.575 11.3761 123.474 11.3761 123.474C11.3761 123.474 12.4206 125.111 11.7454 125.771C11.0702 126.432 10.2888 124.923 8.96013 125.583C8.85325 125.636 8.73996 125.704 8.63309 125.779C7.59564 126.432 6.51596 127.805 5.64173 128.849C5.46445 129.059 5.29356 129.253 5.1374 129.426C4.12108 130.552 1.49901 131.212 1.00877 128.21C0.518526 125.208 3.71597 121.688 7.22637 118.454C10.7368 115.219 13.003 117.14 13.003 117.14C13.003 117.14 13.7992 118.498 13.7992 119.347C13.7992 120.187 14.5096 120.607 14.9076 121.41C15.3051 122.206 14.5096 122.724 14.5096 122.724Z" fill="#164353"/>
<path d="M8.63322 125.779C7.59578 126.432 6.51546 127.805 5.64186 128.848C4.3273 129.178 3.14778 129.081 2.96282 127.775C2.51546 124.623 8.47002 120.615 7.99386 122.829C7.75194 123.94 8.1641 124.998 8.63322 125.779Z" fill="#205260"/>
<path d="M216.397 209.397C215.844 209.09 215.334 208.415 214.876 207.562C214.876 207.562 214.482 205.039 214.876 202.388C215.271 199.737 214.178 197.572 210.625 196.759C207.171 195.968 205.122 197.727 205.919 205.061C205.919 205.062 205.92 205.062 205.92 205.064C205.395 208.111 205.286 211.59 206.484 214.522H217.116C217.116 214.522 218.793 210.725 216.397 209.397Z" fill="#CFD8DC"/>
<path d="M225.725 169.865C225.725 169.865 225.725 177.183 221.817 184.688C217.837 192.33 212.917 202.82 212.917 202.82C212.917 202.82 209.639 206.198 207.556 200.603C207.556 200.603 209.026 181.123 212.402 173.993C215.776 166.863 225.725 169.865 225.725 169.865Z" fill="#FF8B66"/>
<path d="M276.708 146.036C276.708 146.036 283.04 174.164 287.069 181.584C287.069 181.584 286.141 184.688 281.78 185.626C281.78 185.626 268.003 164.236 267.115 155.23C266.227 146.223 276.708 146.036 276.708 146.036Z" fill="#FF8B66"/>
<path d="M279.77 152.648C278.086 156.934 265.076 157.166 265.076 157.166L264.081 155.62L263.818 155.214L261.785 152.047C261.785 152.047 240.227 129.712 236.028 131.588H236.021C235.9 131.648 235.779 131.715 235.665 131.805C232.781 133.982 232.511 145.908 229.1 165.924C228.773 167.823 228.049 170.038 227.501 171.569C227.437 171.734 227.38 171.891 227.323 172.041C227.011 172.89 226.79 173.43 226.79 173.43C213.631 179.059 209.289 167.936 209.289 167.936C209.289 167.936 209.446 167.614 209.673 167.095C209.723 166.983 209.78 166.855 209.837 166.72C210.526 165.114 211.627 162.329 211.613 160.858C211.599 159.245 211.584 157.691 211.577 156.197C211.577 156.063 211.577 155.935 211.57 155.807C211.549 150.996 211.556 146.816 211.584 143.184V142.801C211.599 141.217 211.62 139.739 211.648 138.358V137.967C211.762 131.64 211.954 127.415 212.16 124.6C212.167 124.473 212.182 124.338 212.189 124.217C212.551 119.482 212.934 119.016 212.934 119.016L210.298 99.6601H239.062C239.062 99.6601 243.382 104.231 248.989 110.265C249.109 110.386 249.223 110.505 249.337 110.633C251.369 112.817 253.565 115.189 255.768 117.598C255.86 117.695 255.945 117.786 256.023 117.876C256.89 118.821 257.757 119.767 258.617 120.705C258.723 120.818 258.823 120.938 258.929 121.05C261.814 124.21 264.614 127.325 267.008 130.049C267.094 130.14 267.172 130.23 267.25 130.319C270.526 134.064 273.02 137.059 273.88 138.455C276.16 142.14 277.937 146.936 278.918 149.9V149.909C278.967 150.043 279.01 150.163 279.053 150.291C279.514 151.732 279.77 152.648 279.77 152.648Z" fill="#8B383E"/>
<path d="M217.24 121.913C216.068 123.377 214.362 124.277 212.16 124.6C212.167 124.473 212.181 124.337 212.188 124.217C214.263 123.902 215.869 123.046 216.97 121.666C218.946 119.204 218.626 115.879 218.619 115.849L218.974 115.804C218.988 115.946 219.315 119.324 217.24 121.913Z" fill="#662C33"/>
<path d="M249.337 110.633C249.223 110.64 249.116 110.648 249.003 110.648C245.805 110.648 242.466 106.955 242.295 106.768L242.551 106.505C242.594 106.557 245.919 110.235 248.988 110.265C249.109 110.385 249.223 110.505 249.337 110.633Z" fill="#662C33"/>
<path d="M227.501 171.569C227.437 171.734 227.38 171.891 227.323 172.041C225.192 172.867 223.237 173.205 221.454 173.205C215.77 173.205 211.833 169.73 209.673 167.096C209.722 166.983 209.779 166.856 209.836 166.72C212.601 170.143 218.505 175.194 227.501 171.569Z" fill="#662C33"/>
<path d="M235.225 124.615C235.701 126.769 236.006 129.119 236.02 131.588C235.9 131.648 235.779 131.715 235.665 131.805C235.651 120.472 229.44 111.631 229.37 111.533L229.654 111.308C229.711 111.383 233.392 116.637 235.133 124.225C235.857 123.722 236.347 123.002 236.553 122.071C237.449 118.093 233.377 111.594 233.342 111.526L233.633 111.316C233.804 111.594 237.826 118.018 236.902 122.153C236.66 123.234 236.092 124.052 235.225 124.615Z" fill="#662C33"/>
<path d="M267.25 130.319C266.191 131.535 265.196 132.571 265.104 132.661L264.912 132.864L264.82 132.593C263.427 128.743 254.474 120.397 254.381 120.315L254.275 120.21L255.767 117.598C255.859 117.696 255.945 117.786 256.023 117.876L254.773 120.067C256.513 120.705 257.75 120.818 258.616 120.705C258.723 120.818 258.822 120.938 258.929 121.05C258.638 121.103 258.325 121.133 257.998 121.133C257.196 121.133 256.279 120.96 255.249 120.63C257.281 122.566 263.597 128.751 265.047 132.196C265.608 131.611 266.319 130.837 267.008 130.049C267.094 130.14 267.172 130.229 267.25 130.319Z" fill="#662C33"/>
<path d="M218.122 156.13L217.98 156.16C217.844 156.198 216.232 156.551 214.377 156.551C213.446 156.551 212.465 156.461 211.578 156.198C211.578 156.063 211.578 155.935 211.57 155.808C213.915 156.52 217.048 155.973 217.759 155.83L217.162 140.212C216.828 141.067 216.168 142.238 214.931 142.883C214.341 143.198 213.681 143.348 212.956 143.348C212.522 143.348 212.068 143.296 211.585 143.183V142.801C212.813 143.101 213.88 143.018 214.768 142.545C216.274 141.758 216.871 140.069 217.056 139.401C215.869 139.588 213.475 138.95 211.649 138.357V137.967C213.617 138.597 216.281 139.326 217.24 138.973L217.468 138.89L218.122 156.13Z" fill="#662C33"/>
<path d="M279.052 150.291C276.985 152.445 272.75 155.74 266.234 155.74C265.545 155.74 264.827 155.702 264.081 155.62L263.818 155.214C271.74 156.175 276.707 152.25 278.917 149.908C278.967 150.044 279.01 150.163 279.052 150.291Z" fill="#662C33"/>
<path d="M244.377 17.3661C244.377 17.3661 243.586 15.4435 240.247 15.4428C237.674 15.4422 236.689 16.9442 236.689 16.9442C235.149 21.6972 233.494 39.8978 232.902 40.5454C232.602 40.874 213.513 54.4534 213.513 54.4534C223.872 54.6583 230.335 68.1451 230.335 68.1451C230.67 63.7133 242.369 46.1508 242.495 44.5852C242.731 41.6311 247.681 28.4362 244.377 17.3661Z" fill="#CE364C"/>
<path d="M211.238 112.53C211.238 112.53 211.142 116.327 212.304 116.577C213.467 116.827 222.941 119.785 233.837 114.554C244.732 109.322 246.627 105.444 243.43 102.567C240.232 99.6899 211.238 112.53 211.238 112.53Z" fill="#CE364C"/>
<path d="M206.872 57.0809C206.872 57.0809 196.959 55.8405 191.275 58.439C191.275 58.439 189.69 65.8696 197.499 82.4985C205.308 99.1275 203.497 109.6 212.305 113.542C220.113 117.038 243.134 106.637 243.857 103.187C245.677 94.5029 231.599 79.2625 230.711 70.4313C229.823 61.6007 221.651 48.3234 206.872 57.0809Z" fill="#F24052"/>
<path d="M191.275 58.4391C184.347 61.0377 176.553 69.2538 176.542 73.2138C176.531 77.1745 183.043 78.7009 183.043 78.7009L193.718 73.2138C193.718 73.2138 196.772 70.962 194.827 64.3981C192.884 57.8341 191.275 58.4391 191.275 58.4391Z" fill="#CE364C"/>
<path d="M219.741 65.7615C217.671 65.7615 215.104 64.974 213.508 63.7734C212.629 63.1109 212.105 62.3646 211.991 61.6143C211.6 59.015 213.996 57.6935 214.099 57.6387L214.421 58.3066C214.338 58.3519 212.384 59.4402 212.693 61.496C212.775 62.0435 213.2 62.6195 213.92 63.1616C215.706 64.5069 218.796 65.2958 220.807 64.9213C221.714 64.7523 222.307 64.4075 222.57 63.8978C222.892 63.2745 222.617 62.5681 222.615 62.5613L223.267 62.2646C223.285 62.3065 223.682 63.3002 223.199 64.2473C222.829 64.9733 222.066 65.4485 220.931 65.6601C220.563 65.7284 220.162 65.7615 219.741 65.7615Z" fill="#CFD8DC"/>
<path d="M210.955 73.6806C209.423 73.6806 206.877 73.0052 206.521 70.3472C206.339 68.9939 206.456 67.8663 206.559 66.8712C206.711 65.4057 206.831 64.2477 206.022 62.8605C204.687 60.5709 202.87 60.4168 202.793 60.4114L202.836 59.6624C202.927 59.6678 205.089 59.8293 206.628 62.4671C207.563 64.0739 207.419 65.4726 207.265 66.953C207.162 67.9501 207.055 68.9817 207.224 70.2418C207.61 73.1094 211.071 72.9302 211.217 72.9221L211.259 73.6711C211.163 73.6772 211.062 73.6806 210.955 73.6806Z" fill="#CFD8DC"/>
<path d="M213.112 60.2104C213.112 60.2104 218.352 56.4404 217.109 52.3594C215.865 48.2783 198.99 48.5602 194.637 53.4382C190.285 58.3169 204.052 61.555 204.052 61.555C205.118 59.2863 211.928 59.0362 213.112 60.2104Z" fill="#CE364C"/>
<path d="M203.69 59.5721C201.204 58.6804 199.73 56.7849 200.263 54.5954C200.796 52.4065 211.486 52.3483 213.513 54.0971C215.54 55.8466 212.684 62.7973 203.69 59.5721Z" fill="#A02E44"/>
<path d="M202.507 53.4196C202.507 53.4196 204.707 57.389 203.691 59.5718C203.691 59.5718 211.237 62.3238 211.237 57.8636C211.237 57.8636 209.815 54.5208 210.351 52.3596L202.507 53.4196Z" fill="#EF6E4B"/>
<path d="M199.99 49.9527C199.99 49.9527 196.282 43.68 196.626 37.688C196.798 34.692 198.256 33.5184 198.256 33.5184C198.256 33.5184 197.079 31.7892 198.341 29.1467C198.341 29.1467 200.087 31.2815 206.217 30.6076C212.128 29.9586 212.718 34.4094 212.718 34.4094C216.943 35.0725 214.093 48.5729 211.144 49.9527H199.99Z" fill="#FFB878"/>
<path d="M198.417 44.1604C198.417 44.1604 196.286 41.914 196.023 44.5403C195.719 47.583 198.336 48.8086 198.847 47.8405C199.359 46.8725 198.417 44.1604 198.417 44.1604Z" fill="#FF8B66"/>
<path d="M213.341 44.3188C213.341 44.3188 215.473 42.0724 215.735 44.6987C216.039 47.7407 213.423 48.967 212.911 47.9989C212.4 47.0309 213.341 44.3188 213.341 44.3188Z" fill="#FF8B66"/>
<path d="M205.655 55.181C200.926 55.181 198.257 51.9179 198.257 42.1328C198.257 37.0851 200.688 33.989 205.985 33.989C211.282 33.989 213.513 37.0851 213.513 42.1328C213.513 52.648 210.54 55.181 205.655 55.181Z" fill="#FF8B66"/>
<path d="M211.947 45.6228C212.03 46.125 211.615 46.6212 211.021 46.7301C210.426 46.8396 209.877 46.5212 209.794 46.0196C209.711 45.5173 210.126 45.0218 210.72 44.9123C211.314 44.8028 211.863 45.1212 211.947 45.6228Z" fill="#DB614D"/>
<path d="M202.22 45.8963C202.188 46.4047 201.675 46.7832 201.073 46.742C200.471 46.7007 200.008 46.2546 200.039 45.7462C200.071 45.2379 200.584 44.8586 201.186 44.9006C201.788 44.9418 202.251 45.388 202.22 45.8963Z" fill="#DB614D"/>
<path d="M209.864 40.3762C209.802 40.3863 209.738 40.3708 209.684 40.3275C208.932 39.7164 207.802 39.9327 207.784 39.9354C207.659 39.957 207.533 39.8719 207.509 39.736C207.484 39.6001 207.569 39.4703 207.698 39.4446C207.747 39.4331 209.053 39.1857 209.972 39.9314C210.075 40.0159 210.095 40.1727 210.016 40.2815C209.978 40.3349 209.922 40.3667 209.864 40.3762Z" fill="#FFB878"/>
<path d="M200.813 40.4109C200.755 40.4035 200.7 40.3731 200.66 40.3217C200.577 40.2149 200.592 40.0574 200.692 39.9702C201.588 39.1948 202.9 39.4003 202.951 39.4098C203.08 39.4314 203.168 39.5585 203.148 39.6944C203.128 39.8309 203.002 39.9215 202.879 39.9032C202.87 39.8999 201.719 39.7261 200.992 40.3562C200.939 40.4014 200.875 40.419 200.813 40.4109Z" fill="#FFB878"/>
<path d="M209.375 43.1956C209.375 43.8155 209.111 44.3191 208.785 44.3185C208.458 44.3185 208.194 43.8155 208.194 43.1956C208.194 42.575 208.458 42.0721 208.785 42.0721C209.111 42.0721 209.375 42.575 209.375 43.1956Z" fill="#1A4850"/>
<path d="M203.06 43.1956C203.06 43.8155 202.796 44.3191 202.469 44.3185C202.143 44.3185 201.878 43.8155 201.878 43.1956C201.878 42.575 202.143 42.0721 202.469 42.0721C202.796 42.0721 203.06 42.575 203.06 43.1956Z" fill="#1A4850"/>
<path d="M199.707 35.0727C199.707 35.0727 204.747 37.0216 211.972 36.474C211.972 36.474 213.513 38.502 213.326 45.6582C213.326 45.6582 217.557 32.7675 205.206 32.7675C192.855 32.7675 198.419 45.3722 198.419 45.3722C198.419 45.3722 197.41 37.488 199.707 35.0727Z" fill="#FFB878"/>
<path d="M205.954 46.5313L205.6 46.1547L206.535 45.1725C205.628 43.8185 205.633 40.6839 205.634 40.5439L206.136 40.5466C206.136 40.5804 206.132 43.953 207.057 45.013L207.222 45.2009L205.954 46.5313Z" fill="#DB614D"/>
<path d="M202.815 48.1649C202.815 48.1649 207.47 48.3724 209.819 47.716C209.819 47.716 210.235 51.2907 206.628 51.4685C202.815 51.6558 202.815 48.1649 202.815 48.1649Z" fill="#1A4850"/>
<path d="M222.705 61.681C223.593 61.5066 223.504 63.9618 222.705 63.25C221.905 62.5388 221.816 61.8554 222.705 61.681Z" fill="#CFD8DC"/>
<path d="M211.994 73.5778C211.858 74.5215 209.691 73.6278 210.59 73.0634C211.488 72.4989 212.129 72.6341 211.994 73.5778Z" fill="#CFD8DC"/>
<path d="M202.46 78.7007C202.46 78.7007 201.049 82.5208 201.13 84.6792C201.21 86.837 201.878 86.5558 201.878 86.5558C201.878 86.5558 200.809 87.0006 200.606 88.2445C200.404 89.4883 203.377 90.4023 203.581 90.4023C203.786 90.4023 205.885 89.5579 205.885 89.5579L206.324 82.4985L204.467 81.2661L202.46 78.7007Z" fill="#EF6E4B"/>
<path d="M203.582 78.2061C203.582 78.2061 206.149 79.8948 207.144 80.927C208.138 81.9586 207.57 89.9334 207.144 90.3085C206.717 90.6837 203.443 91.4577 202.815 91.0237C202.187 90.5897 203.06 88.2447 203.06 88.2447C203.06 88.2447 204.704 87.8695 204.467 88.5259C204.23 89.183 204.467 89.7454 204.467 89.7454L205.142 89.4642C205.142 89.4642 204.81 87.6816 205.142 86.3681C205.474 85.0547 202.827 83.6695 202.507 81.2664C202.187 78.8632 203.582 78.2061 203.582 78.2061Z" fill="#FF8B66"/>
<path d="M176.968 74.321C176.146 70.5713 179.669 69.2443 184.571 69.8838C190.256 70.6254 201.929 72.1964 204.467 78.7009C204.467 78.7009 205.296 81.2663 203.151 82.4986C197.154 85.9428 178.512 81.3643 176.968 74.321Z" fill="#CE364C"/>
<path d="M194.751 71.8363C194.751 71.8363 187.976 68.8639 184.601 68.5624C181.225 68.2616 189.268 71.3766 194.751 71.8363Z" fill="#A02E44"/>
<path d="M245.535 7.41208C245.024 8.02724 244.178 10.4216 244.178 10.4216C243.823 12.4334 243.616 13.5441 242.949 14.4668C242.288 15.3902 242.636 17.0187 242.636 17.0187C242.636 17.0187 240.05 18.4228 237.875 16.6888C237.875 16.6888 238.103 15.0752 237.875 14.6169C237.428 13.7016 235.992 13.2135 235.502 11.3674C235.012 9.51377 233.541 7.44994 233.541 7.44994C233.541 7.44994 233.96 6.48867 234.727 7.07409C235.502 7.66761 235.992 9.14602 236.411 9.2961C236.497 9.32584 236.582 9.34882 236.667 9.35626C236.667 9.35626 236.674 9.35626 236.688 9.3637C237.008 9.40831 237.335 9.33328 237.535 9.13115C237.549 9.12304 237.57 9.10817 237.584 9.08586C238.287 8.22261 238.451 5.68558 238.422 4.5526C238.38 2.97617 238.437 0.800129 239.346 1.16787C240.256 1.53562 239.424 2.41374 240.128 5.88838L240.469 5.93367C240.533 6.18109 241.158 3.82455 241.307 1.61065C241.414 0.0869503 242.359 0.650057 242.565 1.13002C242.778 1.61065 242.459 3.12625 242.395 4.23015C242.345 4.95821 242.288 5.716 242.253 6.16622L242.65 6.39876C244.086 3.75695 243.595 2.66116 244.434 2.60843C245.265 2.55638 244.967 4.78515 244.519 5.63353C244.327 6.00127 244.143 6.76651 243.993 7.51686C245.464 5.72344 245.301 4.78515 245.975 4.89804C246.672 5.01769 246.047 6.79692 245.535 7.41208Z" fill="#FF8B66"/>
<path d="M239.183 11.5475C238.685 10.0989 236.909 9.43841 236.689 9.36338C237.009 9.40867 237.335 9.33363 237.534 9.13083C239.275 9.95623 239.183 11.5475 239.183 11.5475Z" fill="#EF6E4B"/>
<path d="M208.316 203.513C208.316 203.513 207.333 201.394 208.209 200.483C209.086 199.573 210.117 201.261 211.615 200.886C213.112 200.511 213.459 199.387 213.848 200.918C214.237 202.45 213.763 207.265 208.316 203.513Z" fill="#CFD8DC"/>
<path d="M213.952 203.419C213.952 203.419 209.93 204.924 207.846 203.419L208.375 205.258C208.375 205.258 212.746 205.747 213.349 204.583L213.952 203.419Z" fill="#ADBEC4"/>
<path d="M213.898 205.704C213.898 205.704 210.216 205.164 208.439 206.13V207.042C208.439 207.042 213.24 205.858 214.792 207.042L213.898 205.704Z" fill="#ADBEC4"/>
<path d="M208.262 208.935C208.262 208.935 208.977 207.097 211.217 206.965C213.457 206.832 214.968 208.136 214.968 208.136C214.968 208.136 211.416 206.59 208.262 208.935Z" fill="#ADBEC4"/>
<path d="M303.041 183.397C295.971 193.364 286.35 195.278 286.35 195.278C283.557 192.921 283.486 190.129 283.486 190.129C283.486 190.129 280.793 187.592 280.438 186.377C280.083 185.161 282.747 181.498 284.346 181.873C285.447 182.129 286.087 183.059 286.379 183.607C285.057 180.463 286.116 179.367 287.991 179.637C289.945 179.914 288.098 180.402 289.498 182.061C289.597 182.181 289.711 182.279 289.831 182.369C290.087 182.557 290.393 182.684 290.741 182.751C291.047 182.812 291.388 182.826 291.743 182.804C291.928 182.797 292.119 182.774 292.311 182.744C292.674 182.684 293.044 182.587 293.427 182.459C294.017 182.264 294.628 181.986 295.225 181.641C297.669 180.23 298.699 179.749 300.561 180.252C302.416 180.748 302.388 182.234 302.388 182.234L303.041 183.397Z" fill="#CFD8DC"/>
<path d="M303.041 183.397C295.971 193.364 286.35 195.278 286.35 195.278C291.26 193.049 295.772 190.129 298.856 186.534C301.933 182.939 303.041 183.397 303.041 183.397Z" fill="#ADBEC4"/>
<path d="M289.832 182.369C290.088 182.557 290.393 182.684 290.741 182.751C288.872 183.15 288.737 184.913 288.737 184.913L287.942 184.643C288.112 182.526 289.697 182.376 289.832 182.369Z" fill="#ADBEC4"/>
<path d="M291.089 185.123L290.258 185.154C289.945 183.907 290.35 183.164 290.741 182.752C291.046 182.812 291.388 182.827 291.743 182.804C290.755 183.832 291.089 185.123 291.089 185.123Z" fill="#ADBEC4"/>
<path d="M293.143 184.643L292.319 184.756C291.999 183.87 292.091 183.209 292.312 182.744C292.674 182.684 293.043 182.587 293.427 182.459C292.745 183.532 293.143 184.643 293.143 184.643Z" fill="#ADBEC4"/>
<path d="M214.025 92.0912C214.025 92.0912 215.85 102.492 212.16 106.637C208.47 110.782 210.911 107.376 212.012 102.032C213.112 96.688 212.274 91.0596 214.025 92.0912Z" fill="#CE364C"/>
<path d="M231.054 87.4493C231.054 87.4493 236.87 89.4679 239.913 95.1422C239.913 95.1422 235.85 85.904 231.054 87.4493Z" fill="#CE364C"/>
<path d="M79.9828 10.1745C80.7579 10.1873 83.0056 11.1324 83.0056 11.1324C84.6555 12.2045 85.5732 12.7893 86.6696 12.8859C87.7608 12.9887 88.2088 14.9694 88.2088 14.9694C88.2088 14.9694 92.5121 15.9638 92.7553 13.0975C92.7553 13.0975 90.3496 9.50053 90.1812 9.01516C89.8388 8.04983 90.4603 6.59914 89.4939 4.97539C88.5224 3.34758 88.0616 0.809875 88.0616 0.809875C88.0616 0.809875 87.106 0.493506 87.0017 1.48723C86.8974 2.49176 87.6059 3.8681 87.4299 4.29668C87.3934 4.38389 87.3524 4.46568 87.3 4.53734C87.3 4.53734 87.2955 4.54275 87.291 4.55897C87.108 4.83951 86.836 5.04501 86.5601 5.06462C86.5454 5.07138 86.5204 5.07746 86.4955 5.07341C85.4177 5.04501 83.5278 3.46993 82.7515 2.68645C81.6744 1.59539 80.1089 0.17849 79.7563 1.13706C79.4036 2.0963 80.578 2.03479 82.5441 4.9186L82.3464 5.21604C82.4776 5.43236 80.404 4.33927 78.7502 2.96969C77.6097 2.03073 77.3704 3.14816 77.5688 3.63217C77.7627 4.1216 79.0414 4.88886 79.8587 5.57973C80.4027 6.02927 80.9729 6.49368 81.3128 6.76814L81.2084 7.23593C78.3912 6.58562 77.9515 5.46616 77.3518 6.08741C76.7566 6.70324 78.5211 7.96601 79.4171 8.18503C79.8036 8.2817 80.4648 8.6508 81.092 9.03815C78.8456 8.98542 78.2971 8.22762 77.9227 8.83129C77.54 9.45727 79.2078 10.1617 79.9828 10.1745Z" fill="#FF8B66"/>
<path d="M87.1492 7.97791C86.467 6.61644 87.196 4.78178 87.2913 4.55937C87.1083 4.83991 86.8356 5.04542 86.5604 5.06502C85.971 6.98216 87.1492 7.97791 87.1492 7.97791Z" fill="#EF6E4B"/>
<path d="M206.61 10.1745C205.835 10.1873 203.588 11.1324 203.588 11.1324C201.938 12.2045 201.02 12.7893 199.924 12.8859C198.832 12.9887 198.384 14.9694 198.384 14.9694C198.384 14.9694 194.081 15.9638 193.838 13.0975C193.838 13.0975 196.244 9.50053 196.412 9.01516C196.754 8.04983 196.133 6.59914 197.099 4.97539C198.071 3.34758 198.532 0.809875 198.532 0.809875C198.532 0.809875 199.487 0.493506 199.591 1.48723C199.696 2.49176 198.987 3.8681 199.163 4.29668C199.2 4.38389 199.241 4.46568 199.293 4.53734C199.293 4.53734 199.298 4.54275 199.302 4.55897C199.485 4.83951 199.757 5.04501 200.033 5.06462C200.048 5.07138 200.073 5.07746 200.098 5.07341C201.176 5.04501 203.065 3.46993 203.842 2.68645C204.919 1.59539 206.484 0.17849 206.837 1.13706C207.19 2.0963 206.015 2.03479 204.049 4.9186L204.247 5.21604C204.116 5.43236 206.189 4.33927 207.843 2.96969C208.983 2.03073 209.223 3.14816 209.024 3.63217C208.831 4.1216 207.552 4.88886 206.735 5.57973C206.191 6.02927 205.62 6.49368 205.28 6.76814L205.385 7.23593C208.202 6.58562 208.642 5.46616 209.241 6.08741C209.837 6.70324 208.072 7.96601 207.176 8.18503C206.79 8.2817 206.128 8.6508 205.501 9.03815C207.748 8.98542 208.296 8.22762 208.671 8.83129C209.053 9.45727 207.385 10.1617 206.61 10.1745Z" fill="#FF8B66"/>
<path d="M199.444 7.97791C200.126 6.61644 199.397 4.78178 199.302 4.55937C199.485 4.83991 199.758 5.04542 200.033 5.06502C200.622 6.98216 199.444 7.97791 199.444 7.97791Z" fill="#EF6E4B"/>
<path d="M168.788 147.974L160.519 93.9005L143.964 95.8535L127.408 93.9005L119.14 147.974L115.169 200.419C115.169 200.419 116.431 204.764 124.69 201.762C124.69 201.762 130.818 153.119 131.765 152.048C132.713 150.977 142.442 119.204 142.442 119.204H145.485C145.485 119.204 155.215 150.977 156.162 152.048C157.11 153.119 163.237 201.762 163.237 201.762C171.496 204.764 172.759 200.419 172.759 200.419L168.788 147.974Z" fill="#0E3944"/>
<path d="M138.748 41.5358C139.794 42.6107 144.939 44.5501 147.656 41.5358L149.498 43.4469C149.498 43.4469 147.397 48.6642 143.711 48.8468C140.026 49.0293 137.361 44.2047 137.361 44.2047L138.748 41.5358Z" fill="#0C476B"/>
<path d="M153.319 40.9469C159.477 38.1462 179.373 30.7028 179.373 30.7028C179.373 30.7028 192.747 13.0037 195.475 10.3768C195.475 10.3768 198.436 10.9399 199.302 14.833C199.302 14.833 190.69 34.3113 186.009 39.8876C181.327 45.4639 157.616 57.5244 157.616 57.5244L153.319 40.9469Z" fill="#0C476B"/>
<path d="M131.765 40.5454C133.597 39.3218 142.795 45.8215 142.795 45.8215C142.795 45.8215 154.753 39.1143 157.559 40.4129C157.559 40.4129 160.088 43.9875 161.104 53.1771C162.12 62.3666 162.188 100.183 162.188 100.183C162.188 100.183 154.148 103.187 143.274 103.187C130.877 103.187 124.207 99.4324 124.207 99.4324C124.207 99.4324 121.995 47.0721 131.765 40.5454Z" fill="#FFB878"/>
<path d="M139.234 39.5631C139.234 39.5631 140.558 43.9632 139.234 45.6586C139.234 45.6586 140.609 48.7067 143.082 48.8412C145.937 48.9974 146.929 45.6586 146.929 45.6586C146.929 45.6586 145.418 41.4086 146.929 39.9153L139.234 39.5631Z" fill="#EF6E4B"/>
<path d="M135.932 35.232C135.932 35.232 133.145 29.5657 133.697 23.5101C134.248 17.4552 142.887 16.0667 148.708 19.0418C148.708 19.0418 146.98 17.2571 147.656 16.761C148.332 16.2654 149.498 19.4386 149.498 19.4386C149.498 19.4386 151.336 18.8437 151.618 19.4386C151.9 20.0335 149.735 20.3593 149.735 20.3593C149.735 20.3593 153.491 22.559 149.982 34.27L135.932 35.232Z" fill="#8B383E"/>
<path d="M135.513 31.6435C135.513 31.6435 133.435 29.4533 133.179 32.014C132.883 34.9803 135.434 36.1754 135.932 35.2317C136.431 34.288 135.513 31.6435 135.513 31.6435Z" fill="#FF8B66"/>
<path d="M150.066 31.7981C150.066 31.7981 152.144 29.6072 152.4 32.1679C152.696 35.1348 150.145 36.33 149.646 35.3863C149.148 34.4426 150.066 31.7981 150.066 31.7981Z" fill="#FF8B66"/>
<path d="M142.57 42.3896C137.959 42.3896 135.357 39.2083 135.357 29.6659C135.357 24.7446 137.727 21.7256 142.892 21.7256C148.057 21.7256 150.232 24.7446 150.232 29.6659C150.232 39.9195 147.334 42.3896 142.57 42.3896Z" fill="#FF8B66"/>
<path d="M148.705 33.0696C148.787 33.559 148.382 34.043 147.802 34.1492C147.223 34.256 146.687 33.9457 146.607 33.4563C146.526 32.9668 146.93 32.4835 147.51 32.3767C148.089 32.2699 148.625 32.5802 148.705 33.0696Z" fill="#DB614D"/>
<path d="M139.221 33.336C139.19 33.8322 138.69 34.2013 138.102 34.1607C137.515 34.1202 137.064 33.6855 137.095 33.19C137.126 32.6938 137.626 32.3247 138.214 32.3653C138.801 32.4052 139.252 32.8405 139.221 33.336Z" fill="#DB614D"/>
<path d="M146.596 28.1184C146.536 28.1184 146.476 28.0934 146.43 28.0434C145.791 27.3356 144.672 27.366 144.655 27.366C144.531 27.3667 144.422 27.2646 144.418 27.1301C144.413 26.9956 144.513 26.8833 144.641 26.8793C144.69 26.8759 145.983 26.8435 146.763 27.7074C146.851 27.8047 146.847 27.9589 146.756 28.0515C146.711 28.0968 146.653 28.1184 146.596 28.1184Z" fill="#8B383E"/>
<path d="M137.914 28.1184C137.857 28.1184 137.8 28.0968 137.755 28.0515C137.663 27.9589 137.66 27.8047 137.747 27.7074C138.527 26.8435 139.819 26.8766 139.869 26.8793C139.997 26.8833 140.097 26.9956 140.092 27.1294C140.088 27.2639 139.977 27.3674 139.855 27.366C139.846 27.364 138.713 27.3417 138.081 28.0434C138.035 28.0934 137.975 28.1184 137.914 28.1184Z" fill="#8B383E"/>
<path d="M146.198 30.7028C146.198 31.3078 145.94 31.7979 145.622 31.7979C145.304 31.7979 145.046 31.3078 145.046 30.7028C145.046 30.0978 145.304 29.607 145.622 29.607C145.94 29.607 146.198 30.0978 146.198 30.7028Z" fill="#1A4850"/>
<path d="M140.04 30.7028C140.04 31.3078 139.782 31.7979 139.464 31.7979C139.146 31.7979 138.888 31.3078 138.888 30.7028C138.888 30.0978 139.146 29.607 139.464 29.607C139.782 29.607 140.04 30.0978 140.04 30.7028Z" fill="#1A4850"/>
<path d="M140.04 37.1741C140.04 37.1741 144.107 37.7271 146.198 36.6665C146.198 36.6665 145.016 39.5908 142.795 39.3285C140.574 39.0663 140.04 37.1741 140.04 37.1741Z" fill="#1A4850"/>
<path d="M149.753 32.8792C149.753 32.8792 149.609 27.582 147.656 23.5105C147.656 23.5105 144.214 25.1904 143.456 24.7935C142.698 24.3967 144.178 23.5105 144.178 23.5105C144.178 23.5105 138.499 25.4878 138.158 25.0917C137.817 24.6948 140.04 23.5105 140.04 23.5105L136.502 24.7935C136.502 24.7935 135.411 29.56 135.863 32.8792C135.863 32.8792 134.343 30.1083 134.155 28.1945C133.967 26.2814 134.763 20.8268 140.092 20.4306C145.422 20.0338 148.414 21.3108 149.735 23.8951C151.055 26.4795 150.891 29.6594 149.753 32.8792Z" fill="#8B383E"/>
<path d="M143.374 35.6438C142.926 35.6438 142.471 35.5215 142.333 35.4809L142.464 34.9827C142.948 35.124 143.707 35.2078 143.872 35.0016C143.929 34.93 143.906 34.7637 143.809 34.5453C143.142 33.0487 143.004 29.2583 142.998 29.0974L143.488 29.0785C143.489 29.117 143.628 32.9236 144.253 34.3249C144.443 34.7522 144.441 35.0922 144.246 35.3349C144.057 35.5722 143.718 35.6438 143.374 35.6438Z" fill="#DB614D"/>
<path d="M148.476 42.9299C148.476 42.9299 156.821 70.2944 157.616 92.5598C157.616 92.5598 160.629 93.4359 164.02 88.5572C167.412 83.6785 165.394 45.037 158.897 38.6028C158.897 38.6028 155.949 37.893 148.476 42.9299Z" fill="#105E99"/>
<path d="M149.836 47.7157C149.836 47.7157 151.33 44.0498 150.666 41.5358C150.003 39.0217 147.656 41.5358 147.656 41.5358C147.656 41.5358 148.604 45.6519 149.836 47.7157Z" fill="#0C476B"/>
<path d="M133.085 40.9469C126.927 38.1462 107.031 30.7028 107.031 30.7028C107.031 30.7028 93.6232 12.4873 90.8955 9.86035C90.8955 9.86035 87.5201 11.8775 87.291 16.0525C87.291 16.0525 95.7147 34.3113 100.396 39.8876C105.077 45.4639 128.788 57.5244 128.788 57.5244L133.085 40.9469Z" fill="#0C476B"/>
<path d="M137.928 42.9299C137.928 42.9299 129.583 70.2944 128.788 92.5598C128.788 92.5598 125.775 93.4359 122.384 88.5572C118.993 83.6785 121.01 45.037 127.507 38.6028C127.507 38.6028 130.455 37.893 137.928 42.9299Z" fill="#105E99"/>
<path d="M136.568 47.7157C136.568 47.7157 135.074 44.0498 135.738 41.5358C136.401 39.0217 138.748 41.5358 138.748 41.5358C138.748 41.5358 137.8 45.6519 136.568 47.7157Z" fill="#0C476B"/>
<path d="M180.121 214.522H163.55C162.392 207.564 164.24 200.599 164.24 200.599L171.814 199.226C172.503 203.624 173.335 205.358 174.486 206.251H174.493C175.332 206.896 176.333 207.107 177.584 207.564C179.012 208.09 179.765 209.043 180.142 210.078C180.888 212.135 180.121 214.522 180.121 214.522Z" fill="#662C33"/>
<path d="M180.142 210.078C176.056 210.619 167.081 211.542 167.629 209.043C168.084 206.956 171.871 206.394 174.486 206.251H174.493C175.332 206.897 176.333 207.107 177.584 207.564C179.012 208.09 179.766 209.043 180.142 210.078Z" fill="#8B383E"/>
<path d="M124.626 214.522H108.055C108.055 214.522 107.529 212.886 107.771 211.152C107.97 209.741 108.681 208.262 110.592 207.564C112.027 207.039 113.129 206.844 114.031 205.951C115.012 204.975 115.744 203.174 116.362 199.226L123.936 200.599C123.936 200.599 125.777 207.564 124.626 214.522Z" fill="#662C33"/>
<path d="M107.771 211.152C107.97 209.741 108.68 208.262 110.592 207.564C112.027 207.039 113.128 206.844 114.031 205.951C116.128 206.633 119.062 207.887 119.971 209.786C121.236 212.39 111.552 211.977 107.771 211.152Z" fill="#8B383E"/>
<path d="M243.588 213.268C243.588 214.004 243.517 214.522 243.517 214.522H223.387C223.387 214.101 223.394 213.681 223.415 213.268C223.643 207.707 225.305 202.881 225.305 202.881L230.336 200.599C230.77 203.338 231.885 205.087 233.285 206.228C233.654 206.536 234.038 206.791 234.436 207.009C234.621 207.114 234.805 207.211 234.997 207.302C235.417 207.504 235.85 207.67 236.283 207.804C238.06 208.375 239.858 208.495 241.115 208.698C243.261 209.05 243.588 211.669 243.588 213.268Z" fill="#164353"/>
<path d="M243.588 213.268C243.588 214.004 243.517 214.522 243.517 214.522H223.387C223.387 214.101 223.394 213.681 223.415 213.268H243.588Z" fill="#225866"/>
<path d="M234.436 207.009L231.644 207.955L231.054 206.874L233.285 206.228C233.655 206.536 234.038 206.791 234.436 207.009Z" fill="#225866"/>
<path d="M236.284 207.804L234.401 209.125L233.242 208.645L234.997 207.301C235.417 207.504 235.85 207.669 236.284 207.804Z" fill="#225866"/>
<path d="M166.677 213.268C166.627 213.989 166.45 214.522 166.45 214.522H153.041C152.871 214.109 152.75 213.696 152.665 213.268C151.343 206.491 160.253 198.197 160.253 198.197L163.081 202.183C163.081 202.183 162.754 208.563 165.149 209.891C166.585 210.687 166.769 212.187 166.677 213.268Z" fill="#164353"/>
<path d="M152.664 213.268H166.677C166.627 213.989 166.449 214.522 166.449 214.522H153.041C152.871 214.109 152.75 213.696 152.664 213.268Z" fill="#225866"/>
<path d="M164.536 209.383C164.536 209.383 158.887 208.023 156.312 209.784V208.799C156.312 208.799 161.064 206.36 164.536 209.383Z" fill="#225866"/>
<path d="M163.417 207.869C163.417 207.869 159.81 206.127 156.311 207.869L156.711 206.875C156.711 206.875 160.89 205.206 163.417 207.869Z" fill="#225866"/>
<path d="M237.513 153.015C237.52 158.712 232.731 205.155 232.731 205.155C227.942 205.658 224.104 204.644 224.104 204.644C222.79 181.108 222.662 160.866 222.662 160.866L199.711 142.696L199.654 142.65C199.654 142.65 199.569 143.063 199.412 143.799C198.276 149.128 193.465 171.449 191.461 176.56C189.18 182.384 164.241 206.876 164.241 206.876C159.608 206.2 155.677 202.655 155.677 202.655C164.63 186.97 176.838 171.238 176.838 171.238C177.79 165.587 178.472 153.015 178.877 143.619C178.884 143.476 178.891 143.326 178.898 143.184C179.169 136.819 179.304 132.016 179.304 132.016L175.097 122.904L201.821 112.532L207.811 120.63C207.811 120.63 209.183 121.974 211.343 124.12C211.442 124.217 211.542 124.315 211.642 124.413C219.663 132.406 237.513 150.464 237.513 153.015Z" fill="#8BBDDB"/>
<path d="M178.877 143.619C178.884 143.476 178.891 143.326 178.898 143.183C184.526 139.956 183.581 134.808 183.567 134.755L183.915 134.68C183.929 134.733 184.938 140.264 178.877 143.619Z" fill="#6097B2"/>
<path d="M199.299 139.056C199.491 140.181 199.633 141.397 199.711 142.696L199.654 142.651C199.654 142.651 199.569 143.064 199.413 143.799C199.164 134.973 195.717 129.757 195.675 129.696L195.966 129.479C196.001 129.524 198.176 132.841 199.228 138.628C203.292 134.815 199.313 127.002 199.271 126.927L199.583 126.747C199.626 126.829 203.84 135.1 199.299 139.056Z" fill="#6097B2"/>
<path d="M211.641 124.413C211.634 124.42 211.62 124.42 211.613 124.428C211.449 124.495 211.258 124.525 211.059 124.525C209.09 124.525 205.786 121.613 205.63 121.471L205.865 121.185C206.937 122.146 209.929 124.45 211.343 124.12C211.442 124.217 211.542 124.315 211.641 124.413Z" fill="#6097B2"/>
<path d="M176.968 74.3211C176.968 74.3211 185.097 72.9393 189.17 75.6819C193.243 78.4244 198.591 85.5826 198.591 85.5826C198.591 85.5826 192.242 86.4681 191.524 91.0237C191.524 91.0237 186.911 79.4222 176.968 74.3211" fill="#ADBEC4"/>
<path d="M164.739 78.7995C161.3 80.7633 155.552 88.1351 155.293 92.6683C155.039 97.0907 158.141 101.158 160.231 104.615C166.754 115.403 173.623 124.935 176.542 137.589C176.56 137.669 191.463 143.915 208.953 121.709C208.953 121.709 199.071 107.663 195.656 95.7056C194.267 90.8377 192.852 85.6677 190.183 81.3778C187.243 76.6525 182.207 73.8722 176.968 74.321C172.535 74.7009 168.127 76.8648 164.739 78.7995Z" fill="#CFD8DC"/>
<path d="M163.296 74.2739C163.296 74.2739 165.495 78.2433 164.479 80.4262C164.479 80.4262 172.026 83.1788 172.026 78.7179C172.026 78.7179 170.604 75.3751 171.14 73.2139L163.296 74.2739Z" fill="#EF6E4B"/>
<path d="M180.067 101.456C180.067 101.456 175.868 102.715 174.809 104.285C173.75 105.855 172.807 109.376 172.807 109.376H180.067L181.432 106.723L183.03 103.188L180.067 101.456Z" fill="#EF6E4B"/>
<path d="M173.127 69.8478C173.127 69.8478 176.074 68.5425 174.167 59.1779C172.903 52.9735 171.084 52.0488 169.908 51.9947C169.908 51.9947 168.469 49.7051 163.479 50.8009C160.061 51.5519 157.334 53.7442 156.134 57.8008C154.881 62.0353 157.387 71.112 160.688 72.0158L173.127 69.8478Z" fill="#164353"/>
<path d="M173.824 63.5201C173.824 63.5201 175.681 60.7891 176.382 63.4809C177.195 66.5993 174.666 68.3535 173.975 67.4368C173.284 66.5202 173.824 63.5201 173.824 63.5201Z" fill="#FF8B66"/>
<path d="M158.282 66.3982C158.282 66.3982 155.692 64.4425 155.847 67.2297C156.025 70.4582 158.954 71.2613 159.33 70.1588C159.706 69.0562 158.282 66.3982 158.282 66.3982Z" fill="#FF8B66"/>
<path d="M168.07 76.3314C173.003 75.4715 175.255 71.5832 173.661 61.3756C172.838 56.1102 169.798 53.3231 164.273 54.2857C158.747 55.2483 156.925 58.8832 157.747 64.1492C159.46 75.1173 162.973 77.2197 168.07 76.3314Z" fill="#FF8B66"/>
<path d="M159.949 67.5048C159.944 68.0436 160.458 68.4857 161.096 68.4918C161.734 68.4979 162.254 68.0659 162.259 67.5271C162.264 66.9884 161.751 66.5469 161.112 66.5409C160.475 66.5341 159.953 66.9661 159.949 67.5048Z" fill="#DB614D"/>
<path d="M170.14 66.022C170.255 66.5472 170.853 66.848 171.474 66.6959C172.096 66.5432 172.505 65.9936 172.39 65.469C172.274 64.9444 171.677 64.6423 171.056 64.795C170.434 64.9478 170.024 65.4974 170.14 66.022Z" fill="#DB614D"/>
<path d="M161.337 61.819C161.289 61.819 161.239 61.8042 161.197 61.7731C161.083 61.6913 161.053 61.527 161.131 61.4067C161.821 60.3379 163.205 60.1331 163.264 60.1243C163.409 60.1074 163.526 60.2074 163.544 60.3508C163.562 60.4954 163.467 60.6279 163.33 60.6475C163.317 60.6496 162.105 60.8321 161.544 61.7034C161.495 61.7785 161.417 61.819 161.337 61.819Z" fill="#1A4850"/>
<path d="M170.625 60.2003C170.573 60.2003 170.52 60.1828 170.475 60.1469C169.676 59.5101 168.476 59.7508 168.465 59.7528C168.327 59.7846 168.198 59.6886 168.171 59.5453C168.144 59.4027 168.232 59.2634 168.367 59.2357C168.425 59.2235 169.799 58.947 170.776 59.7258C170.887 59.813 170.908 59.9786 170.825 60.0949C170.776 60.1638 170.701 60.2003 170.625 60.2003Z" fill="#1A4850"/>
<path d="M162.236 64.5054C162.337 65.153 162.695 65.6295 163.035 65.5701C163.376 65.5106 163.57 64.938 163.469 64.2904C163.367 63.6435 163.01 63.1676 162.669 63.2264C162.329 63.2859 162.135 63.8584 162.236 64.5054Z" fill="#1A4850"/>
<path d="M168.824 63.3576C168.925 64.0046 169.283 64.4812 169.623 64.4217C169.963 64.3622 170.157 63.7896 170.056 63.1427C169.955 62.4957 169.597 62.0192 169.257 62.0787C168.916 62.1381 168.723 62.7107 168.824 63.3576Z" fill="#1A4850"/>
<path d="M170.673 69.2326C170.673 69.2326 166.394 70.4447 164.02 69.9634C164.02 69.9634 165.661 72.1462 168.003 71.5168C170.345 70.8868 170.673 69.2326 170.673 69.2326Z" fill="#1A4850"/>
<path d="M170.875 56.6385C170.875 56.6385 165.307 60.8966 158.319 61.2211L158.516 67.7925C158.516 67.7925 152.002 55.1148 164.886 52.8698C177.769 50.6241 174.019 64.785 174.019 64.785C174.019 64.785 173.62 58.6773 170.875 56.6385Z" fill="#0E3944"/>
<path d="M166.321 67.467L166.286 66.8992C166.294 66.8985 167.037 66.8377 167.229 66.3516C167.309 66.1515 166.992 65.5134 166.713 64.951C166.326 64.1688 165.843 63.1961 165.638 62.1151L166.166 62.0029C166.356 63.0041 166.818 63.937 167.191 64.6867C167.605 65.5215 167.904 66.1245 167.727 66.572C167.403 67.3839 166.365 67.4643 166.321 67.467Z" fill="#DB614D"/>
<path d="M173.896 56.6546C164.531 52.3613 155.691 61.2629 155.691 61.2629C155.691 61.2629 154.661 54.0499 156.466 52.3613C156.935 51.9185 157.44 51.5285 157.965 51.183C162.101 48.429 167.6 48.4811 170.123 49.4268C170.642 49.6221 171.04 49.8547 171.267 50.1021C172.759 51.7387 173.896 56.6546 173.896 56.6546Z" fill="#CE364C"/>
<path d="M172.759 55.0484C172.759 55.0484 164.893 53.405 157.56 58.5311C157.56 58.5311 157.091 53.8776 157.966 51.183C162.101 48.429 167.601 48.4811 170.123 49.4268C171.594 51.1986 172.759 55.0484 172.759 55.0484Z" fill="#CFD8DC"/>
<path d="M156.466 60.4146C156.466 60.4146 157.713 54.8207 159.393 53.245C162.187 50.6241 170.04 49.7237 174.167 51.3001C178.295 52.8759 174.167 57.639 174.167 57.639C174.167 57.639 167.59 52.6616 156.466 60.4146Z" fill="#A02E44"/>
<path d="M168.612 97.5857C168.612 97.5857 171.827 102.845 177.301 105.939C177.301 105.939 184.15 99.6603 193.03 100.225C193.03 100.225 185.67 114.251 179.35 115.804C176.029 116.621 164.02 108.221 164.02 108.221C164.02 108.221 166.417 99.294 168.612 97.5857Z" fill="#FF8B66"/>
<path d="M156.773 88.0509C159.716 82.9924 166.502 90.4703 168.812 95.8113C171.122 101.152 172.807 102.284 172.807 102.284C172.807 102.284 166.026 105.277 166.075 110.645C166.075 110.645 150.354 99.0893 156.773 88.0509Z" fill="#ADBEC4"/>
<path d="M177.301 103.629C177.301 103.629 181.432 99.3481 195.014 93.7616L193.26 87.9352C194.818 85.7693 197.682 85.7693 197.682 85.7693C197.682 85.7693 204.641 96.1486 203.443 99.2487C202.695 101.185 188.18 103.217 177.301 103.629Z" fill="#EF6E4B"/>
<path d="M192.176 95.1601C192.176 95.1601 192.283 94.5469 192.785 93.7986C193.287 93.0503 193.15 91.6875 193.331 91.2656C193.511 90.8431 194.579 89.118 195.288 88.782C195.998 88.4467 196.928 87.8978 197.125 88.8483C197.323 89.7987 195.855 89.5297 195.196 90.8972C195.196 90.8972 196.638 90.4044 197.783 90.6904C198.927 90.9763 199.251 92.0809 197.837 92.0444C196.71 92.0153 195.257 92.8644 195.257 92.8644C195.257 92.8644 196.727 93.0976 196.49 93.8135C196.162 94.8025 194.37 94.1934 192.176 95.1601Z" fill="#FF8B66"/>
<path d="M91.7242 114.701C92.9382 117.984 97.9117 123.613 97.9117 123.613C97.9117 123.613 110.061 115.92 115.667 119.157C121.272 122.394 125.726 124.369 129.361 122.959C132.996 121.549 117.409 91.6059 117.409 91.6059L97.1981 83.4601C97.1981 83.4601 96.7571 88.8594 94.448 89.8186C92.1389 90.7778 89.6768 99.6902 89.8419 101.379C90.007 103.068 91.7242 114.701 91.7242 114.701Z" fill="#3E6575"/>
<path d="M114.463 123.809C114.463 123.809 109.252 134.599 98.4929 148.418C98.4929 148.418 97.3902 164.851 68.9384 190.706L65.9598 188.23C65.9598 188.23 82.9038 160.197 86.2926 151.601C89.682 143.005 84.4193 135.13 100.011 113.39L114.463 123.809Z" fill="#EF6E4B"/>
<path d="M97.8763 104.715C93.3906 113.792 91.8847 125.396 91.8847 125.396L89.8418 130.84C89.8418 130.84 97.0879 134.967 105.455 136.469L108.811 127.087L97.8763 104.715Z" fill="#662C33"/>
<path d="M121.274 122.959C121.274 122.959 123.496 134.842 123.13 152.73C123.13 152.73 131.884 166.365 124.659 205.267H120.87C120.87 205.267 117.774 172.169 115.406 163.2C113.037 154.231 104.29 151.479 103.817 124.21L121.274 122.959Z" fill="#FF8B66"/>
<path d="M123.496 135.716C123.496 135.716 116.369 137.066 103.813 136.444L103.614 134.95L103.564 134.567L102.264 124.9C102.264 124.9 101.056 123.325 99.8126 120.758C99.6635 120.457 99.5214 120.149 99.3793 119.827C97.6884 116.022 96.1889 110.49 97.8728 104.718L100.523 104.846L100.893 104.868L109.761 105.296L110.137 105.319L113.05 105.462L113.505 105.484L115.395 105.574C115.395 105.574 125.002 114.708 123.29 131.595L123.411 133.945L123.425 134.327L123.496 135.716Z" fill="#8B383E"/>
<path d="M100.893 104.869C100.644 105.642 98.967 111.376 99.8125 120.757C99.6634 120.457 99.5213 120.15 99.3792 119.827C98.7469 111.248 100.204 105.897 100.524 104.846C100.566 104.719 100.588 104.659 100.588 104.651L100.921 104.779C100.921 104.786 100.907 104.816 100.893 104.869Z" fill="#662C33"/>
<path d="M123.425 134.327C120.903 135.01 116.625 135.198 112.56 135.198C108.915 135.198 105.455 135.04 103.614 134.95L103.564 134.567C106.755 134.733 115.154 135.078 120.568 134.455L120.22 128.413C120.305 121.366 118.287 115.346 116.341 111.188C111.409 110.243 110.052 106.385 109.761 105.296C109.718 105.124 109.697 105.019 109.697 105.011L110.045 104.952C110.045 104.959 110.073 105.094 110.137 105.319C110.457 106.445 111.779 109.8 116.135 110.76C114.82 108.051 113.576 106.197 113.05 105.462C112.894 105.237 112.795 105.109 112.788 105.102L113.057 104.861C113.072 104.877 113.235 105.086 113.505 105.484C115.154 107.848 120.718 116.742 120.575 128.398L120.924 134.41C121.869 134.289 122.714 134.139 123.411 133.945L123.425 134.327Z" fill="#662C33"/>
<path d="M105.27 63.9963C102.442 62.351 82.0622 70.7928 82.0622 70.7928C82.0622 70.7928 79.0472 76.4733 80.9262 78.7007C82.8059 80.9281 89.474 79.9459 91.5169 78.7007C93.5598 77.4555 98.971 76.5132 98.971 76.5132L105.27 63.9963Z" fill="#8BBDDB"/>
<path d="M123.292 46.076C123.292 46.076 127.502 47.7924 129.041 52.9151C130.581 58.0379 125.978 71.0069 127.569 76.9686C129.16 82.9309 128.913 94.1883 123.944 96.5651C118.975 98.9419 108.784 94.6892 106.597 88.1841C104.408 81.6796 105.353 57.0374 109.559 48.6563C113.764 40.2753 122.279 44.4962 123.292 46.076Z" fill="#F24052"/>
<path d="M118.454 68.1783C119.564 69.4424 122.419 67.1893 122.419 67.1893C122.419 67.1893 122.361 78.3683 119.285 79.2255C116.209 80.0827 108.37 70.4193 108.692 67.7923C109.015 65.1654 115.991 65.3743 118.454 68.1783Z" fill="#8BBDDB"/>
<path d="M106.596 65.3828C106.596 65.3828 109.708 68.1733 115.128 69.5003C120.549 70.828 123.487 68.1362 126.259 71.8278C130.42 77.369 123.65 87.584 120.089 92.8771C118.761 94.851 115.958 100.325 115.393 105.576C115.393 105.576 105.987 108.462 97.8764 104.715L97.271 92.5276C97.271 92.5276 92.158 76.1028 106.596 65.3828Z" fill="#0E3944"/>
<path d="M116.32 77.24C116.32 77.24 120.618 66.422 121.863 65.7311C123.108 65.0409 126.264 66.6984 126.897 68.1782C127.531 69.658 126.897 72.8859 126.897 72.8859C126.897 72.8859 123.508 68.8001 116.32 77.24" fill="#8BBDDB"/>
<path d="M136.904 122.957C134.95 127.182 130.153 128.398 130.153 128.398C130.153 128.398 129.791 127.812 129.181 126.762C129.116 126.657 129.046 126.537 128.982 126.416C125.208 119.955 113.676 99.277 113.903 88.5219C114.166 75.6732 122.103 68.6177 122.103 68.6177C126.132 69.6311 127.404 70.7945 127.404 70.7945C127.404 70.7945 128.761 78.1047 127.517 86.9008C126.274 95.6895 124.015 98.0163 125.151 98.6768C126.281 99.3298 125.151 100.643 125.151 100.643C125.151 100.643 131.838 110.483 133.088 113.545C133.899 115.542 135.277 118.934 136.137 121.05C136.194 121.2 136.251 121.35 136.307 121.486C136.67 122.379 136.904 122.957 136.904 122.957Z" fill="#6097B2"/>
<path d="M125.29 70.7927C125.29 70.7927 120.503 74.5411 123.292 80.2682L136.562 94.7785C129.278 102.976 128.557 106.342 123.292 110.121L125.29 113.389C125.29 113.389 143.728 98.4215 143.756 94.7785C143.767 93.219 132.493 74.3532 125.29 70.7927Z" fill="#FF8B66"/>
<path d="M123.001 110.122C123.001 110.122 120.471 110.418 118.878 110.839C117.286 111.259 115.163 111.68 115.096 112.03C115.029 112.381 118.613 112.03 118.613 112.03C118.613 112.03 115.693 113.298 115.627 113.786C115.561 114.274 119.343 113.432 119.343 113.432C119.343 113.432 116.954 114.975 117.087 115.395C117.22 115.816 120.162 114.764 120.162 114.764C120.162 114.764 119.615 116.236 119.048 116.937C119.048 116.937 119.618 117.268 120.775 115.911C121.931 114.554 123.778 114.99 125.24 113.786C126.702 112.581 124.332 109.941 123.001 110.122Z" fill="#FF8B66"/>
<path d="M109.441 67.183C109.441 67.183 105.799 69.6686 103.499 75.6729C101.198 81.6771 93.94 92.9758 92.2402 95.8954C90.5397 98.8144 91.7243 114.701 91.7243 114.701C91.7243 114.701 89.5925 105.069 88.6453 101.316C87.6975 97.5638 91.7039 88.2911 92.3061 87.7983C92.9083 87.3062 95.9874 88.2073 95.3954 84.4419C94.8034 80.6766 103.064 64.4533 105.27 63.9963C105.27 63.9963 108.803 64.6973 109.441 67.183Z" fill="#6097B2"/>
<path d="M98.1784 67.9951C98.1144 68.1228 98.0434 68.2499 97.9583 68.3703C97.1339 69.6236 95.5992 70.622 95.5992 70.622C95.5992 70.622 92.821 74.7348 92.7922 75.208C92.764 75.6129 87.9679 79.2904 85.836 79.2153H85.829C85.5378 79.2079 85.2959 79.1254 85.1256 78.9605C83.8603 77.6997 89.4315 67.117 90.6603 64.8355C90.7391 64.6854 90.8031 64.5725 90.8453 64.4975C90.8741 64.4373 90.8952 64.4001 90.8952 64.4001C90.8952 64.4001 89.9147 60.5422 94.0075 61.2628C97.4111 61.8557 98.0863 64.7151 98.4415 66.6289C98.5266 67.0872 98.4056 67.5523 98.1784 67.9951Z" fill="#6097B2"/>
<path d="M83.8873 71.9943C86.6988 68.0904 96.5919 60.5192 101.803 58.2782L103.106 60.8362C103.106 60.8362 93.0367 70.1867 90.6707 74.1866C88.3052 78.1864 85.3753 79.8406 82.5753 78.5089C79.7753 77.1765 83.2959 72.8156 83.8873 71.9943Z" fill="#FF8B66"/>
<path d="M97.1979 67.192L96.6648 67.8376L96.3947 68.1675L95.514 69.2336C95.514 69.2336 93.2971 72.0707 93.3822 73.2111C93.4462 74.0291 89.1755 77.6923 85.836 79.2154C84.4785 79.8386 83.2708 80.109 82.5675 79.6811C80.1515 78.2102 80.6916 73.7891 82.0632 70.7944C83.2568 68.1831 88.5361 64.8125 89.8936 63.9871C90.0638 63.8749 90.1707 63.8073 90.2059 63.7924L90.2129 63.7843L90.7172 61.7131C90.7172 61.7131 92.5579 60.5422 94.0075 61.2628C94.0075 61.2628 90.81 61.4055 91.3355 62.7189C91.8756 64.0398 96.3096 67.1467 97.1979 67.192Z" fill="#8BBDDB"/>
<path d="M108.809 56.3619C105.59 57.7578 106.051 60.8349 103.103 60.8349C101.276 60.8349 101.035 58.6285 101.035 58.6285C101.859 56.7445 102.385 53.5321 102.499 52.001C102.62 50.4705 103.103 51.0634 103.103 51.0634C103.103 50.9207 103.096 50.7855 103.088 50.6503C103.046 49.6221 102.868 48.8718 103.507 49.3146C104.233 49.8094 104.481 52.7216 104.481 52.7216C105.078 48.4736 104.19 47.8436 104.886 48.2188C105.838 48.7291 105.845 52.4816 105.845 52.5945C106.613 50.1251 106.407 48.7143 106.94 49.2767C107.48 49.8472 106.67 54.3805 106.35 56.0468C106.279 56.422 106.229 56.6546 106.229 56.6546C108.78 55.3337 108.809 56.3619 108.809 56.3619Z" fill="#FF8B66"/>
<path d="M106.35 56.0467C106.279 56.4218 106.229 56.6544 106.229 56.6544C106.229 56.6544 105.049 56.5347 104.19 57.8779C104.19 57.8779 104.431 56.0764 106.35 56.0467Z" fill="#EF6E4B"/>
<path d="M103.28 54.1102C103.301 53.7499 103.443 51.6861 103.103 51.0628C103.103 50.9202 103.095 50.7857 103.088 50.6505C103.827 50.8154 103.358 53.6749 103.28 54.1102Z" fill="#EF6E4B"/>
<path d="M105.277 72.0156C105.277 72.0156 107.453 65.7883 108.145 64.3984C108.837 63.0079 112.441 63.2458 115.169 63.7839C117.896 64.3214 118.454 68.1786 118.454 68.1786C118.454 68.1786 110.156 64.0429 105.277 72.0156Z" fill="#8BBDDB"/>
<path d="M119.285 59.7596C119.285 59.7596 116.679 64.8424 116.72 70.4789C116.72 70.4789 112.487 73.5175 110.972 69.7116C110.972 69.7116 112.58 64.7255 111.803 57.9945C111.283 53.487 119.285 59.7596 119.285 59.7596Z" fill="#EF6E4B"/>
<path d="M110.972 52.7072C110.972 52.7072 110.198 49.7936 108.819 51.8419C107.222 54.2147 108.85 56.5212 109.702 55.9709C110.554 55.42 110.972 52.7072 110.972 52.7072Z" fill="#FF8B66"/>
<path d="M123.277 60.1988C123.277 60.1988 126.037 59.3876 125.094 61.6941C124.001 64.367 121.289 64.0925 121.293 63.038C121.297 61.9834 123.277 60.1988 123.277 60.1988Z" fill="#FF8B66"/>
<path d="M112.102 65.4144C108.18 63.0822 107.41 59.0606 111.736 50.9466C113.967 46.7615 117.352 45.394 121.743 48.006C126.135 50.6181 126.616 54.2854 124.385 58.4705C119.737 67.1889 116.152 67.8236 112.102 65.4144Z" fill="#FF8B66"/>
<path d="M121.544 60.5922C121.391 61.0492 120.827 61.256 120.286 61.0539C119.745 60.8511 119.43 60.3164 119.583 59.8594C119.737 59.4024 120.299 59.1956 120.841 59.3977C121.382 59.6005 121.697 60.1352 121.544 60.5922Z" fill="#DB614D"/>
<path d="M113.358 56.0218C113.107 56.4281 112.514 56.489 112.033 56.1577C111.552 55.8265 111.365 55.2282 111.616 54.8219C111.867 54.4157 112.46 54.3548 112.941 54.6867C113.422 55.018 113.609 55.6156 113.358 56.0218Z" fill="#DB614D"/>
<path d="M122.105 55.3461C122.004 55.3461 121.913 55.2744 121.887 55.1669C121.665 54.2428 120.695 53.6986 120.685 53.6939C120.575 53.6331 120.533 53.4891 120.59 53.3728C120.648 53.2565 120.782 53.2112 120.893 53.2721C120.941 53.2985 122.052 53.9224 122.322 55.0506C122.353 55.1771 122.28 55.3062 122.16 55.3386C122.141 55.344 122.123 55.3461 122.105 55.3461Z" fill="#1A4850"/>
<path d="M116.72 51.2998C116.68 51.2998 116.64 51.289 116.604 51.266C116.594 51.2599 115.649 50.6671 114.788 50.9449C114.668 50.9835 114.543 50.9125 114.507 50.7867C114.471 50.6617 114.537 50.5285 114.656 50.49C115.711 50.1493 116.791 50.83 116.837 50.8591C116.943 50.9273 116.976 51.0727 116.912 51.1849C116.87 51.2586 116.796 51.2998 116.72 51.2998Z" fill="#1A4850"/>
<path d="M120.485 57.3116C120.21 57.8261 119.768 58.1127 119.498 57.9511C119.228 57.7902 119.231 57.2434 119.505 56.7289C119.779 56.2145 120.221 55.9279 120.491 56.0888C120.762 56.2496 120.759 56.7972 120.485 57.3116Z" fill="#1A4850"/>
<path d="M114.987 54.197C114.713 54.7115 114.271 54.9981 114.001 54.8365C113.73 54.6757 113.733 54.1288 114.007 53.6143C114.282 53.0999 114.723 52.8133 114.994 52.9742C115.264 53.135 115.261 53.6826 114.987 54.197Z" fill="#1A4850"/>
<path d="M113.082 59.4778C113.082 59.4778 115.332 61.2908 116.957 61.3462C116.957 61.3462 115.229 62.8334 113.986 61.8688C112.744 60.9041 113.082 59.4778 113.082 59.4778Z" fill="#1A4850"/>
<path d="M119.302 56.2722C119.302 56.2722 120.335 55.2176 120.758 55.5888C121.18 55.9599 120.959 57.2578 120.959 57.2578L121.862 57.2822L121.116 56.9644C121.116 56.9644 121.356 55.6165 120.892 55.3373C120.23 54.9398 119.302 56.2722 119.302 56.2722Z" fill="#1A4850"/>
<path d="M115.413 54.1627C115.413 54.1627 115.731 52.6836 115.211 52.4943C114.691 52.305 113.756 53.1778 113.756 53.1778L113.267 52.374L113.912 52.8837C113.912 52.8837 114.878 51.9677 115.345 52.2428C116.01 52.6343 115.413 54.1627 115.413 54.1627Z" fill="#1A4850"/>
<path d="M122.785 49.7404C122.785 49.7404 121.38 47.6786 119.44 49.3158C117.5 50.9531 113.125 53.5733 110.972 52.7073C108.819 51.8414 115.681 42.1543 121.639 44.9915C127.596 47.8286 127.061 57.0621 124.583 59.998C122.104 62.9345 123.277 60.1987 123.277 60.1987C123.277 60.1987 123.442 56.0332 124.27 53.2731C125.098 50.513 122.785 49.7404 122.785 49.7404Z" fill="#F24052"/>
<path d="M116.181 58.5332C116.072 58.5332 115.959 58.5177 115.841 58.4866L115.96 57.9897C116.361 58.0972 116.558 57.9154 116.653 57.7443C116.786 57.5023 116.767 57.1907 116.662 57.0737C116.6 57.0055 116.494 57.0122 116.345 57.0947L116.12 56.6398C116.615 56.3673 116.909 56.6046 117.013 56.7202C117.28 57.0156 117.306 57.5787 117.072 58.0026C116.881 58.3473 116.561 58.5332 116.181 58.5332Z" fill="#DB614D"/>
<path d="M144.898 94.2037C144.664 97.844 136.137 109.695 134.716 110.115C134.346 110.22 133.969 110.438 133.614 110.693C133.465 110.806 133.316 110.926 133.174 111.046C132.364 111.736 131.752 112.531 131.752 112.531C129.265 112.359 122.281 108.944 124.526 108.194C124.661 108.149 124.81 108.066 124.973 107.946C125.066 107.879 125.165 107.803 125.265 107.706C127.909 105.364 133.053 95.8626 133.089 95.142C133.117 94.3538 134.005 94.2037 134.005 94.2037C134.005 94.2037 129.152 86.6758 126.338 85.7679C123.525 84.8594 122.103 81.2644 122.103 81.2644C119.325 68.8429 127.404 70.7945 127.404 70.7945C133.358 74.5396 145.132 90.556 144.898 94.2037Z" fill="#8BBDDB"/>
<path d="M133.614 110.693C133.465 110.806 133.316 110.925 133.174 111.046C129.358 110.768 126.16 108.787 124.974 107.946C125.066 107.878 125.166 107.803 125.265 107.706C126.537 108.584 129.792 110.543 133.614 110.693Z" fill="#3E6575"/>
<path d="M98.1784 67.9951C98.1144 68.1228 98.0434 68.2499 97.9583 68.3703C97.4111 68.3479 96.892 68.2803 96.3947 68.1675C93.8725 67.6273 91.9327 66.134 90.6603 64.8355C90.3691 64.5353 90.1138 64.25 89.8936 63.9871C90.0639 63.8749 90.1701 63.8073 90.2059 63.7924C90.3909 64.0101 90.604 64.25 90.8453 64.4975C92.1106 65.8109 94.0786 67.3421 96.6648 67.8376C97.148 67.9349 97.6523 67.9876 98.1784 67.9951Z" fill="#3E6575"/>
<path d="M136.307 121.486C135.135 123.58 132.968 126.109 129.18 126.762C129.116 126.657 129.045 126.537 128.981 126.416C132.868 125.801 135.021 123.137 136.137 121.05C136.193 121.2 136.25 121.35 136.307 121.486Z" fill="#3E6575"/>
<path d="M71.6389 189.777C71.6389 189.777 70.7506 190.7 69.8271 192.396C68.9029 194.092 69.9192 195.653 65.4501 199.586C65.4501 199.586 56.4325 194.01 52.3615 186.842C52.3615 186.842 52.4325 184.793 54.4005 184.312C55.4591 184.058 58.3723 185.499 61.1723 186.054C61.5704 186.129 61.9679 186.196 62.3589 186.227C62.8491 186.271 63.3323 186.279 63.7944 186.219C64.2207 186.174 64.6258 186.077 65.0021 185.911H65.0091C65.9615 185.499 66.7147 184.68 67.1058 183.247C67.1058 183.247 69.5 184.688 67.9013 187.127C67.9013 187.127 70.7435 185.814 71.6389 189.777Z" fill="#CFD8DC"/>
<path d="M65.4499 199.586C65.4499 199.586 56.4329 194.01 52.3612 186.842C52.3612 186.842 53.8748 186.504 55.1254 188.876C56.3759 191.255 66.182 196.652 65.4499 199.586Z" fill="#ADBEC4"/>
<path d="M65.4854 188.313C64.7538 189.537 64.7679 187.277 63.7945 186.219C64.2207 186.174 64.6258 186.076 65.0022 185.911H65.0092C65.4425 186.407 66.0607 187.36 65.4854 188.313Z" fill="#ADBEC4"/>
<path d="M62.6502 188.381C61.8758 189.154 61.6269 187.135 61.1725 186.054C61.5699 186.129 61.968 186.196 62.359 186.227C62.8134 186.879 63.2403 187.788 62.6502 188.381Z" fill="#ADBEC4"/>
<path d="M127.113 214.522H114.358C114.358 214.522 113.825 212.645 114.358 210.581C114.585 209.688 115.907 208.855 117.136 207.692C117.477 207.369 117.804 207.032 118.11 206.648C118.352 206.348 118.572 206.018 118.756 205.665C118.991 205.237 119.175 204.772 119.282 204.262C119.488 203.241 119.41 202.04 118.856 200.599C118.856 200.599 123.197 199.639 124.746 202.138C124.746 202.138 124.896 200.982 126.274 201.755C126.274 201.755 126.075 204.074 126.345 206.018C126.615 207.954 128.328 208.517 127.113 214.522Z" fill="#CFD8DC"/>
<path d="M123.794 206.408C123.68 206.544 123.524 206.611 123.368 206.611C123.233 206.611 123.105 206.566 122.991 206.476C122.331 205.92 120.874 205.058 118.756 205.665C118.991 205.238 119.175 204.772 119.282 204.262C120.135 203.932 121.74 203.737 123.723 205.523C123.979 205.748 124.014 206.145 123.794 206.408Z" fill="#ADBEC4"/>
<path d="M122.721 208.645L122.65 208.758C122.48 209.035 122.139 209.126 121.869 208.96C121.002 208.42 119.055 207.399 117.136 207.692C117.477 207.369 117.804 207.031 118.109 206.649C119.055 206.416 120.838 206.288 122.593 207.827C122.821 208.03 122.884 208.382 122.721 208.645Z" fill="#ADBEC4"/>
</svg>
